<ttFont>
    <TTGlyph name="A" xMin="55" yMin="0" xMax="1448" yMax="1456">
      <contour>
        <pt x="55" y="126" on="1"/>
        <pt x="163" y="141" on="1"/>
        <pt x="672" y="1456" on="1"/>
        <pt x="841" y="1456" on="1"/>
        <pt x="1341" y="141" on="1"/>
        <pt x="1448" y="126" on="1"/>
        <pt x="1448" y="0" on="1"/>
        <pt x="1030" y="0" on="1"/>
        <pt x="1030" y="126" on="1"/>
        <pt x="1140" y="145" on="1"/>
        <pt x="1044" y="413" on="1"/>
        <pt x="461" y="413" on="1"/>
        <pt x="362" y="145" on="1"/>
        <pt x="472" y="126" on="1"/>
        <pt x="472" y="0" on="1"/>
        <pt x="55" y="0" on="1"/>
      </contour>
      <contour>
        <pt x="522" y="578" on="1"/>
        <pt x="984" y="578" on="1"/>
        <pt x="758" y="1203" on="1"/>
        <pt x="752" y="1203" on="1"/>
      </contour>
    </TTGlyph>
    <TTGlyph name="A.smcp" xMin="16" yMin="0" xMax="1188" yMax="1165">
      <contour>
        <pt x="16" y="126" on="1"/>
        <pt x="97" y="140" on="1"/>
        <pt x="510" y="1165" on="1"/>
        <pt x="695" y="1165" on="1"/>
        <pt x="1107" y="140" on="1"/>
        <pt x="1188" y="126" on="1"/>
        <pt x="1188" y="0" on="1"/>
        <pt x="797" y="0" on="1"/>
        <pt x="797" y="126" on="1"/>
        <pt x="904" y="144" on="1"/>
        <pt x="856" y="268" on="1"/>
        <pt x="348" y="268" on="1"/>
        <pt x="300" y="144" on="1"/>
        <pt x="408" y="126" on="1"/>
        <pt x="408" y="0" on="1"/>
        <pt x="16" y="0" on="1"/>
      </contour>
      <contour>
        <pt x="407" y="422" on="1"/>
        <pt x="797" y="422" on="1"/>
        <pt x="604" y="921" on="1"/>
        <pt x="598" y="921" on="1"/>
      </contour>
    </TTGlyph>
    <TTGlyph name="AE" xMin="51" yMin="0" xMax="2014" yMax="1456">
      <contour>
        <pt x="51" y="126" on="1"/>
        <pt x="192" y="146" on="1"/>
        <pt x="985" y="1456" on="1"/>
        <pt x="1952" y="1456" on="1"/>
        <pt x="1952" y="1134" on="1"/>
        <pt x="1784" y="1134" on="1"/>
        <pt x="1769" y="1301" on="1"/>
        <pt x="1261" y="1301" on="1"/>
        <pt x="1281" y="835" on="1"/>
        <pt x="1871" y="835" on="1"/>
        <pt x="1871" y="680" on="1"/>
        <pt x="1287" y="680" on="1"/>
        <pt x="1309" y="154" on="1"/>
        <pt x="1831" y="154" on="1"/>
        <pt x="1847" y="321" on="1"/>
        <pt x="2014" y="321" on="1"/>
        <pt x="2014" y="0" on="1"/>
        <pt x="956" y="0" on="1"/>
        <pt x="956" y="126" on="1"/>
        <pt x="1112" y="153" on="1"/>
        <pt x="1104" y="350" on="1"/>
        <pt x="548" y="350" on="1"/>
        <pt x="427" y="140" on="1"/>
        <pt x="509" y="126" on="1"/>
        <pt x="509" y="0" on="1"/>
        <pt x="51" y="0" on="1"/>
      </contour>
      <contour>
        <pt x="651" y="529" on="1"/>
        <pt x="1097" y="529" on="1"/>
        <pt x="1066" y="1239" on="1"/>
        <pt x="1061" y="1241" on="1"/>
      </contour>
    </TTGlyph>
    <TTGlyph name="AEacute" xMin="51" yMin="0" xMax="2014" yMax="1821">
      <component glyphName="AE" x="0" y="0" flags="0x204"/>
      <component glyphName="acute" x="922" y="343" flags="0x4"/>
    </TTGlyph>
    <TTGlyph name="Aacute" xMin="55" yMin="0" xMax="1448" yMax="1822">
      <component glyphName="A" x="0" y="0" flags="0x204"/>
      <component glyphName="acute" x="536" y="344" flags="0x4"/>
    </TTGlyph>
    <TTGlyph name="Aacute.smcp" xMin="16" yMin="0" xMax="1188" yMax="1500">
      <component glyphName="A.smcp" x="0" y="0" flags="0x204"/>
      <component glyphName="acute" x="377" y="22" flags="0x4"/>
    </TTGlyph>
    <TTGlyph name="Abreve" xMin="55" yMin="0" xMax="1448" yMax="1867">
      <component glyphName="A" x="0" y="0" flags="0x204"/>
      <component glyphName="breve" x="329" y="411" flags="0x4"/>
    </TTGlyph>
    <TTGlyph name="Abreve.smcp" xMin="16" yMin="0" xMax="1188" yMax="1545">
      <component glyphName="A.smcp" x="0" y="0" flags="0x204"/>
      <component glyphName="breve" x="170" y="89" flags="0x4"/>
    </TTGlyph>
    <TTGlyph name="Acircumflex" xMin="55" yMin="0" xMax="1448" yMax="1850">
      <component glyphName="A" x="0" y="0" flags="0x204"/>
      <component glyphName="circumflex" x="348" y="335" flags="0x4"/>
    </TTGlyph>
    <TTGlyph name="Acircumflex.smcp" xMin="16" yMin="0" xMax="1188" yMax="1528">
      <component glyphName="A.smcp" x="0" y="0" flags="0x204"/>
      <component glyphName="circumflex" x="189" y="13" flags="0x4"/>
    </TTGlyph>
    <TTGlyph name="Adieresis" xMin="55" yMin="0" xMax="1448" yMax="1804">
      <component glyphName="A" x="0" y="0" flags="0x204"/>
      <component glyphName="dieresis" x="243" y="348" flags="0x4"/>
    </TTGlyph>
    <TTGlyph name="Adieresis.smcp" xMin="16" yMin="0" xMax="1188" yMax="1482">
      <component glyphName="A.smcp" x="0" y="0" flags="0x204"/>
      <component glyphName="dieresis" x="84" y="26" flags="0x4"/>
    </TTGlyph>
    <TTGlyph name="Agrave" xMin="55" yMin="0" xMax="1448" yMax="1825">
      <component glyphName="A" x="0" y="0" flags="0x204"/>
      <component glyphName="grave" x="351" y="348" flags="0x4"/>
    </TTGlyph>
    <TTGlyph name="Agrave.smcp" xMin="16" yMin="0" xMax="1188" yMax="1503">
      <component glyphName="A.smcp" x="0" y="0" flags="0x204"/>
      <component glyphName="grave" x="192" y="26" flags="0x4"/>
    </TTGlyph>
    <TTGlyph name="Alpha" xMin="55" yMin="0" xMax="1448" yMax="1456">
      <component glyphName="A" x="0" y="0" flags="0x204"/>
    </TTGlyph>
    <TTGlyph name="Alphatonos" xMin="55" yMin="0" xMax="1448" yMax="1660">
      <component glyphName="A" x="0" y="0" flags="0x204"/>
      <component glyphName="tonos" x="98" y="0" flags="0x4"/>
    </TTGlyph>
    <TTGlyph name="Amacron" xMin="55" yMin="0" xMax="1448" yMax="1795">
      <component glyphName="A" x="0" y="0" flags="0x204"/>
      <component glyphName="macron" x="240" y="339" flags="0x4"/>
    </TTGlyph>
    <TTGlyph name="Amacron.smcp" xMin="16" yMin="0" xMax="1188" yMax="1473">
      <component glyphName="A.smcp" x="0" y="0" flags="0x204"/>
      <component glyphName="macron" x="81" y="17" flags="0x4"/>
    </TTGlyph>
    <TTGlyph name="Aogonek" xMin="55" yMin="-432" xMax="1527" yMax="1456">
      <component glyphName="A" x="0" y="0" flags="0x204"/>
      <component glyphName="ogonek" x="1075" y="0" flags="0x4"/>
    </TTGlyph>
    <TTGlyph name="Aogonek.smcp" xMin="16" yMin="-432" xMax="1267" yMax="1165">
      <component glyphName="A.smcp" x="0" y="0" flags="0x204"/>
      <component glyphName="ogonek" x="815" y="0" flags="0x4"/>
    </TTGlyph>
    <TTGlyph name="Aring" xMin="55" yMin="0" xMax="1448" yMax="1933">
      <component glyphName="A" x="0" y="0" flags="0x204"/>
      <component glyphName="ring" x="417" y="427" flags="0x4"/>
    </TTGlyph>
    <TTGlyph name="Aring.smcp" xMin="16" yMin="0" xMax="1188" yMax="1611">
      <component glyphName="A.smcp" x="0" y="0" flags="0x204"/>
      <component glyphName="ring" x="258" y="105" flags="0x4"/>
    </TTGlyph>
    <TTGlyph name="Aringacute" xMin="55" yMin="0" xMax="1448" yMax="1952">
      <component glyphName="A" x="0" y="0" flags="0x204"/>
      <component glyphName="ringacute" x="433" y="304" flags="0x4"/>
    </TTGlyph>
    <TTGlyph name="Aringacute.smcp" xMin="16" yMin="0" xMax="1188" yMax="1631">
      <component glyphName="A.smcp" x="0" y="0" flags="0x204"/>
      <component glyphName="ringacute" x="274" y="-17" flags="0x4"/>
    </TTGlyph>
    <TTGlyph name="Atilde" xMin="55" yMin="0" xMax="1448" yMax="1875">
      <component glyphName="A" x="0" y="0" flags="0x204"/>
      <component glyphName="tilde" x="275" y="352" flags="0x4"/>
    </TTGlyph>
    <TTGlyph name="Atilde.smcp" xMin="16" yMin="0" xMax="1188" yMax="1553">
      <component glyphName="A.smcp" x="0" y="0" flags="0x204"/>
      <component glyphName="tilde" x="116" y="30" flags="0x4"/>
    </TTGlyph>
    <TTGlyph name="B" xMin="71" yMin="0" xMax="1253" yMax="1456">
      <contour>
        <pt x="709" y="1456" on="1"/>
        <pt x="937" y="1456" on="0"/>
        <pt x="1194" y="1259" on="0"/>
        <pt x="1194" y="1062" on="1"/>
        <pt x="1194" y="965" on="0"/>
        <pt x="1071" y="812" on="0"/>
        <pt x="970" y="775" on="1"/>
        <pt x="1101" y="747" on="0"/>
        <pt x="1253" y="545" on="0"/>
        <pt x="1253" y="411" on="1"/>
        <pt x="1253" y="211" on="0"/>
        <pt x="993" y="0" on="0"/>
        <pt x="771" y="0" on="1"/>
        <pt x="71" y="0" on="1"/>
        <pt x="71" y="126" on="1"/>
        <pt x="234" y="154" on="1"/>
        <pt x="234" y="1301" on="1"/>
        <pt x="71" y="1329" on="1"/>
        <pt x="71" y="1456" on="1"/>
        <pt x="234" y="1456" on="1"/>
      </contour>
      <contour>
        <pt x="431" y="683" on="1"/>
        <pt x="431" y="154" on="1"/>
        <pt x="771" y="154" on="1"/>
        <pt x="906" y="154" on="0"/>
        <pt x="1055" y="287" on="0"/>
        <pt x="1055" y="409" on="1"/>
        <pt x="1055" y="537" on="0"/>
        <pt x="930" y="683" on="0"/>
        <pt x="801" y="683" on="1"/>
      </contour>
      <contour>
        <pt x="431" y="837" on="1"/>
        <pt x="760" y="837" on="1"/>
        <pt x="866" y="840" on="0"/>
        <pt x="997" y="960" on="0"/>
        <pt x="997" y="1066" on="1"/>
        <pt x="997" y="1184" on="0"/>
        <pt x="849" y="1301" on="0"/>
        <pt x="709" y="1301" on="1"/>
        <pt x="431" y="1301" on="1"/>
      </contour>
    </TTGlyph>
    <TTGlyph name="B.smcp" xMin="31" yMin="0" xMax="1078" yMax="1165">
      <contour>
        <pt x="591" y="1165" on="1"/>
        <pt x="804" y="1165" on="0"/>
        <pt x="1041" y="1006" on="0"/>
        <pt x="1041" y="847" on="1"/>
        <pt x="1041" y="764" on="0"/>
        <pt x="946" y="633" on="0"/>
        <pt x="859" y="600" on="1"/>
        <pt x="962" y="575" on="0"/>
        <pt x="1078" y="425" on="0"/>
        <pt x="1078" y="329" on="1"/>
        <pt x="1078" y="167" on="0"/>
        <pt x="857" y="0" on="0"/>
        <pt x="660" y="0" on="1"/>
        <pt x="31" y="0" on="1"/>
        <pt x="31" y="126" on="1"/>
        <pt x="194" y="154" on="1"/>
        <pt x="194" y="1010" on="1"/>
        <pt x="31" y="1038" on="1"/>
        <pt x="31" y="1165" on="1"/>
        <pt x="194" y="1165" on="1"/>
      </contour>
      <contour>
        <pt x="391" y="521" on="1"/>
        <pt x="391" y="152" on="1"/>
        <pt x="660" y="152" on="1"/>
        <pt x="769" y="152" on="0"/>
        <pt x="880" y="246" on="0"/>
        <pt x="880" y="334" on="1"/>
        <pt x="880" y="418" on="0"/>
        <pt x="774" y="518" on="0"/>
        <pt x="671" y="521" on="1"/>
        <pt x="660" y="521" on="1"/>
      </contour>
      <contour>
        <pt x="391" y="662" on="1"/>
        <pt x="603" y="662" on="1"/>
        <pt x="721" y="664" on="0"/>
        <pt x="844" y="753" on="0"/>
        <pt x="844" y="836" on="1"/>
        <pt x="844" y="922" on="0"/>
        <pt x="721" y="992" on="0"/>
        <pt x="591" y="992" on="1"/>
        <pt x="391" y="992" on="1"/>
      </contour>
    </TTGlyph>
    <TTGlyph name="Beta" xMin="71" yMin="0" xMax="1253" yMax="1456">
      <component glyphName="B" x="0" y="0" flags="0x204"/>
    </TTGlyph>
    <TTGlyph name="C" xMin="71" yMin="-21" xMax="1200" yMax="1477">
      <contour>
        <pt x="1200" y="1009" on="1"/>
        <pt x="1061" y="1009" on="1"/>
        <pt x="1024" y="1215" on="1"/>
        <pt x="976" y="1262" on="0"/>
        <pt x="836" y="1322" on="0"/>
        <pt x="739" y="1322" on="1"/>
        <pt x="512" y="1322" on="0"/>
        <pt x="268" y="993" on="0"/>
        <pt x="268" y="740" on="1"/>
        <pt x="268" y="717" on="1"/>
        <pt x="268" y="464" on="0"/>
        <pt x="507" y="133" on="0"/>
        <pt x="719" y="133" on="1"/>
        <pt x="818" y="133" on="0"/>
        <pt x="980" y="195" on="0"/>
        <pt x="1024" y="240" on="1"/>
        <pt x="1061" y="446" on="1"/>
        <pt x="1200" y="446" on="1"/>
        <pt x="1200" y="187" on="1"/>
        <pt x="1137" y="106" on="0"/>
        <pt x="885" y="-21" on="0"/>
        <pt x="719" y="-21" on="1"/>
        <pt x="435" y="-21" on="0"/>
        <pt x="71" y="399" on="0"/>
        <pt x="71" y="717" on="1"/>
        <pt x="71" y="738" on="1"/>
        <pt x="71" y="1058" on="0"/>
        <pt x="429" y="1477" on="0"/>
        <pt x="719" y="1477" on="1"/>
        <pt x="885" y="1477" on="0"/>
        <pt x="1137" y="1348" on="0"/>
        <pt x="1200" y="1268" on="1"/>
      </contour>
    </TTGlyph>
    <TTGlyph name="C.smcp" xMin="112" yMin="-17" xMax="1062" yMax="1181">
      <contour>
        <pt x="1055" y="381" on="1"/>
        <pt x="1057" y="375" on="1"/>
        <pt x="1061" y="186" on="0"/>
        <pt x="813" y="-17" on="0"/>
        <pt x="615" y="-17" on="1"/>
        <pt x="397" y="-17" on="0"/>
        <pt x="112" y="289" on="0"/>
        <pt x="112" y="555" on="1"/>
        <pt x="112" y="590" on="1"/>
        <pt x="112" y="864" on="0"/>
        <pt x="396" y="1181" on="0"/>
        <pt x="615" y="1181" on="1"/>
        <pt x="818" y="1181" on="0"/>
        <pt x="1062" y="978" on="0"/>
        <pt x="1058" y="791" on="1"/>
        <pt x="1056" y="785" on="1"/>
        <pt x="866" y="785" on="1"/>
        <pt x="866" y="906" on="0"/>
        <pt x="733" y="1028" on="0"/>
        <pt x="615" y="1028" on="1"/>
        <pt x="481" y="1028" on="0"/>
        <pt x="309" y="790" on="0"/>
        <pt x="309" y="591" on="1"/>
        <pt x="309" y="555" on="1"/>
        <pt x="309" y="364" on="0"/>
        <pt x="481" y="135" on="0"/>
        <pt x="615" y="135" on="1"/>
        <pt x="733" y="135" on="0"/>
        <pt x="865" y="257" on="0"/>
        <pt x="865" y="381" on="1"/>
      </contour>
    </TTGlyph>
    <TTGlyph name="C.ss03" xMin="114" yMin="-21" xMax="1192" yMax="1477">
      <contour>
        <pt x="1192" y="958" on="1"/>
        <pt x="1034" y="958" on="1"/>
        <pt x="977" y="1196" on="1"/>
        <pt x="933" y="1251" on="0"/>
        <pt x="802" y="1322" on="0"/>
        <pt x="711" y="1322" on="1"/>
        <pt x="529" y="1322" on="0"/>
        <pt x="311" y="1056" on="0"/>
        <pt x="311" y="859" on="1"/>
        <pt x="311" y="598" on="1"/>
        <pt x="311" y="399" on="0"/>
        <pt x="507" y="133" on="0"/>
        <pt x="672" y="133" on="1"/>
        <pt x="764" y="133" on="0"/>
        <pt x="916" y="195" on="0"/>
        <pt x="957" y="241" on="1"/>
        <pt x="1014" y="496" on="1"/>
        <pt x="1152" y="496" on="1"/>
        <pt x="1152" y="188" on="1"/>
        <pt x="1090" y="107" on="0"/>
        <pt x="838" y="-21" on="0"/>
        <pt x="672" y="-21" on="1"/>
        <pt x="424" y="-21" on="0"/>
        <pt x="114" y="328" on="0"/>
        <pt x="114" y="598" on="1"/>
        <pt x="114" y="857" on="1"/>
        <pt x="114" y="1126" on="0"/>
        <pt x="436" y="1477" on="0"/>
        <pt x="692" y="1477" on="1"/>
        <pt x="864" y="1477" on="0"/>
        <pt x="1126" y="1348" on="0"/>
        <pt x="1192" y="1268" on="1"/>
      </contour>
    </TTGlyph>
    <TTGlyph name="C.ss04" xMin="114" yMin="-21" xMax="1206" yMax="1477">
      <contour>
        <pt x="1204" y="466" on="1"/>
        <pt x="1206" y="460" on="1"/>
        <pt x="1187" y="249" on="0"/>
        <pt x="909" y="-21" on="0"/>
        <pt x="672" y="-21" on="1"/>
        <pt x="424" y="-21" on="0"/>
        <pt x="114" y="328" on="0"/>
        <pt x="114" y="598" on="1"/>
        <pt x="114" y="857" on="1"/>
        <pt x="114" y="1126" on="0"/>
        <pt x="425" y="1477" on="0"/>
        <pt x="672" y="1477" on="1"/>
        <pt x="913" y="1477" on="0"/>
        <pt x="1187" y="1220" on="0"/>
        <pt x="1206" y="997" on="1"/>
        <pt x="1204" y="991" on="1"/>
        <pt x="1015" y="991" on="1"/>
        <pt x="991" y="1152" on="0"/>
        <pt x="830" y="1322" on="0"/>
        <pt x="672" y="1322" on="1"/>
        <pt x="507" y="1322" on="0"/>
        <pt x="311" y="1056" on="0"/>
        <pt x="311" y="859" on="1"/>
        <pt x="311" y="598" on="1"/>
        <pt x="311" y="399" on="0"/>
        <pt x="507" y="133" on="0"/>
        <pt x="672" y="133" on="1"/>
        <pt x="831" y="133" on="0"/>
        <pt x="991" y="302" on="0"/>
        <pt x="1015" y="466" on="1"/>
      </contour>
    </TTGlyph>
    <TTGlyph name="Cacute" xMin="71" yMin="-21" xMax="1200" yMax="1844">
      <component glyphName="C" x="0" y="0" flags="0x204"/>
      <component glyphName="acute" x="493" y="366" flags="0x4"/>
    </TTGlyph>
    <TTGlyph name="Cacute.smcp" xMin="112" yMin="-17" xMax="1062" yMax="1516">
      <component glyphName="C.smcp" x="0" y="0" flags="0x204"/>
      <component glyphName="acute" x="360" y="38" flags="0x4"/>
    </TTGlyph>
    <TTGlyph name="Ccaron" xMin="71" yMin="-21" xMax="1200" yMax="1866">
      <component glyphName="C" x="0" y="0" flags="0x204"/>
      <component glyphName="caron" x="310" y="351" flags="0x4"/>
    </TTGlyph>
    <TTGlyph name="Ccaron.smcp" xMin="112" yMin="-17" xMax="1062" yMax="1538">
      <component glyphName="C.smcp" x="0" y="0" flags="0x204"/>
      <component glyphName="caron" x="177" y="23" flags="0x4"/>
    </TTGlyph>
    <TTGlyph name="Ccedilla" xMin="71" yMin="-443" xMax="1200" yMax="1477">
      <component glyphName="C" x="0" y="0" flags="0x204"/>
      <component glyphName="cedilla" x="498" y="-8" flags="0x4"/>
    </TTGlyph>
    <TTGlyph name="Ccedilla.smcp" xMin="112" yMin="-441" xMax="1062" yMax="1181">
      <component glyphName="C.smcp" x="0" y="0" flags="0x204"/>
      <component glyphName="cedilla" x="365" y="-6" flags="0x4"/>
    </TTGlyph>
    <TTGlyph name="Ccircumflex" xMin="71" yMin="-21" xMax="1200" yMax="1872">
      <component glyphName="C" x="0" y="0" flags="0x204"/>
      <component glyphName="circumflex" x="305" y="357" flags="0x4"/>
    </TTGlyph>
    <TTGlyph name="Ccircumflex.smcp" xMin="112" yMin="-17" xMax="1062" yMax="1544">
      <component glyphName="C.smcp" x="0" y="0" flags="0x204"/>
      <component glyphName="circumflex" x="172" y="29" flags="0x4"/>
    </TTGlyph>
    <TTGlyph name="Chi" xMin="43" yMin="0" xMax="1361" yMax="1456">
      <component glyphName="X" x="0" y="0" flags="0x204"/>
    </TTGlyph>
    <TTGlyph name="D" xMin="71" yMin="0" xMax="1313" yMax="1456">
      <contour>
        <pt x="681" y="1456" on="1"/>
        <pt x="966" y="1456" on="0"/>
        <pt x="1313" y="1105" on="0"/>
        <pt x="1313" y="827" on="1"/>
        <pt x="1313" y="628" on="1"/>
        <pt x="1313" y="349" on="0"/>
        <pt x="966" y="0" on="0"/>
        <pt x="681" y="0" on="1"/>
        <pt x="71" y="0" on="1"/>
        <pt x="71" y="126" on="1"/>
        <pt x="234" y="154" on="1"/>
        <pt x="234" y="1301" on="1"/>
        <pt x="71" y="1329" on="1"/>
        <pt x="71" y="1456" on="1"/>
        <pt x="234" y="1456" on="1"/>
      </contour>
      <contour>
        <pt x="431" y="1301" on="1"/>
        <pt x="431" y="154" on="1"/>
        <pt x="681" y="154" on="1"/>
        <pt x="883" y="154" on="0"/>
        <pt x="1116" y="420" on="0"/>
        <pt x="1116" y="628" on="1"/>
        <pt x="1116" y="829" on="1"/>
        <pt x="1116" y="1035" on="0"/>
        <pt x="883" y="1301" on="0"/>
        <pt x="681" y="1301" on="1"/>
      </contour>
    </TTGlyph>
    <TTGlyph name="D.smcp" xMin="31" yMin="0" xMax="1114" yMax="1165">
      <contour>
        <pt x="615" y="1165" on="1"/>
        <pt x="826" y="1165" on="0"/>
        <pt x="1114" y="896" on="0"/>
        <pt x="1114" y="687" on="1"/>
        <pt x="1114" y="477" on="1"/>
        <pt x="1114" y="267" on="0"/>
        <pt x="826" y="0" on="0"/>
        <pt x="615" y="0" on="1"/>
        <pt x="31" y="0" on="1"/>
        <pt x="31" y="126" on="1"/>
        <pt x="194" y="154" on="1"/>
        <pt x="194" y="1010" on="1"/>
        <pt x="31" y="1038" on="1"/>
        <pt x="31" y="1165" on="1"/>
        <pt x="194" y="1165" on="1"/>
      </contour>
      <contour>
        <pt x="391" y="1012" on="1"/>
        <pt x="391" y="152" on="1"/>
        <pt x="615" y="152" on="1"/>
        <pt x="741" y="152" on="0"/>
        <pt x="917" y="338" on="0"/>
        <pt x="917" y="477" on="1"/>
        <pt x="917" y="688" on="1"/>
        <pt x="917" y="825" on="0"/>
        <pt x="741" y="1012" on="0"/>
        <pt x="615" y="1012" on="1"/>
      </contour>
    </TTGlyph>
    <TTGlyph name="Dcaron" xMin="71" yMin="0" xMax="1313" yMax="1845">
      <component glyphName="D" x="0" y="0" flags="0x204"/>
      <component glyphName="caron" x="238" y="330" flags="0x4"/>
    </TTGlyph>
    <TTGlyph name="Dcaron.smcp" xMin="31" yMin="0" xMax="1114" yMax="1522">
      <component glyphName="D.smcp" x="0" y="0" flags="0x204"/>
      <component glyphName="caron" x="153" y="7" flags="0x4"/>
    </TTGlyph>
    <TTGlyph name="Dcroat" xMin="66" yMin="0" xMax="1343" yMax="1456">
      <contour>
        <pt x="711" y="1456" on="1"/>
        <pt x="996" y="1456" on="0"/>
        <pt x="1343" y="1105" on="0"/>
        <pt x="1343" y="827" on="1"/>
        <pt x="1343" y="628" on="1"/>
        <pt x="1343" y="349" on="0"/>
        <pt x="996" y="0" on="0"/>
        <pt x="711" y="0" on="1"/>
        <pt x="101" y="0" on="1"/>
        <pt x="101" y="126" on="1"/>
        <pt x="264" y="154" on="1"/>
        <pt x="264" y="663" on="1"/>
        <pt x="66" y="663" on="1"/>
        <pt x="66" y="818" on="1"/>
        <pt x="264" y="818" on="1"/>
        <pt x="264" y="1301" on="1"/>
        <pt x="101" y="1329" on="1"/>
        <pt x="101" y="1456" on="1"/>
      </contour>
      <contour>
        <pt x="707" y="663" on="1"/>
        <pt x="461" y="663" on="1"/>
        <pt x="461" y="154" on="1"/>
        <pt x="711" y="154" on="1"/>
        <pt x="913" y="154" on="0"/>
        <pt x="1146" y="420" on="0"/>
        <pt x="1146" y="628" on="1"/>
        <pt x="1146" y="829" on="1"/>
        <pt x="1146" y="1035" on="0"/>
        <pt x="913" y="1301" on="0"/>
        <pt x="711" y="1301" on="1"/>
        <pt x="461" y="1301" on="1"/>
        <pt x="461" y="818" on="1"/>
        <pt x="707" y="818" on="1"/>
      </contour>
    </TTGlyph>
    <TTGlyph name="Dcroat.smcp" xMin="29" yMin="0" xMax="1114" yMax="1165">
      <component glyphName="D.smcp" x="0" y="0" flags="0x204"/>
      <component glyphName="crossbar" x="-118" y="-132" flags="0x4"/>
    </TTGlyph>
    <TTGlyph name="Delta" xMin="31" yMin="0" xMax="1392" yMax="1456">
      <contour>
        <pt x="647" y="1456" on="1"/>
        <pt x="816" y="1456" on="1"/>
        <pt x="1392" y="0" on="1"/>
        <pt x="31" y="0" on="1"/>
      </contour>
      <contour>
        <pt x="295" y="154" on="1"/>
        <pt x="1132" y="154" on="1"/>
        <pt x="732" y="1204" on="1"/>
        <pt x="726" y="1204" on="1"/>
      </contour>
    </TTGlyph>
    <TTGlyph name="E" xMin="71" yMin="0" xMax="1200" yMax="1456">
      <contour>
        <pt x="71" y="0" on="1"/>
        <pt x="71" y="126" on="1"/>
        <pt x="234" y="154" on="1"/>
        <pt x="234" y="1301" on="1"/>
        <pt x="71" y="1329" on="1"/>
        <pt x="71" y="1456" on="1"/>
        <pt x="1189" y="1456" on="1"/>
        <pt x="1189" y="1106" on="1"/>
        <pt x="1020" y="1106" on="1"/>
        <pt x="1004" y="1301" on="1"/>
        <pt x="431" y="1301" on="1"/>
        <pt x="431" y="830" on="1"/>
        <pt x="988" y="830" on="1"/>
        <pt x="988" y="675" on="1"/>
        <pt x="431" y="675" on="1"/>
        <pt x="431" y="154" on="1"/>
        <pt x="1016" y="154" on="1"/>
        <pt x="1032" y="349" on="1"/>
        <pt x="1200" y="349" on="1"/>
        <pt x="1200" y="0" on="1"/>
      </contour>
    </TTGlyph>
    <TTGlyph name="E.smcp" xMin="31" yMin="0" xMax="1009" yMax="1165">
      <contour>
        <pt x="863" y="530" on="1"/>
        <pt x="391" y="530" on="1"/>
        <pt x="391" y="152" on="1"/>
        <pt x="825" y="152" on="1"/>
        <pt x="841" y="321" on="1"/>
        <pt x="1009" y="321" on="1"/>
        <pt x="1009" y="0" on="1"/>
        <pt x="31" y="0" on="1"/>
        <pt x="31" y="126" on="1"/>
        <pt x="194" y="154" on="1"/>
        <pt x="194" y="1010" on="1"/>
        <pt x="31" y="1038" on="1"/>
        <pt x="31" y="1165" on="1"/>
        <pt x="194" y="1165" on="1"/>
        <pt x="1009" y="1165" on="1"/>
        <pt x="1009" y="843" on="1"/>
        <pt x="840" y="843" on="1"/>
        <pt x="825" y="1012" on="1"/>
        <pt x="391" y="1012" on="1"/>
        <pt x="391" y="684" on="1"/>
        <pt x="863" y="684" on="1"/>
      </contour>
    </TTGlyph>
    <TTGlyph name="Eacute" xMin="71" yMin="0" xMax="1200" yMax="1823">
      <component glyphName="E" x="0" y="0" flags="0x204"/>
      <component glyphName="acute" x="430" y="345" flags="0x4"/>
    </TTGlyph>
    <TTGlyph name="Eacute.smcp" xMin="31" yMin="0" xMax="1009" yMax="1500">
      <component glyphName="E.smcp" x="0" y="0" flags="0x204"/>
      <component glyphName="acute" x="364" y="22" flags="0x4"/>
    </TTGlyph>
    <TTGlyph name="Ebreve" xMin="71" yMin="0" xMax="1200" yMax="1868">
      <component glyphName="E" x="0" y="0" flags="0x204"/>
      <component glyphName="breve" x="223" y="412" flags="0x4"/>
    </TTGlyph>
    <TTGlyph name="Ebreve.smcp" xMin="31" yMin="0" xMax="1009" yMax="1545">
      <component glyphName="E.smcp" x="0" y="0" flags="0x204"/>
      <component glyphName="breve" x="157" y="89" flags="0x4"/>
    </TTGlyph>
    <TTGlyph name="Ecaron" xMin="71" yMin="0" xMax="1200" yMax="1845">
      <component glyphName="E" x="0" y="0" flags="0x204"/>
      <component glyphName="caron" x="247" y="330" flags="0x4"/>
    </TTGlyph>
    <TTGlyph name="Ecaron.smcp" xMin="31" yMin="0" xMax="1009" yMax="1522">
      <component glyphName="E.smcp" x="0" y="0" flags="0x204"/>
      <component glyphName="caron" x="181" y="7" flags="0x4"/>
    </TTGlyph>
    <TTGlyph name="Ecircumflex" xMin="71" yMin="0" xMax="1200" yMax="1851">
      <component glyphName="E" x="0" y="0" flags="0x204"/>
      <component glyphName="circumflex" x="242" y="336" flags="0x4"/>
    </TTGlyph>
    <TTGlyph name="Ecircumflex.smcp" xMin="31" yMin="0" xMax="1009" yMax="1528">
      <component glyphName="E.smcp" x="0" y="0" flags="0x204"/>
      <component glyphName="circumflex" x="176" y="13" flags="0x4"/>
    </TTGlyph>
    <TTGlyph name="Edieresis" xMin="71" yMin="0" xMax="1200" yMax="1805">
      <component glyphName="E" x="0" y="0" flags="0x204"/>
      <component glyphName="dieresis" x="137" y="349" flags="0x4"/>
    </TTGlyph>
    <TTGlyph name="Edieresis.smcp" xMin="31" yMin="0" xMax="1009" yMax="1482">
      <component glyphName="E.smcp" x="0" y="0" flags="0x204"/>
      <component glyphName="dieresis" x="71" y="26" flags="0x4"/>
    </TTGlyph>
    <TTGlyph name="Edotaccent" xMin="71" yMin="0" xMax="1200" yMax="1804">
      <component glyphName="E" x="0" y="0" flags="0x204"/>
      <component glyphName="dotaccent" x="382" y="348" flags="0x4"/>
    </TTGlyph>
    <TTGlyph name="Edotaccent.smcp" xMin="31" yMin="0" xMax="1009" yMax="1481">
      <component glyphName="E.smcp" x="0" y="0" flags="0x204"/>
      <component glyphName="dotaccent" x="316" y="25" flags="0x4"/>
    </TTGlyph>
    <TTGlyph name="Egrave" xMin="71" yMin="0" xMax="1200" yMax="1826">
      <component glyphName="E" x="0" y="0" flags="0x204"/>
      <component glyphName="grave" x="245" y="349" flags="0x4"/>
    </TTGlyph>
    <TTGlyph name="Egrave.smcp" xMin="31" yMin="0" xMax="1009" yMax="1503">
      <component glyphName="E.smcp" x="0" y="0" flags="0x204"/>
      <component glyphName="grave" x="179" y="26" flags="0x4"/>
    </TTGlyph>
    <TTGlyph name="Emacron" xMin="71" yMin="0" xMax="1200" yMax="1796">
      <component glyphName="E" x="0" y="0" flags="0x204"/>
      <component glyphName="macron" x="134" y="340" flags="0x4"/>
    </TTGlyph>
    <TTGlyph name="Emacron.smcp" xMin="31" yMin="0" xMax="1009" yMax="1473">
      <component glyphName="E.smcp" x="0" y="0" flags="0x204"/>
      <component glyphName="macron" x="68" y="17" flags="0x4"/>
    </TTGlyph>
    <TTGlyph name="Eng" xMin="70" yMin="-437" xMax="1496" yMax="1456">
      <contour>
        <pt x="70" y="126" on="1"/>
        <pt x="233" y="154" on="1"/>
        <pt x="233" y="1301" on="1"/>
        <pt x="70" y="1329" on="1"/>
        <pt x="70" y="1456" on="1"/>
        <pt x="430" y="1456" on="1"/>
        <pt x="1130" y="344" on="1"/>
        <pt x="1136" y="346" on="1"/>
        <pt x="1136" y="1301" on="1"/>
        <pt x="973" y="1329" on="1"/>
        <pt x="973" y="1456" on="1"/>
        <pt x="1136" y="1456" on="1"/>
        <pt x="1333" y="1456" on="1"/>
        <pt x="1496" y="1456" on="1"/>
        <pt x="1496" y="1329" on="1"/>
        <pt x="1333" y="1301" on="1"/>
        <pt x="1333" y="-89" on="1"/>
        <pt x="1333" y="-256" on="0"/>
        <pt x="1161" y="-437" on="0"/>
        <pt x="1007" y="-437" on="1"/>
        <pt x="976" y="-437" on="0"/>
        <pt x="924" y="-428" on="0"/>
        <pt x="895" y="-419" on="1"/>
        <pt x="909" y="-269" on="1"/>
        <pt x="922" y="-274" on="0"/>
        <pt x="990" y="-282" on="0"/>
        <pt x="1007" y="-282" on="1"/>
        <pt x="1068" y="-282" on="0"/>
        <pt x="1136" y="-179" on="0"/>
        <pt x="1136" y="-89" on="1"/>
        <pt x="1136" y="0" on="1"/>
        <pt x="436" y="1112" on="1"/>
        <pt x="430" y="1110" on="1"/>
        <pt x="430" y="154" on="1"/>
        <pt x="593" y="126" on="1"/>
        <pt x="593" y="0" on="1"/>
        <pt x="70" y="0" on="1"/>
      </contour>
    </TTGlyph>
    <TTGlyph name="Eogonek" xMin="71" yMin="-423" xMax="1200" yMax="1456">
      <component glyphName="E" x="0" y="0" flags="0x204"/>
      <component glyphName="ogonek" x="345" y="9" flags="0x4"/>
    </TTGlyph>
    <TTGlyph name="Eogonek.smcp" xMin="31" yMin="-424" xMax="1009" yMax="1165">
      <component glyphName="E.smcp" x="0" y="0" flags="0x204"/>
      <component glyphName="ogonek" x="279" y="8" flags="0x4"/>
    </TTGlyph>
    <TTGlyph name="Epsilon" xMin="71" yMin="0" xMax="1200" yMax="1456">
      <component glyphName="E" x="0" y="0" flags="0x204"/>
    </TTGlyph>
    <TTGlyph name="Epsilontonos" xMin="-108" yMin="0" xMax="1300" yMax="1662">
      <component glyphName="E" x="100" y="0" flags="0x4"/>
      <component glyphName="tonos" x="-244" y="2" flags="0x4"/>
    </TTGlyph>
    <TTGlyph name="Eta" xMin="71" yMin="0" xMax="1497" yMax="1456">
      <component glyphName="H" x="0" y="0" flags="0x204"/>
    </TTGlyph>
    <TTGlyph name="Etatonos" xMin="-113" yMin="0" xMax="1597" yMax="1662">
      <component glyphName="H" x="100" y="0" flags="0x4"/>
      <component glyphName="tonos" x="-249" y="2" flags="0x4"/>
    </TTGlyph>
    <TTGlyph name="Eth" xMin="66" yMin="0" xMax="1343" yMax="1456">
      <contour>
        <pt x="711" y="1456" on="1"/>
        <pt x="996" y="1456" on="0"/>
        <pt x="1343" y="1105" on="0"/>
        <pt x="1343" y="827" on="1"/>
        <pt x="1343" y="628" on="1"/>
        <pt x="1343" y="349" on="0"/>
        <pt x="996" y="0" on="0"/>
        <pt x="711" y="0" on="1"/>
        <pt x="101" y="0" on="1"/>
        <pt x="101" y="126" on="1"/>
        <pt x="264" y="154" on="1"/>
        <pt x="264" y="663" on="1"/>
        <pt x="66" y="663" on="1"/>
        <pt x="66" y="818" on="1"/>
        <pt x="264" y="818" on="1"/>
        <pt x="264" y="1301" on="1"/>
        <pt x="101" y="1329" on="1"/>
        <pt x="101" y="1456" on="1"/>
      </contour>
      <contour>
        <pt x="707" y="663" on="1"/>
        <pt x="461" y="663" on="1"/>
        <pt x="461" y="154" on="1"/>
        <pt x="711" y="154" on="1"/>
        <pt x="913" y="154" on="0"/>
        <pt x="1146" y="420" on="0"/>
        <pt x="1146" y="628" on="1"/>
        <pt x="1146" y="829" on="1"/>
        <pt x="1146" y="1035" on="0"/>
        <pt x="913" y="1301" on="0"/>
        <pt x="711" y="1301" on="1"/>
        <pt x="461" y="1301" on="1"/>
        <pt x="461" y="818" on="1"/>
        <pt x="707" y="818" on="1"/>
      </contour>
    </TTGlyph>
    <TTGlyph name="Eth.smcp" xMin="29" yMin="0" xMax="1114" yMax="1165">
      <component glyphName="D.smcp" x="0" y="0" flags="0x204"/>
      <component glyphName="crossbar" x="-118" y="-132" flags="0x4"/>
    </TTGlyph>
    <TTGlyph name="Euro" xMin="71" yMin="-21" xMax="973" yMax="1477">
      <contour>
        <pt x="905" y="512" on="1"/>
        <pt x="421" y="512" on="1"/>
        <pt x="419" y="507" on="1"/>
        <pt x="415" y="338" on="0"/>
        <pt x="586" y="133" on="0"/>
        <pt x="733" y="133" on="1"/>
        <pt x="790" y="133" on="0"/>
        <pt x="902" y="150" on="0"/>
        <pt x="953" y="167" on="1"/>
        <pt x="973" y="10" on="1"/>
        <pt x="917" y="-5" on="0"/>
        <pt x="794" y="-21" on="0"/>
        <pt x="733" y="-21" on="1"/>
        <pt x="502" y="-21" on="0"/>
        <pt x="217" y="268" on="0"/>
        <pt x="217" y="512" on="1"/>
        <pt x="71" y="512" on="1"/>
        <pt x="71" y="636" on="1"/>
        <pt x="217" y="636" on="1"/>
        <pt x="217" y="802" on="1"/>
        <pt x="71" y="802" on="1"/>
        <pt x="71" y="927" on="1"/>
        <pt x="217" y="927" on="1"/>
        <pt x="217" y="942" on="1"/>
        <pt x="217" y="1186" on="0"/>
        <pt x="500" y="1477" on="0"/>
        <pt x="731" y="1477" on="1"/>
        <pt x="790" y="1477" on="0"/>
        <pt x="907" y="1461" on="0"/>
        <pt x="973" y="1446" on="1"/>
        <pt x="953" y="1287" on="1"/>
        <pt x="900" y="1303" on="0"/>
        <pt x="787" y="1322" on="0"/>
        <pt x="731" y="1322" on="1"/>
        <pt x="585" y="1322" on="0"/>
        <pt x="414" y="1116" on="0"/>
        <pt x="414" y="944" on="1"/>
        <pt x="414" y="927" on="1"/>
        <pt x="905" y="927" on="1"/>
        <pt x="905" y="802" on="1"/>
        <pt x="414" y="802" on="1"/>
        <pt x="414" y="636" on="1"/>
        <pt x="905" y="636" on="1"/>
      </contour>
    </TTGlyph>
    <TTGlyph name="F" xMin="71" yMin="0" xMax="1196" yMax="1456">
      <contour>
        <pt x="71" y="126" on="1"/>
        <pt x="234" y="154" on="1"/>
        <pt x="234" y="1301" on="1"/>
        <pt x="71" y="1329" on="1"/>
        <pt x="71" y="1456" on="1"/>
        <pt x="1196" y="1456" on="1"/>
        <pt x="1196" y="1106" on="1"/>
        <pt x="1028" y="1106" on="1"/>
        <pt x="1012" y="1301" on="1"/>
        <pt x="431" y="1301" on="1"/>
        <pt x="431" y="799" on="1"/>
        <pt x="994" y="799" on="1"/>
        <pt x="994" y="644" on="1"/>
        <pt x="431" y="644" on="1"/>
        <pt x="431" y="154" on="1"/>
        <pt x="594" y="126" on="1"/>
        <pt x="594" y="0" on="1"/>
        <pt x="71" y="0" on="1"/>
      </contour>
    </TTGlyph>
    <TTGlyph name="F.smcp" xMin="31" yMin="0" xMax="1011" yMax="1165">
      <contour>
        <pt x="31" y="126" on="1"/>
        <pt x="194" y="154" on="1"/>
        <pt x="194" y="1010" on="1"/>
        <pt x="31" y="1038" on="1"/>
        <pt x="31" y="1165" on="1"/>
        <pt x="1011" y="1165" on="1"/>
        <pt x="1011" y="843" on="1"/>
        <pt x="842" y="843" on="1"/>
        <pt x="827" y="1012" on="1"/>
        <pt x="391" y="1012" on="1"/>
        <pt x="391" y="655" on="1"/>
        <pt x="865" y="655" on="1"/>
        <pt x="865" y="501" on="1"/>
        <pt x="391" y="501" on="1"/>
        <pt x="391" y="154" on="1"/>
        <pt x="554" y="126" on="1"/>
        <pt x="554" y="0" on="1"/>
        <pt x="31" y="0" on="1"/>
      </contour>
    </TTGlyph>
    <TTGlyph name="G" xMin="55" yMin="-21" xMax="1230" yMax="1477">
      <contour>
        <pt x="1230" y="165" on="1"/>
        <pt x="1166" y="98" on="0"/>
        <pt x="916" y="-21" on="0"/>
        <pt x="716" y="-21" on="1"/>
        <pt x="424" y="-21" on="0"/>
        <pt x="55" y="389" on="0"/>
        <pt x="55" y="716" on="1"/>
        <pt x="55" y="740" on="1"/>
        <pt x="55" y="1069" on="0"/>
        <pt x="420" y="1477" on="0"/>
        <pt x="723" y="1477" on="1"/>
        <pt x="885" y="1477" on="0"/>
        <pt x="1130" y="1376" on="0"/>
        <pt x="1214" y="1293" on="1"/>
        <pt x="1214" y="1029" on="1"/>
        <pt x="1076" y="1029" on="1"/>
        <pt x="1028" y="1230" on="1"/>
        <pt x="979" y="1270" on="0"/>
        <pt x="840" y="1322" on="0"/>
        <pt x="743" y="1322" on="1"/>
        <pt x="507" y="1322" on="0"/>
        <pt x="252" y="999" on="0"/>
        <pt x="252" y="742" on="1"/>
        <pt x="252" y="716" on="1"/>
        <pt x="252" y="455" on="0"/>
        <pt x="499" y="133" on="0"/>
        <pt x="716" y="133" on="1"/>
        <pt x="835" y="133" on="0"/>
        <pt x="987" y="183" on="0"/>
        <pt x="1033" y="213" on="1"/>
        <pt x="1033" y="532" on="1"/>
        <pt x="794" y="542" on="1"/>
        <pt x="794" y="687" on="1"/>
        <pt x="1230" y="687" on="1"/>
      </contour>
    </TTGlyph>
    <TTGlyph name="G.smcp" xMin="112" yMin="-17" xMax="1099" yMax="1181">
      <contour>
        <pt x="1099" y="157" on="1"/>
        <pt x="1053" y="92" on="0"/>
        <pt x="811" y="-17" on="0"/>
        <pt x="631" y="-17" on="1"/>
        <pt x="400" y="-17" on="0"/>
        <pt x="112" y="289" on="0"/>
        <pt x="112" y="536" on="1"/>
        <pt x="112" y="628" on="1"/>
        <pt x="112" y="872" on="0"/>
        <pt x="390" y="1181" on="0"/>
        <pt x="607" y="1181" on="1"/>
        <pt x="838" y="1181" on="0"/>
        <pt x="1092" y="980" on="0"/>
        <pt x="1086" y="823" on="1"/>
        <pt x="1084" y="817" on="1"/>
        <pt x="898" y="817" on="1"/>
        <pt x="898" y="918" on="0"/>
        <pt x="742" y="1028" on="0"/>
        <pt x="607" y="1028" on="1"/>
        <pt x="476" y="1028" on="0"/>
        <pt x="309" y="800" on="0"/>
        <pt x="309" y="629" on="1"/>
        <pt x="309" y="536" on="1"/>
        <pt x="309" y="362" on="0"/>
        <pt x="485" y="135" on="0"/>
        <pt x="631" y="135" on="1"/>
        <pt x="736" y="135" on="0"/>
        <pt x="873" y="177" on="0"/>
        <pt x="904" y="204" on="1"/>
        <pt x="904" y="454" on="1"/>
        <pt x="645" y="454" on="1"/>
        <pt x="645" y="608" on="1"/>
        <pt x="1099" y="608" on="1"/>
      </contour>
    </TTGlyph>
    <TTGlyph name="G.ss03" xMin="114" yMin="-21" xMax="1228" yMax="1477">
      <contour>
        <pt x="1228" y="193" on="1"/>
        <pt x="1176" y="113" on="0"/>
        <pt x="919" y="-21" on="0"/>
        <pt x="715" y="-21" on="1"/>
        <pt x="454" y="-21" on="0"/>
        <pt x="114" y="313" on="0"/>
        <pt x="114" y="578" on="1"/>
        <pt x="114" y="878" on="1"/>
        <pt x="114" y="1143" on="0"/>
        <pt x="442" y="1477" on="0"/>
        <pt x="702" y="1477" on="1"/>
        <pt x="871" y="1477" on="0"/>
        <pt x="1123" y="1370" on="0"/>
        <pt x="1202" y="1273" on="1"/>
        <pt x="1203" y="989" on="1"/>
        <pt x="1045" y="989" on="1"/>
        <pt x="987" y="1239" on="1"/>
        <pt x="945" y="1276" on="0"/>
        <pt x="814" y="1322" on="0"/>
        <pt x="722" y="1322" on="1"/>
        <pt x="538" y="1322" on="0"/>
        <pt x="311" y="1072" on="0"/>
        <pt x="311" y="880" on="1"/>
        <pt x="311" y="578" on="1"/>
        <pt x="311" y="384" on="0"/>
        <pt x="539" y="133" on="0"/>
        <pt x="715" y="133" on="1"/>
        <pt x="839" y="133" on="0"/>
        <pt x="997" y="199" on="0"/>
        <pt x="1031" y="241" on="1"/>
        <pt x="1031" y="532" on="1"/>
        <pt x="793" y="542" on="1"/>
        <pt x="793" y="687" on="1"/>
        <pt x="1228" y="687" on="1"/>
      </contour>
    </TTGlyph>
    <TTGlyph name="G.ss04" xMin="114" yMin="-21" xMax="1228" yMax="1477">
      <contour>
        <pt x="1228" y="193" on="1"/>
        <pt x="1176" y="113" on="0"/>
        <pt x="919" y="-21" on="0"/>
        <pt x="715" y="-21" on="1"/>
        <pt x="454" y="-21" on="0"/>
        <pt x="114" y="313" on="0"/>
        <pt x="114" y="578" on="1"/>
        <pt x="114" y="878" on="1"/>
        <pt x="114" y="1143" on="0"/>
        <pt x="431" y="1477" on="0"/>
        <pt x="682" y="1477" on="1"/>
        <pt x="927" y="1477" on="0"/>
        <pt x="1195" y="1237" on="0"/>
        <pt x="1221" y="1038" on="1"/>
        <pt x="1219" y="1032" on="1"/>
        <pt x="1031" y="1032" on="1"/>
        <pt x="1005" y="1164" on="0"/>
        <pt x="843" y="1322" on="0"/>
        <pt x="682" y="1322" on="1"/>
        <pt x="516" y="1322" on="0"/>
        <pt x="311" y="1072" on="0"/>
        <pt x="311" y="880" on="1"/>
        <pt x="311" y="578" on="1"/>
        <pt x="311" y="384" on="0"/>
        <pt x="539" y="133" on="0"/>
        <pt x="715" y="133" on="1"/>
        <pt x="839" y="133" on="0"/>
        <pt x="997" y="199" on="0"/>
        <pt x="1031" y="241" on="1"/>
        <pt x="1031" y="533" on="1"/>
        <pt x="793" y="542" on="1"/>
        <pt x="793" y="687" on="1"/>
        <pt x="1228" y="687" on="1"/>
      </contour>
    </TTGlyph>
    <TTGlyph name="Gamma" xMin="77" yMin="0" xMax="1133" yMax="1456">
      <contour>
        <pt x="77" y="126" on="1"/>
        <pt x="240" y="154" on="1"/>
        <pt x="240" y="1301" on="1"/>
        <pt x="77" y="1329" on="1"/>
        <pt x="77" y="1456" on="1"/>
        <pt x="1133" y="1456" on="1"/>
        <pt x="1133" y="1134" on="1"/>
        <pt x="964" y="1134" on="1"/>
        <pt x="949" y="1301" on="1"/>
        <pt x="437" y="1301" on="1"/>
        <pt x="437" y="154" on="1"/>
        <pt x="600" y="126" on="1"/>
        <pt x="600" y="0" on="1"/>
        <pt x="77" y="0" on="1"/>
      </contour>
    </TTGlyph>
    <TTGlyph name="Gbreve" xMin="55" yMin="-21" xMax="1230" yMax="1867">
      <component glyphName="G" x="0" y="0" flags="0x204"/>
      <component glyphName="breve" x="290" y="411" flags="0x4"/>
    </TTGlyph>
    <TTGlyph name="Gbreve.smcp" xMin="112" yMin="-17" xMax="1099" yMax="1561">
      <component glyphName="G.smcp" x="0" y="0" flags="0x204"/>
      <component glyphName="breve" x="165" y="105" flags="0x4"/>
    </TTGlyph>
    <TTGlyph name="Gcircumflex" xMin="55" yMin="-21" xMax="1230" yMax="1850">
      <component glyphName="G" x="0" y="0" flags="0x204"/>
      <component glyphName="circumflex" x="309" y="335" flags="0x4"/>
    </TTGlyph>
    <TTGlyph name="Gcircumflex.smcp" xMin="112" yMin="-17" xMax="1099" yMax="1544">
      <component glyphName="G.smcp" x="0" y="0" flags="0x204"/>
      <component glyphName="circumflex" x="184" y="29" flags="0x4"/>
    </TTGlyph>
    <TTGlyph name="Gcommaaccent" xMin="55" yMin="-615" xMax="1230" yMax="1477">
      <component glyphName="G" x="0" y="0" flags="0x204"/>
      <component glyphName="commaaccent" x="420" y="-361" flags="0x4"/>
    </TTGlyph>
    <TTGlyph name="Gcommaaccent.smcp" xMin="112" yMin="-612" xMax="1099" yMax="1181">
      <component glyphName="G.smcp" x="0" y="0" flags="0x204"/>
      <component glyphName="commaaccent" x="346" y="-358" flags="0x4"/>
    </TTGlyph>
    <TTGlyph name="H" xMin="71" yMin="0" xMax="1497" yMax="1456">
      <contour>
        <pt x="71" y="1329" on="1"/>
        <pt x="71" y="1456" on="1"/>
        <pt x="594" y="1456" on="1"/>
        <pt x="594" y="1329" on="1"/>
        <pt x="431" y="1301" on="1"/>
        <pt x="431" y="798" on="1"/>
        <pt x="1137" y="798" on="1"/>
        <pt x="1137" y="1301" on="1"/>
        <pt x="974" y="1329" on="1"/>
        <pt x="974" y="1456" on="1"/>
        <pt x="1137" y="1456" on="1"/>
        <pt x="1334" y="1456" on="1"/>
        <pt x="1497" y="1456" on="1"/>
        <pt x="1497" y="1329" on="1"/>
        <pt x="1334" y="1301" on="1"/>
        <pt x="1334" y="154" on="1"/>
        <pt x="1497" y="126" on="1"/>
        <pt x="1497" y="0" on="1"/>
        <pt x="974" y="0" on="1"/>
        <pt x="974" y="126" on="1"/>
        <pt x="1137" y="154" on="1"/>
        <pt x="1137" y="643" on="1"/>
        <pt x="431" y="643" on="1"/>
        <pt x="431" y="154" on="1"/>
        <pt x="594" y="126" on="1"/>
        <pt x="594" y="0" on="1"/>
        <pt x="71" y="0" on="1"/>
        <pt x="71" y="126" on="1"/>
        <pt x="234" y="154" on="1"/>
        <pt x="234" y="1301" on="1"/>
      </contour>
    </TTGlyph>
    <TTGlyph name="H.smcp" xMin="31" yMin="0" xMax="1318" yMax="1165">
      <contour>
        <pt x="31" y="1038" on="1"/>
        <pt x="31" y="1165" on="1"/>
        <pt x="554" y="1165" on="1"/>
        <pt x="554" y="1038" on="1"/>
        <pt x="391" y="1010" on="1"/>
        <pt x="391" y="644" on="1"/>
        <pt x="957" y="644" on="1"/>
        <pt x="957" y="1010" on="1"/>
        <pt x="794" y="1038" on="1"/>
        <pt x="794" y="1165" on="1"/>
        <pt x="957" y="1165" on="1"/>
        <pt x="1155" y="1165" on="1"/>
        <pt x="1318" y="1165" on="1"/>
        <pt x="1318" y="1038" on="1"/>
        <pt x="1155" y="1010" on="1"/>
        <pt x="1155" y="154" on="1"/>
        <pt x="1318" y="126" on="1"/>
        <pt x="1318" y="0" on="1"/>
        <pt x="794" y="0" on="1"/>
        <pt x="794" y="126" on="1"/>
        <pt x="957" y="154" on="1"/>
        <pt x="957" y="491" on="1"/>
        <pt x="391" y="491" on="1"/>
        <pt x="391" y="154" on="1"/>
        <pt x="554" y="126" on="1"/>
        <pt x="554" y="0" on="1"/>
        <pt x="31" y="0" on="1"/>
        <pt x="31" y="126" on="1"/>
        <pt x="194" y="154" on="1"/>
        <pt x="194" y="1010" on="1"/>
      </contour>
    </TTGlyph>
    <TTGlyph name="Hbar" xMin="46" yMin="0" xMax="1472" yMax="1456">
      <contour>
        <pt x="1472" y="1456" on="1"/>
        <pt x="1472" y="1329" on="1"/>
        <pt x="1309" y="1301" on="1"/>
        <pt x="1309" y="1100" on="1"/>
        <pt x="1440" y="1100" on="1"/>
        <pt x="1440" y="955" on="1"/>
        <pt x="1309" y="955" on="1"/>
        <pt x="1309" y="154" on="1"/>
        <pt x="1472" y="126" on="1"/>
        <pt x="1472" y="0" on="1"/>
        <pt x="949" y="0" on="1"/>
        <pt x="949" y="126" on="1"/>
        <pt x="1112" y="154" on="1"/>
        <pt x="1112" y="643" on="1"/>
        <pt x="406" y="643" on="1"/>
        <pt x="406" y="154" on="1"/>
        <pt x="569" y="126" on="1"/>
        <pt x="569" y="0" on="1"/>
        <pt x="46" y="0" on="1"/>
        <pt x="46" y="126" on="1"/>
        <pt x="209" y="154" on="1"/>
        <pt x="209" y="955" on="1"/>
        <pt x="48" y="955" on="1"/>
        <pt x="48" y="1100" on="1"/>
        <pt x="209" y="1100" on="1"/>
        <pt x="209" y="1301" on="1"/>
        <pt x="46" y="1329" on="1"/>
        <pt x="46" y="1456" on="1"/>
        <pt x="569" y="1456" on="1"/>
        <pt x="569" y="1329" on="1"/>
        <pt x="406" y="1301" on="1"/>
        <pt x="406" y="1100" on="1"/>
        <pt x="1112" y="1100" on="1"/>
        <pt x="1112" y="1301" on="1"/>
        <pt x="949" y="1329" on="1"/>
        <pt x="949" y="1456" on="1"/>
        <pt x="1112" y="1456" on="1"/>
        <pt x="1309" y="1456" on="1"/>
      </contour>
      <contour>
        <pt x="406" y="798" on="1"/>
        <pt x="1112" y="798" on="1"/>
        <pt x="1112" y="955" on="1"/>
        <pt x="406" y="955" on="1"/>
      </contour>
    </TTGlyph>
    <TTGlyph name="Hcircumflex" xMin="71" yMin="0" xMax="1497" yMax="1849">
      <component glyphName="H" x="0" y="0" flags="0x204"/>
      <component glyphName="circumflex" x="367" y="334" flags="0x4"/>
    </TTGlyph>
    <TTGlyph name="Hcircumflex.smcp" xMin="31" yMin="0" xMax="1318" yMax="1528">
      <component glyphName="H.smcp" x="0" y="0" flags="0x204"/>
      <component glyphName="circumflex" x="236" y="13" flags="0x4"/>
    </TTGlyph>
    <TTGlyph name="I" xMin="70" yMin="0" xMax="593" yMax="1456">
      <contour>
        <pt x="70" y="1329" on="1"/>
        <pt x="70" y="1456" on="1"/>
        <pt x="593" y="1456" on="1"/>
        <pt x="593" y="1329" on="1"/>
        <pt x="430" y="1301" on="1"/>
        <pt x="430" y="154" on="1"/>
        <pt x="593" y="126" on="1"/>
        <pt x="593" y="0" on="1"/>
        <pt x="70" y="0" on="1"/>
        <pt x="70" y="126" on="1"/>
        <pt x="233" y="154" on="1"/>
        <pt x="233" y="1301" on="1"/>
      </contour>
    </TTGlyph>
    <TTGlyph name="I.smcp" xMin="31" yMin="0" xMax="553" yMax="1165">
      <contour>
        <pt x="31" y="1038" on="1"/>
        <pt x="31" y="1165" on="1"/>
        <pt x="553" y="1165" on="1"/>
        <pt x="553" y="1038" on="1"/>
        <pt x="390" y="1010" on="1"/>
        <pt x="390" y="154" on="1"/>
        <pt x="553" y="126" on="1"/>
        <pt x="553" y="0" on="1"/>
        <pt x="31" y="0" on="1"/>
        <pt x="31" y="126" on="1"/>
        <pt x="194" y="154" on="1"/>
        <pt x="194" y="1010" on="1"/>
      </contour>
    </TTGlyph>
    <TTGlyph name="IJ" xMin="70" yMin="-21" xMax="1786" yMax="1456">
      <component glyphName="I" x="0" y="0" flags="0x4"/>
      <component glyphName="J" x="662" y="0" flags="0x4"/>
    </TTGlyph>
    <TTGlyph name="Iacute" xMin="70" yMin="0" xMax="627" yMax="1821">
      <component glyphName="I" x="0" y="0" flags="0x204"/>
      <component glyphName="acute" x="116" y="343" flags="0x4"/>
    </TTGlyph>
    <TTGlyph name="Iacute.smcp" xMin="31" yMin="0" xMax="580" yMax="1500">
      <component glyphName="I.smcp" x="0" y="0" flags="0x204"/>
      <component glyphName="acute" x="69" y="22" flags="0x4"/>
    </TTGlyph>
    <TTGlyph name="Ibreve" xMin="30" yMin="0" xMax="629" yMax="1866">
      <component glyphName="I" x="0" y="0" flags="0x204"/>
      <component glyphName="breve" x="-90" y="410" flags="0x4"/>
    </TTGlyph>
    <TTGlyph name="Ibreve.smcp" xMin="-17" yMin="0" xMax="582" yMax="1545">
      <component glyphName="I.smcp" x="0" y="0" flags="0x204"/>
      <component glyphName="breve" x="-137" y="89" flags="0x4"/>
    </TTGlyph>
    <TTGlyph name="Icircumflex" xMin="33" yMin="0" xMax="646" yMax="1849">
      <component glyphName="I" x="0" y="0" flags="0x204"/>
      <component glyphName="circumflex" x="-71" y="334" flags="0x4"/>
    </TTGlyph>
    <TTGlyph name="Icircumflex.smcp" xMin="-14" yMin="0" xMax="599" yMax="1528">
      <component glyphName="I.smcp" x="0" y="0" flags="0x204"/>
      <component glyphName="circumflex" x="-118" y="13" flags="0x4"/>
    </TTGlyph>
    <TTGlyph name="Idieresis" xMin="-24" yMin="0" xMax="664" yMax="1803">
      <component glyphName="I" x="0" y="0" flags="0x204"/>
      <component glyphName="dieresis" x="-176" y="347" flags="0x4"/>
    </TTGlyph>
    <TTGlyph name="Idieresis.smcp" xMin="-71" yMin="0" xMax="617" yMax="1482">
      <component glyphName="I.smcp" x="0" y="0" flags="0x204"/>
      <component glyphName="dieresis" x="-223" y="26" flags="0x4"/>
    </TTGlyph>
    <TTGlyph name="Idotaccent" xMin="70" yMin="0" xMax="593" yMax="1802">
      <component glyphName="I" x="0" y="0" flags="0x204"/>
      <component glyphName="dotaccent" x="68" y="346" flags="0x4"/>
    </TTGlyph>
    <TTGlyph name="Idotaccent.smcp" xMin="31" yMin="0" xMax="553" yMax="1481">
      <component glyphName="I.smcp" x="0" y="0" flags="0x204"/>
      <component glyphName="dotaccent" x="21" y="25" flags="0x4"/>
    </TTGlyph>
    <TTGlyph name="Igrave" xMin="16" yMin="0" xMax="593" yMax="1824">
      <component glyphName="I" x="0" y="0" flags="0x204"/>
      <component glyphName="grave" x="-68" y="347" flags="0x4"/>
    </TTGlyph>
    <TTGlyph name="Igrave.smcp" xMin="-31" yMin="0" xMax="553" yMax="1503">
      <component glyphName="I.smcp" x="0" y="0" flags="0x204"/>
      <component glyphName="grave" x="-115" y="26" flags="0x4"/>
    </TTGlyph>
    <TTGlyph name="Imacron" xMin="-25" yMin="0" xMax="696" yMax="1794">
      <component glyphName="I" x="0" y="0" flags="0x204"/>
      <component glyphName="macron" x="-179" y="338" flags="0x4"/>
    </TTGlyph>
    <TTGlyph name="Imacron.smcp" xMin="-72" yMin="0" xMax="649" yMax="1473">
      <component glyphName="I.smcp" x="0" y="0" flags="0x204"/>
      <component glyphName="macron" x="-226" y="17" flags="0x4"/>
    </TTGlyph>
    <TTGlyph name="Iogonek" xMin="70" yMin="-432" xMax="672" yMax="1456">
      <component glyphName="I" x="0" y="0" flags="0x204"/>
      <component glyphName="ogonek" x="220" y="0" flags="0x4"/>
    </TTGlyph>
    <TTGlyph name="Iogonek.smcp" xMin="31" yMin="-432" xMax="632" yMax="1165">
      <component glyphName="I.smcp" x="0" y="0" flags="0x204"/>
      <component glyphName="ogonek" x="180" y="0" flags="0x4"/>
    </TTGlyph>
    <TTGlyph name="Iota" xMin="70" yMin="0" xMax="593" yMax="1456">
      <component glyphName="I" x="0" y="0" flags="0x204"/>
    </TTGlyph>
    <TTGlyph name="Iotadieresis" xMin="-24" yMin="0" xMax="664" yMax="1803">
      <component glyphName="I" x="0" y="0" flags="0x204"/>
      <component glyphName="dieresis" x="-176" y="347" flags="0x4"/>
    </TTGlyph>
    <TTGlyph name="Iotatonos" xMin="-118" yMin="0" xMax="693" yMax="1661">
      <component glyphName="I" x="100" y="0" flags="0x4"/>
      <component glyphName="tonos" x="-254" y="1" flags="0x4"/>
    </TTGlyph>
    <TTGlyph name="Itilde" xMin="-17" yMin="0" xMax="676" yMax="1874">
      <component glyphName="I" x="0" y="0" flags="0x204"/>
      <component glyphName="tilde" x="-144" y="351" flags="0x4"/>
    </TTGlyph>
    <TTGlyph name="Itilde.smcp" xMin="-64" yMin="0" xMax="629" yMax="1553">
      <component glyphName="I.smcp" x="0" y="0" flags="0x204"/>
      <component glyphName="tilde" x="-191" y="30" flags="0x4"/>
    </TTGlyph>
    <TTGlyph name="J" xMin="59" yMin="-21" xMax="1124" yMax="1456">
      <contour>
        <pt x="1124" y="1456" on="1"/>
        <pt x="1124" y="1329" on="1"/>
        <pt x="961" y="1301" on="1"/>
        <pt x="961" y="403" on="1"/>
        <pt x="961" y="208" on="0"/>
        <pt x="714" y="-21" on="0"/>
        <pt x="517" y="-21" on="1"/>
        <pt x="307" y="-21" on="0"/>
        <pt x="59" y="192" on="0"/>
        <pt x="64" y="395" on="1"/>
        <pt x="66" y="401" on="1"/>
        <pt x="255" y="401" on="1"/>
        <pt x="255" y="266" on="0"/>
        <pt x="392" y="133" on="0"/>
        <pt x="517" y="133" on="1"/>
        <pt x="626" y="133" on="0"/>
        <pt x="764" y="280" on="0"/>
        <pt x="764" y="403" on="1"/>
        <pt x="764" y="1301" on="1"/>
        <pt x="601" y="1329" on="1"/>
        <pt x="601" y="1456" on="1"/>
        <pt x="961" y="1456" on="1"/>
      </contour>
    </TTGlyph>
    <TTGlyph name="J.smcp" xMin="63" yMin="-17" xMax="1049" yMax="1165">
      <contour>
        <pt x="1049" y="1038" on="1"/>
        <pt x="886" y="1010" on="1"/>
        <pt x="886" y="354" on="1"/>
        <pt x="886" y="184" on="0"/>
        <pt x="660" y="-17" on="0"/>
        <pt x="484" y="-17" on="1"/>
        <pt x="289" y="-17" on="0"/>
        <pt x="63" y="161" on="0"/>
        <pt x="69" y="331" on="1"/>
        <pt x="71" y="337" on="1"/>
        <pt x="259" y="337" on="1"/>
        <pt x="259" y="236" on="0"/>
        <pt x="377" y="135" on="0"/>
        <pt x="484" y="135" on="1"/>
        <pt x="572" y="135" on="0"/>
        <pt x="690" y="256" on="0"/>
        <pt x="690" y="354" on="1"/>
        <pt x="690" y="1010" on="1"/>
        <pt x="527" y="1038" on="1"/>
        <pt x="527" y="1165" on="1"/>
        <pt x="1049" y="1165" on="1"/>
      </contour>
    </TTGlyph>
    <TTGlyph name="Jcircumflex" xMin="59" yMin="-21" xMax="1164" yMax="1839">
      <component glyphName="J" x="0" y="0" flags="0x204"/>
      <component glyphName="circumflex" x="447" y="324" flags="0x4"/>
    </TTGlyph>
    <TTGlyph name="Jcircumflex.smcp" xMin="63" yMin="-17" xMax="1090" yMax="1519">
      <component glyphName="J.smcp" x="0" y="0" flags="0x204"/>
      <component glyphName="circumflex" x="373" y="4" flags="0x4"/>
    </TTGlyph>
    <TTGlyph name="K" xMin="71" yMin="0" xMax="1383" yMax="1456">
      <contour>
        <pt x="71" y="126" on="1"/>
        <pt x="234" y="154" on="1"/>
        <pt x="234" y="1301" on="1"/>
        <pt x="71" y="1329" on="1"/>
        <pt x="71" y="1456" on="1"/>
        <pt x="594" y="1456" on="1"/>
        <pt x="594" y="1329" on="1"/>
        <pt x="431" y="1301" on="1"/>
        <pt x="431" y="812" on="1"/>
        <pt x="582" y="812" on="1"/>
        <pt x="989" y="1315" on="1"/>
        <pt x="880" y="1329" on="1"/>
        <pt x="880" y="1456" on="1"/>
        <pt x="1342" y="1456" on="1"/>
        <pt x="1342" y="1329" on="1"/>
        <pt x="1205" y="1304" on="1"/>
        <pt x="760" y="752" on="1"/>
        <pt x="1246" y="151" on="1"/>
        <pt x="1383" y="126" on="1"/>
        <pt x="1383" y="0" on="1"/>
        <pt x="905" y="0" on="1"/>
        <pt x="905" y="126" on="1"/>
        <pt x="1016" y="140" on="1"/>
        <pt x="601" y="657" on="1"/>
        <pt x="431" y="657" on="1"/>
        <pt x="431" y="154" on="1"/>
        <pt x="594" y="126" on="1"/>
        <pt x="594" y="0" on="1"/>
        <pt x="71" y="0" on="1"/>
      </contour>
    </TTGlyph>
    <TTGlyph name="K.smcp" xMin="30" yMin="0" xMax="1128" yMax="1165">
      <contour>
        <pt x="30" y="1038" on="1"/>
        <pt x="30" y="1165" on="1"/>
        <pt x="543" y="1165" on="1"/>
        <pt x="543" y="1038" on="1"/>
        <pt x="390" y="1010" on="1"/>
        <pt x="390" y="657" on="1"/>
        <pt x="474" y="657" on="1"/>
        <pt x="755" y="1025" on="1"/>
        <pt x="660" y="1038" on="1"/>
        <pt x="660" y="1165" on="1"/>
        <pt x="1075" y="1165" on="1"/>
        <pt x="1075" y="1038" on="1"/>
        <pt x="971" y="1011" on="1"/>
        <pt x="640" y="606" on="1"/>
        <pt x="1007" y="152" on="1"/>
        <pt x="1128" y="126" on="1"/>
        <pt x="1128" y="0" on="1"/>
        <pt x="682" y="0" on="1"/>
        <pt x="682" y="126" on="1"/>
        <pt x="775" y="139" on="1"/>
        <pt x="489" y="500" on="1"/>
        <pt x="390" y="500" on="1"/>
        <pt x="390" y="154" on="1"/>
        <pt x="543" y="126" on="1"/>
        <pt x="543" y="0" on="1"/>
        <pt x="30" y="0" on="1"/>
        <pt x="30" y="126" on="1"/>
        <pt x="193" y="154" on="1"/>
        <pt x="193" y="1010" on="1"/>
      </contour>
    </TTGlyph>
    <TTGlyph name="Kappa" xMin="71" yMin="0" xMax="1383" yMax="1456">
      <component glyphName="K" x="0" y="0" flags="0x204"/>
    </TTGlyph>
    <TTGlyph name="Kcommaaccent" xMin="71" yMin="-599" xMax="1383" yMax="1456">
      <component glyphName="K" x="0" y="0" flags="0x204"/>
      <component glyphName="commaaccent" x="410" y="-345" flags="0x4"/>
    </TTGlyph>
    <TTGlyph name="Kcommaaccent.smcp" xMin="30" yMin="-600" xMax="1128" yMax="1165">
      <component glyphName="K.smcp" x="0" y="0" flags="0x204"/>
      <component glyphName="commaaccent" x="303" y="-346" flags="0x4"/>
    </TTGlyph>
    <TTGlyph name="L" xMin="71" yMin="0" xMax="1120" yMax="1456">
      <contour>
        <pt x="71" y="0" on="1"/>
        <pt x="71" y="126" on="1"/>
        <pt x="234" y="154" on="1"/>
        <pt x="234" y="1301" on="1"/>
        <pt x="71" y="1329" on="1"/>
        <pt x="71" y="1456" on="1"/>
        <pt x="234" y="1456" on="1"/>
        <pt x="431" y="1456" on="1"/>
        <pt x="594" y="1456" on="1"/>
        <pt x="594" y="1329" on="1"/>
        <pt x="431" y="1301" on="1"/>
        <pt x="431" y="154" on="1"/>
        <pt x="937" y="154" on="1"/>
        <pt x="952" y="321" on="1"/>
        <pt x="1120" y="321" on="1"/>
        <pt x="1120" y="0" on="1"/>
      </contour>
    </TTGlyph>
    <TTGlyph name="L.smcp" xMin="31" yMin="0" xMax="965" yMax="1165">
      <contour>
        <pt x="31" y="0" on="1"/>
        <pt x="31" y="126" on="1"/>
        <pt x="194" y="154" on="1"/>
        <pt x="194" y="1010" on="1"/>
        <pt x="31" y="1038" on="1"/>
        <pt x="31" y="1165" on="1"/>
        <pt x="194" y="1165" on="1"/>
        <pt x="391" y="1165" on="1"/>
        <pt x="554" y="1165" on="1"/>
        <pt x="554" y="1038" on="1"/>
        <pt x="391" y="1010" on="1"/>
        <pt x="391" y="152" on="1"/>
        <pt x="781" y="152" on="1"/>
        <pt x="797" y="321" on="1"/>
        <pt x="965" y="321" on="1"/>
        <pt x="965" y="0" on="1"/>
      </contour>
    </TTGlyph>
    <TTGlyph name="Lacute" xMin="71" yMin="0" xMax="1120" yMax="1817">
      <component glyphName="L" x="0" y="0" flags="0x204"/>
      <component glyphName="acute" x="115" y="339" flags="0x4"/>
    </TTGlyph>
    <TTGlyph name="Lacute.smcp" xMin="31" yMin="0" xMax="965" yMax="1473">
      <component glyphName="L.smcp" x="0" y="0" flags="0x204"/>
      <component glyphName="acute" x="76" y="-5" flags="0x4"/>
    </TTGlyph>
    <TTGlyph name="Lambda" xMin="52" yMin="0" xMax="1397" yMax="1456">
      <contour>
        <pt x="52" y="126" on="1"/>
        <pt x="157" y="141" on="1"/>
        <pt x="639" y="1456" on="1"/>
        <pt x="809" y="1456" on="1"/>
        <pt x="1291" y="141" on="1"/>
        <pt x="1397" y="126" on="1"/>
        <pt x="1397" y="0" on="1"/>
        <pt x="979" y="0" on="1"/>
        <pt x="979" y="126" on="1"/>
        <pt x="1090" y="145" on="1"/>
        <pt x="727" y="1171" on="1"/>
        <pt x="721" y="1171" on="1"/>
        <pt x="357" y="145" on="1"/>
        <pt x="469" y="126" on="1"/>
        <pt x="469" y="0" on="1"/>
        <pt x="52" y="0" on="1"/>
      </contour>
    </TTGlyph>
    <TTGlyph name="Lcaron" xMin="71" yMin="0" xMax="1120" yMax="1457">
      <component glyphName="L" x="0" y="0" flags="0x204"/>
      <component glyphName="commaaccent" x="505" y="1214" flags="0x4"/>
    </TTGlyph>
    <TTGlyph name="Lcaron.smcp" xMin="31" yMin="0" xMax="965" yMax="1166">
      <component glyphName="L.smcp" x="0" y="0" flags="0x204"/>
      <component glyphName="commaaccent" x="374" y="923" flags="0x4"/>
    </TTGlyph>
    <TTGlyph name="Lcommaaccent" xMin="71" yMin="-596" xMax="1120" yMax="1456">
      <component glyphName="L" x="0" y="0" flags="0x204"/>
      <component glyphName="commaaccent" x="403" y="-342" flags="0x4"/>
    </TTGlyph>
    <TTGlyph name="Lcommaaccent.smcp" xMin="31" yMin="-598" xMax="965" yMax="1165">
      <component glyphName="L.smcp" x="0" y="0" flags="0x204"/>
      <component glyphName="commaaccent" x="267" y="-344" flags="0x4"/>
    </TTGlyph>
    <TTGlyph name="Ldot" xMin="71" yMin="0" xMax="1120" yMax="1456">
      <component glyphName="L" x="0" y="0" flags="0x204"/>
      <component glyphName="dotaccent" x="476" y="-568" flags="0x4"/>
    </TTGlyph>
    <TTGlyph name="Ldot.smcp" xMin="31" yMin="0" xMax="965" yMax="1165">
      <component glyphName="L.smcp" x="0" y="0" flags="0x204"/>
      <component glyphName="dotaccent" x="344" y="-727" flags="0x4"/>
    </TTGlyph>
    <TTGlyph name="Lslash" xMin="71" yMin="0" xMax="1120" yMax="1456">
      <contour>
        <pt x="594" y="1329" on="1"/>
        <pt x="431" y="1301" on="1"/>
        <pt x="431" y="852" on="1"/>
        <pt x="669" y="928" on="1"/>
        <pt x="669" y="763" on="1"/>
        <pt x="431" y="687" on="1"/>
        <pt x="431" y="154" on="1"/>
        <pt x="937" y="154" on="1"/>
        <pt x="952" y="321" on="1"/>
        <pt x="1120" y="321" on="1"/>
        <pt x="1120" y="0" on="1"/>
        <pt x="71" y="0" on="1"/>
        <pt x="71" y="126" on="1"/>
        <pt x="234" y="154" on="1"/>
        <pt x="234" y="625" on="1"/>
        <pt x="80" y="576" on="1"/>
        <pt x="80" y="741" on="1"/>
        <pt x="234" y="790" on="1"/>
        <pt x="234" y="1301" on="1"/>
        <pt x="71" y="1329" on="1"/>
        <pt x="71" y="1456" on="1"/>
        <pt x="594" y="1456" on="1"/>
      </contour>
    </TTGlyph>
    <TTGlyph name="M" xMin="71" yMin="0" xMax="1835" yMax="1456">
      <contour>
        <pt x="1494" y="1166" on="1"/>
        <pt x="1489" y="1167" on="1"/>
        <pt x="1018" y="0" on="1"/>
        <pt x="887" y="0" on="1"/>
        <pt x="416" y="1166" on="1"/>
        <pt x="411" y="1165" on="1"/>
        <pt x="431" y="576" on="1"/>
        <pt x="431" y="154" on="1"/>
        <pt x="594" y="126" on="1"/>
        <pt x="594" y="0" on="1"/>
        <pt x="71" y="0" on="1"/>
        <pt x="71" y="126" on="1"/>
        <pt x="234" y="154" on="1"/>
        <pt x="234" y="1301" on="1"/>
        <pt x="71" y="1329" on="1"/>
        <pt x="71" y="1456" on="1"/>
        <pt x="234" y="1456" on="1"/>
        <pt x="486" y="1456" on="1"/>
        <pt x="950" y="273" on="1"/>
        <pt x="956" y="273" on="1"/>
        <pt x="1419" y="1456" on="1"/>
        <pt x="1835" y="1456" on="1"/>
        <pt x="1835" y="1329" on="1"/>
        <pt x="1672" y="1301" on="1"/>
        <pt x="1672" y="154" on="1"/>
        <pt x="1835" y="126" on="1"/>
        <pt x="1835" y="0" on="1"/>
        <pt x="1312" y="0" on="1"/>
        <pt x="1312" y="126" on="1"/>
        <pt x="1475" y="154" on="1"/>
        <pt x="1475" y="576" on="1"/>
      </contour>
    </TTGlyph>
    <TTGlyph name="M.smcp" xMin="31" yMin="0" xMax="1569" yMax="1165">
      <contour>
        <pt x="800" y="259" on="1"/>
        <pt x="806" y="259" on="1"/>
        <pt x="1160" y="1165" on="1"/>
        <pt x="1406" y="1165" on="1"/>
        <pt x="1569" y="1165" on="1"/>
        <pt x="1569" y="1038" on="1"/>
        <pt x="1406" y="1010" on="1"/>
        <pt x="1406" y="154" on="1"/>
        <pt x="1569" y="126" on="1"/>
        <pt x="1569" y="0" on="1"/>
        <pt x="1046" y="0" on="1"/>
        <pt x="1046" y="126" on="1"/>
        <pt x="1209" y="154" on="1"/>
        <pt x="1209" y="809" on="1"/>
        <pt x="1203" y="811" on="1"/>
        <pt x="871" y="0" on="1"/>
        <pt x="735" y="0" on="1"/>
        <pt x="397" y="829" on="1"/>
        <pt x="391" y="827" on="1"/>
        <pt x="391" y="154" on="1"/>
        <pt x="554" y="126" on="1"/>
        <pt x="554" y="0" on="1"/>
        <pt x="31" y="0" on="1"/>
        <pt x="31" y="126" on="1"/>
        <pt x="194" y="154" on="1"/>
        <pt x="194" y="1010" on="1"/>
        <pt x="31" y="1038" on="1"/>
        <pt x="31" y="1165" on="1"/>
        <pt x="194" y="1165" on="1"/>
        <pt x="448" y="1165" on="1"/>
      </contour>
    </TTGlyph>
    <TTGlyph name="Mu" xMin="71" yMin="0" xMax="1835" yMax="1456">
      <component glyphName="M" x="0" y="0" flags="0x204"/>
    </TTGlyph>
    <TTGlyph name="N" xMin="71" yMin="0" xMax="1497" yMax="1456">
      <contour>
        <pt x="1497" y="1456" on="1"/>
        <pt x="1497" y="1329" on="1"/>
        <pt x="1334" y="1301" on="1"/>
        <pt x="1334" y="0" on="1"/>
        <pt x="1137" y="0" on="1"/>
        <pt x="437" y="1124" on="1"/>
        <pt x="431" y="1122" on="1"/>
        <pt x="431" y="154" on="1"/>
        <pt x="594" y="126" on="1"/>
        <pt x="594" y="0" on="1"/>
        <pt x="71" y="0" on="1"/>
        <pt x="71" y="126" on="1"/>
        <pt x="234" y="154" on="1"/>
        <pt x="234" y="1301" on="1"/>
        <pt x="71" y="1329" on="1"/>
        <pt x="71" y="1456" on="1"/>
        <pt x="234" y="1456" on="1"/>
        <pt x="431" y="1456" on="1"/>
        <pt x="1131" y="333" on="1"/>
        <pt x="1137" y="335" on="1"/>
        <pt x="1137" y="1301" on="1"/>
        <pt x="974" y="1329" on="1"/>
        <pt x="974" y="1456" on="1"/>
        <pt x="1334" y="1456" on="1"/>
      </contour>
    </TTGlyph>
    <TTGlyph name="N.smcp" xMin="31" yMin="0" xMax="1346" yMax="1165">
      <contour>
        <pt x="1346" y="1165" on="1"/>
        <pt x="1346" y="1038" on="1"/>
        <pt x="1183" y="1010" on="1"/>
        <pt x="1183" y="0" on="1"/>
        <pt x="987" y="0" on="1"/>
        <pt x="397" y="859" on="1"/>
        <pt x="391" y="857" on="1"/>
        <pt x="391" y="154" on="1"/>
        <pt x="554" y="126" on="1"/>
        <pt x="554" y="0" on="1"/>
        <pt x="31" y="0" on="1"/>
        <pt x="31" y="126" on="1"/>
        <pt x="194" y="154" on="1"/>
        <pt x="194" y="1010" on="1"/>
        <pt x="31" y="1038" on="1"/>
        <pt x="31" y="1165" on="1"/>
        <pt x="194" y="1165" on="1"/>
        <pt x="391" y="1165" on="1"/>
        <pt x="981" y="306" on="1"/>
        <pt x="987" y="308" on="1"/>
        <pt x="987" y="1010" on="1"/>
        <pt x="824" y="1038" on="1"/>
        <pt x="824" y="1165" on="1"/>
        <pt x="1183" y="1165" on="1"/>
      </contour>
    </TTGlyph>
    <TTGlyph name="Nacute" xMin="71" yMin="0" xMax="1497" yMax="1823">
      <component glyphName="N" x="0" y="0" flags="0x204"/>
      <component glyphName="acute" x="530" y="345" flags="0x4"/>
    </TTGlyph>
    <TTGlyph name="Nacute.smcp" xMin="31" yMin="0" xMax="1346" yMax="1500">
      <component glyphName="N.smcp" x="0" y="0" flags="0x204"/>
      <component glyphName="acute" x="448" y="22" flags="0x4"/>
    </TTGlyph>
    <TTGlyph name="Ncaron" xMin="71" yMin="0" xMax="1497" yMax="1845">
      <component glyphName="N" x="0" y="0" flags="0x204"/>
      <component glyphName="caron" x="347" y="330" flags="0x4"/>
    </TTGlyph>
    <TTGlyph name="Ncaron.smcp" xMin="31" yMin="0" xMax="1346" yMax="1522">
      <component glyphName="N.smcp" x="0" y="0" flags="0x204"/>
      <component glyphName="caron" x="265" y="7" flags="0x4"/>
    </TTGlyph>
    <TTGlyph name="Ncommaaccent" xMin="71" yMin="-596" xMax="1497" yMax="1456">
      <component glyphName="N" x="0" y="0" flags="0x204"/>
      <component glyphName="commaaccent" x="503" y="-342" flags="0x4"/>
    </TTGlyph>
    <TTGlyph name="Ncommaaccent.smcp" xMin="31" yMin="-598" xMax="1346" yMax="1165">
      <component glyphName="N.smcp" x="0" y="0" flags="0x204"/>
      <component glyphName="commaaccent" x="421" y="-344" flags="0x4"/>
    </TTGlyph>
    <TTGlyph name="Ntilde" xMin="71" yMin="0" xMax="1497" yMax="1876">
      <component glyphName="N" x="0" y="0" flags="0x204"/>
      <component glyphName="tilde" x="269" y="353" flags="0x4"/>
    </TTGlyph>
    <TTGlyph name="Ntilde.smcp" xMin="31" yMin="0" xMax="1346" yMax="1553">
      <component glyphName="N.smcp" x="0" y="0" flags="0x204"/>
      <component glyphName="tilde" x="187" y="30" flags="0x4"/>
    </TTGlyph>
    <TTGlyph name="Nu" xMin="71" yMin="0" xMax="1497" yMax="1456">
      <component glyphName="N" x="0" y="0" flags="0x204"/>
    </TTGlyph>
    <TTGlyph name="O" xMin="79" yMin="-21" xMax="1368" yMax="1477">
      <contour>
        <pt x="1368" y="717" on="1"/>
        <pt x="1368" y="399" on="0"/>
        <pt x="1003" y="-21" on="0"/>
        <pt x="713" y="-21" on="1"/>
        <pt x="431" y="-21" on="0"/>
        <pt x="79" y="399" on="0"/>
        <pt x="79" y="717" on="1"/>
        <pt x="79" y="738" on="1"/>
        <pt x="79" y="1055" on="0"/>
        <pt x="431" y="1477" on="0"/>
        <pt x="713" y="1477" on="1"/>
        <pt x="1003" y="1477" on="0"/>
        <pt x="1368" y="1055" on="0"/>
        <pt x="1368" y="738" on="1"/>
      </contour>
      <contour>
        <pt x="1171" y="740" on="1"/>
        <pt x="1171" y="994" on="0"/>
        <pt x="928" y="1315" on="0"/>
        <pt x="713" y="1315" on="1"/>
        <pt x="507" y="1315" on="0"/>
        <pt x="276" y="993" on="0"/>
        <pt x="276" y="740" on="1"/>
        <pt x="276" y="717" on="1"/>
        <pt x="276" y="461" on="0"/>
        <pt x="507" y="140" on="0"/>
        <pt x="713" y="140" on="1"/>
        <pt x="931" y="140" on="0"/>
        <pt x="1171" y="460" on="0"/>
        <pt x="1171" y="717" on="1"/>
      </contour>
    </TTGlyph>
    <TTGlyph name="O.smcp" xMin="92" yMin="-17" xMax="1135" yMax="1181">
      <contour>
        <pt x="1135" y="555" on="1"/>
        <pt x="1135" y="299" on="0"/>
        <pt x="846" y="-17" on="0"/>
        <pt x="614" y="-17" on="1"/>
        <pt x="382" y="-17" on="0"/>
        <pt x="92" y="300" on="0"/>
        <pt x="92" y="555" on="1"/>
        <pt x="92" y="609" on="1"/>
        <pt x="92" y="863" on="0"/>
        <pt x="380" y="1181" on="0"/>
        <pt x="612" y="1181" on="1"/>
        <pt x="844" y="1181" on="0"/>
        <pt x="1135" y="863" on="0"/>
        <pt x="1135" y="609" on="1"/>
      </contour>
      <contour>
        <pt x="938" y="610" on="1"/>
        <pt x="938" y="806" on="0"/>
        <pt x="763" y="1028" on="0"/>
        <pt x="612" y="1028" on="1"/>
        <pt x="461" y="1028" on="0"/>
        <pt x="289" y="806" on="0"/>
        <pt x="289" y="610" on="1"/>
        <pt x="289" y="555" on="1"/>
        <pt x="289" y="357" on="0"/>
        <pt x="463" y="135" on="0"/>
        <pt x="614" y="135" on="1"/>
        <pt x="765" y="135" on="0"/>
        <pt x="938" y="357" on="0"/>
        <pt x="938" y="555" on="1"/>
      </contour>
    </TTGlyph>
    <TTGlyph name="O.ss04" xMin="114" yMin="-21" xMax="1283" yMax="1477">
      <contour>
        <pt x="1283" y="598" on="1"/>
        <pt x="1283" y="331" on="0"/>
        <pt x="952" y="-21" on="0"/>
        <pt x="688" y="-21" on="1"/>
        <pt x="433" y="-21" on="0"/>
        <pt x="114" y="331" on="0"/>
        <pt x="114" y="598" on="1"/>
        <pt x="114" y="857" on="1"/>
        <pt x="114" y="1123" on="0"/>
        <pt x="433" y="1477" on="0"/>
        <pt x="688" y="1477" on="1"/>
        <pt x="952" y="1477" on="0"/>
        <pt x="1283" y="1124" on="0"/>
        <pt x="1283" y="857" on="1"/>
      </contour>
      <contour>
        <pt x="1086" y="859" on="1"/>
        <pt x="1086" y="1059" on="0"/>
        <pt x="870" y="1315" on="0"/>
        <pt x="688" y="1315" on="1"/>
        <pt x="515" y="1315" on="0"/>
        <pt x="311" y="1059" on="0"/>
        <pt x="311" y="859" on="1"/>
        <pt x="311" y="598" on="1"/>
        <pt x="311" y="396" on="0"/>
        <pt x="515" y="140" on="0"/>
        <pt x="688" y="140" on="1"/>
        <pt x="871" y="140" on="0"/>
        <pt x="1086" y="395" on="0"/>
        <pt x="1086" y="598" on="1"/>
      </contour>
    </TTGlyph>
    <TTGlyph name="OE" xMin="114" yMin="-21" xMax="1884" yMax="1477">
      <contour>
        <pt x="963" y="0" on="1"/>
        <pt x="872" y="-10" on="0"/>
        <pt x="741" y="-21" on="0"/>
        <pt x="674" y="-21" on="1"/>
        <pt x="425" y="-21" on="0"/>
        <pt x="114" y="311" on="0"/>
        <pt x="114" y="576" on="1"/>
        <pt x="114" y="880" on="1"/>
        <pt x="114" y="1145" on="0"/>
        <pt x="423" y="1477" on="0"/>
        <pt x="672" y="1477" on="1"/>
        <pt x="741" y="1477" on="0"/>
        <pt x="884" y="1465" on="0"/>
        <pt x="963" y="1456" on="1"/>
        <pt x="1873" y="1456" on="1"/>
        <pt x="1873" y="1106" on="1"/>
        <pt x="1704" y="1106" on="1"/>
        <pt x="1688" y="1301" on="1"/>
        <pt x="1115" y="1301" on="1"/>
        <pt x="1115" y="830" on="1"/>
        <pt x="1672" y="830" on="1"/>
        <pt x="1672" y="675" on="1"/>
        <pt x="1115" y="675" on="1"/>
        <pt x="1115" y="154" on="1"/>
        <pt x="1700" y="154" on="1"/>
        <pt x="1716" y="349" on="1"/>
        <pt x="1884" y="349" on="1"/>
        <pt x="1884" y="0" on="1"/>
      </contour>
      <contour>
        <pt x="674" y="134" on="1"/>
        <pt x="727" y="134" on="0"/>
        <pt x="835" y="141" on="0"/>
        <pt x="888" y="149" on="1"/>
        <pt x="918" y="154" on="1"/>
        <pt x="918" y="1301" on="1"/>
        <pt x="865" y="1310" on="1"/>
        <pt x="815" y="1315" on="0"/>
        <pt x="719" y="1322" on="0"/>
        <pt x="672" y="1322" on="1"/>
        <pt x="503" y="1322" on="0"/>
        <pt x="311" y="1095" on="0"/>
        <pt x="311" y="882" on="1"/>
        <pt x="311" y="576" on="1"/>
        <pt x="311" y="362" on="0"/>
        <pt x="505" y="134" on="0"/>
      </contour>
    </TTGlyph>
    <TTGlyph name="Oacute" xMin="79" yMin="-21" xMax="1368" yMax="1822">
      <component glyphName="O" x="0" y="0" flags="0x204"/>
      <component glyphName="acute" x="498" y="344" flags="0x4"/>
    </TTGlyph>
    <TTGlyph name="Oacute.smcp" xMin="92" yMin="-17" xMax="1135" yMax="1498">
      <component glyphName="O.smcp" x="0" y="0" flags="0x204"/>
      <component glyphName="acute" x="385" y="20" flags="0x4"/>
    </TTGlyph>
    <TTGlyph name="Obreve" xMin="79" yMin="-21" xMax="1368" yMax="1867">
      <component glyphName="O" x="0" y="0" flags="0x204"/>
      <component glyphName="breve" x="291" y="411" flags="0x4"/>
    </TTGlyph>
    <TTGlyph name="Obreve.smcp" xMin="92" yMin="-17" xMax="1135" yMax="1543">
      <component glyphName="O.smcp" x="0" y="0" flags="0x204"/>
      <component glyphName="breve" x="178" y="87" flags="0x4"/>
    </TTGlyph>
    <TTGlyph name="Ocircumflex" xMin="79" yMin="-21" xMax="1368" yMax="1850">
      <component glyphName="O" x="0" y="0" flags="0x204"/>
      <component glyphName="circumflex" x="310" y="335" flags="0x4"/>
    </TTGlyph>
    <TTGlyph name="Ocircumflex.smcp" xMin="92" yMin="-17" xMax="1135" yMax="1526">
      <component glyphName="O.smcp" x="0" y="0" flags="0x204"/>
      <component glyphName="circumflex" x="197" y="11" flags="0x4"/>
    </TTGlyph>
    <TTGlyph name="Odieresis" xMin="79" yMin="-21" xMax="1368" yMax="1804">
      <component glyphName="O" x="0" y="0" flags="0x204"/>
      <component glyphName="dieresis" x="205" y="348" flags="0x4"/>
    </TTGlyph>
    <TTGlyph name="Odieresis.smcp" xMin="92" yMin="-17" xMax="1135" yMax="1480">
      <component glyphName="O.smcp" x="0" y="0" flags="0x204"/>
      <component glyphName="dieresis" x="92" y="24" flags="0x4"/>
    </TTGlyph>
    <TTGlyph name="Ograve" xMin="79" yMin="-21" xMax="1368" yMax="1825">
      <component glyphName="O" x="0" y="0" flags="0x204"/>
      <component glyphName="grave" x="313" y="348" flags="0x4"/>
    </TTGlyph>
    <TTGlyph name="Ograve.smcp" xMin="92" yMin="-17" xMax="1135" yMax="1501">
      <component glyphName="O.smcp" x="0" y="0" flags="0x204"/>
      <component glyphName="grave" x="200" y="24" flags="0x4"/>
    </TTGlyph>
    <TTGlyph name="Ohorn" xMin="74" yMin="-21" xMax="1451" yMax="1593">
      <contour>
        <pt x="1363" y="717" on="1"/>
        <pt x="1363" y="399" on="0"/>
        <pt x="998" y="-21" on="0"/>
        <pt x="708" y="-21" on="1"/>
        <pt x="426" y="-21" on="0"/>
        <pt x="74" y="399" on="0"/>
        <pt x="74" y="717" on="1"/>
        <pt x="74" y="738" on="1"/>
        <pt x="74" y="1055" on="0"/>
        <pt x="426" y="1477" on="0"/>
        <pt x="708" y="1477" on="1"/>
        <pt x="827" y="1477" on="0"/>
        <pt x="1035" y="1399" on="0"/>
        <pt x="1118" y="1328" on="1"/>
        <pt x="1199" y="1343" on="0"/>
        <pt x="1273" y="1478" on="0"/>
        <pt x="1273" y="1593" on="1"/>
        <pt x="1451" y="1593" on="1"/>
        <pt x="1451" y="1443" on="0"/>
        <pt x="1336" y="1248" on="0"/>
        <pt x="1224" y="1210" on="1"/>
        <pt x="1291" y="1113" on="0"/>
        <pt x="1363" y="872" on="0"/>
        <pt x="1363" y="738" on="1"/>
      </contour>
      <contour>
        <pt x="1166" y="740" on="1"/>
        <pt x="1166" y="994" on="0"/>
        <pt x="923" y="1315" on="0"/>
        <pt x="708" y="1315" on="1"/>
        <pt x="502" y="1315" on="0"/>
        <pt x="271" y="993" on="0"/>
        <pt x="271" y="740" on="1"/>
        <pt x="271" y="717" on="1"/>
        <pt x="271" y="461" on="0"/>
        <pt x="502" y="140" on="0"/>
        <pt x="708" y="140" on="1"/>
        <pt x="926" y="140" on="0"/>
        <pt x="1166" y="460" on="0"/>
        <pt x="1166" y="717" on="1"/>
      </contour>
    </TTGlyph>
    <TTGlyph name="Ohungarumlaut" xMin="79" yMin="-21" xMax="1368" yMax="1866">
      <component glyphName="O" x="0" y="0" flags="0x204"/>
      <component glyphName="hungarumlaut" x="383" y="348" flags="0x4"/>
    </TTGlyph>
    <TTGlyph name="Ohungarumlaut.smcp" xMin="92" yMin="-17" xMax="1135" yMax="1542">
      <component glyphName="O.smcp" x="0" y="0" flags="0x204"/>
      <component glyphName="hungarumlaut" x="270" y="24" flags="0x4"/>
    </TTGlyph>
    <TTGlyph name="Omacron" xMin="79" yMin="-21" xMax="1368" yMax="1795">
      <component glyphName="O" x="0" y="0" flags="0x204"/>
      <component glyphName="macron" x="202" y="339" flags="0x4"/>
    </TTGlyph>
    <TTGlyph name="Omacron.smcp" xMin="92" yMin="-17" xMax="1135" yMax="1471">
      <component glyphName="O.smcp" x="0" y="0" flags="0x204"/>
      <component glyphName="macron" x="89" y="15" flags="0x4"/>
    </TTGlyph>
    <TTGlyph name="Omega" xMin="93" yMin="0" xMax="1253" yMax="1477">
      <contour>
        <pt x="737" y="197" on="1"/>
        <pt x="888" y="222" on="0"/>
        <pt x="1056" y="511" on="0"/>
        <pt x="1056" y="762" on="1"/>
        <pt x="1056" y="819" on="1"/>
        <pt x="1056" y="1062" on="0"/>
        <pt x="851" y="1322" on="0"/>
        <pt x="672" y="1322" on="1"/>
        <pt x="493" y="1322" on="0"/>
        <pt x="290" y="1062" on="0"/>
        <pt x="290" y="819" on="1"/>
        <pt x="290" y="762" on="1"/>
        <pt x="290" y="510" on="0"/>
        <pt x="462" y="221" on="0"/>
        <pt x="615" y="197" on="1"/>
        <pt x="615" y="0" on="1"/>
        <pt x="119" y="0" on="1"/>
        <pt x="119" y="154" on="1"/>
        <pt x="394" y="154" on="1"/>
        <pt x="256" y="246" on="0"/>
        <pt x="93" y="580" on="0"/>
        <pt x="93" y="762" on="1"/>
        <pt x="93" y="817" on="1"/>
        <pt x="93" y="1109" on="0"/>
        <pt x="414" y="1477" on="0"/>
        <pt x="672" y="1477" on="1"/>
        <pt x="930" y="1477" on="0"/>
        <pt x="1253" y="1109" on="0"/>
        <pt x="1253" y="817" on="1"/>
        <pt x="1253" y="762" on="1"/>
        <pt x="1253" y="580" on="0"/>
        <pt x="1090" y="246" on="0"/>
        <pt x="953" y="154" on="1"/>
        <pt x="1234" y="154" on="1"/>
        <pt x="1234" y="0" on="1"/>
        <pt x="737" y="0" on="1"/>
      </contour>
    </TTGlyph>
    <TTGlyph name="Omegatonos" xMin="0" yMin="0" xMax="1273" yMax="1660">
      <component glyphName="Omega" x="20" y="0" flags="0x4"/>
      <component glyphName="tonos" x="-136" y="0" flags="0x4"/>
    </TTGlyph>
    <TTGlyph name="Omicron" xMin="79" yMin="-21" xMax="1368" yMax="1477">
      <component glyphName="O" x="0" y="0" flags="0x204"/>
    </TTGlyph>
    <TTGlyph name="Omicrontonos" xMin="9" yMin="-21" xMax="1388" yMax="1660">
      <component glyphName="O" x="20" y="0" flags="0x4"/>
      <component glyphName="tonos" x="-127" y="0" flags="0x4"/>
    </TTGlyph>
    <TTGlyph name="Oslash" xMin="79" yMin="-94" xMax="1368" yMax="1517">
      <contour>
        <pt x="1368" y="717" on="1"/>
        <pt x="1368" y="399" on="0"/>
        <pt x="1003" y="-21" on="0"/>
        <pt x="713" y="-21" on="1"/>
        <pt x="623" y="-21" on="0"/>
        <pt x="462" y="25" on="0"/>
        <pt x="393" y="69" on="1"/>
        <pt x="296" y="-94" on="1"/>
        <pt x="147" y="-94" on="1"/>
        <pt x="291" y="150" on="1"/>
        <pt x="189" y="251" on="0"/>
        <pt x="79" y="544" on="0"/>
        <pt x="79" y="717" on="1"/>
        <pt x="79" y="738" on="1"/>
        <pt x="79" y="1055" on="0"/>
        <pt x="431" y="1477" on="0"/>
        <pt x="713" y="1477" on="1"/>
        <pt x="800" y="1477" on="0"/>
        <pt x="959" y="1434" on="0"/>
        <pt x="1030" y="1394" on="1"/>
        <pt x="1103" y="1517" on="1"/>
        <pt x="1252" y="1517" on="1"/>
        <pt x="1134" y="1318" on="1"/>
        <pt x="1245" y="1216" on="0"/>
        <pt x="1368" y="915" on="0"/>
        <pt x="1368" y="738" on="1"/>
      </contour>
      <contour>
        <pt x="1171" y="740" on="1"/>
        <pt x="1171" y="869" on="0"/>
        <pt x="1105" y="1084" on="0"/>
        <pt x="1044" y="1157" on="1"/>
        <pt x="1038" y="1158" on="1"/>
        <pt x="478" y="213" on="1"/>
        <pt x="526" y="177" on="0"/>
        <pt x="644" y="140" on="0"/>
        <pt x="713" y="140" on="1"/>
        <pt x="931" y="140" on="0"/>
        <pt x="1171" y="460" on="0"/>
        <pt x="1171" y="717" on="1"/>
      </contour>
      <contour>
        <pt x="276" y="717" on="1"/>
        <pt x="276" y="594" on="0"/>
        <pt x="331" y="387" on="0"/>
        <pt x="384" y="316" on="1"/>
        <pt x="390" y="316" on="1"/>
        <pt x="945" y="1251" on="1"/>
        <pt x="895" y="1282" on="0"/>
        <pt x="779" y="1315" on="0"/>
        <pt x="713" y="1315" on="1"/>
        <pt x="507" y="1315" on="0"/>
        <pt x="276" y="993" on="0"/>
        <pt x="276" y="740" on="1"/>
      </contour>
    </TTGlyph>
    <TTGlyph name="Oslashacute" xMin="79" yMin="-94" xMax="1368" yMax="1824">
      <component glyphName="Oslash" x="0" y="0" flags="0x204"/>
      <component glyphName="acute" x="465" y="346" flags="0x4"/>
    </TTGlyph>
    <TTGlyph name="Otilde" xMin="79" yMin="-21" xMax="1368" yMax="1875">
      <component glyphName="O" x="0" y="0" flags="0x204"/>
      <component glyphName="tilde" x="237" y="352" flags="0x4"/>
    </TTGlyph>
    <TTGlyph name="Otilde.smcp" xMin="92" yMin="-17" xMax="1135" yMax="1551">
      <component glyphName="O.smcp" x="0" y="0" flags="0x204"/>
      <component glyphName="tilde" x="124" y="28" flags="0x4"/>
    </TTGlyph>
    <TTGlyph name="P" xMin="71" yMin="0" xMax="1232" yMax="1456">
      <contour>
        <pt x="740" y="1456" on="1"/>
        <pt x="973" y="1456" on="0"/>
        <pt x="1232" y="1216" on="0"/>
        <pt x="1232" y="1020" on="1"/>
        <pt x="1232" y="822" on="0"/>
        <pt x="973" y="584" on="0"/>
        <pt x="740" y="584" on="1"/>
        <pt x="431" y="584" on="1"/>
        <pt x="431" y="154" on="1"/>
        <pt x="594" y="126" on="1"/>
        <pt x="594" y="0" on="1"/>
        <pt x="71" y="0" on="1"/>
        <pt x="71" y="126" on="1"/>
        <pt x="234" y="154" on="1"/>
        <pt x="234" y="1301" on="1"/>
        <pt x="71" y="1329" on="1"/>
        <pt x="71" y="1456" on="1"/>
        <pt x="234" y="1456" on="1"/>
      </contour>
      <contour>
        <pt x="431" y="738" on="1"/>
        <pt x="740" y="738" on="1"/>
        <pt x="888" y="738" on="0"/>
        <pt x="1035" y="897" on="0"/>
        <pt x="1035" y="1018" on="1"/>
        <pt x="1035" y="1139" on="0"/>
        <pt x="888" y="1301" on="0"/>
        <pt x="740" y="1301" on="1"/>
        <pt x="431" y="1301" on="1"/>
      </contour>
    </TTGlyph>
    <TTGlyph name="P.smcp" xMin="-8" yMin="0" xMax="1057" yMax="1165">
      <contour>
        <pt x="621" y="1165" on="1"/>
        <pt x="823" y="1165" on="0"/>
        <pt x="1057" y="957" on="0"/>
        <pt x="1057" y="792" on="1"/>
        <pt x="1057" y="627" on="0"/>
        <pt x="823" y="420" on="0"/>
        <pt x="621" y="420" on="1"/>
        <pt x="352" y="420" on="1"/>
        <pt x="352" y="154" on="1"/>
        <pt x="515" y="126" on="1"/>
        <pt x="515" y="0" on="1"/>
        <pt x="-8" y="0" on="1"/>
        <pt x="-8" y="126" on="1"/>
        <pt x="154" y="154" on="1"/>
        <pt x="154" y="1010" on="1"/>
        <pt x="-8" y="1038" on="1"/>
        <pt x="-8" y="1165" on="1"/>
        <pt x="154" y="1165" on="1"/>
      </contour>
      <contour>
        <pt x="352" y="574" on="1"/>
        <pt x="621" y="574" on="1"/>
        <pt x="738" y="574" on="0"/>
        <pt x="858" y="700" on="0"/>
        <pt x="858" y="790" on="1"/>
        <pt x="858" y="882" on="0"/>
        <pt x="738" y="1012" on="0"/>
        <pt x="621" y="1012" on="1"/>
        <pt x="352" y="1012" on="1"/>
      </contour>
    </TTGlyph>
    <TTGlyph name="Phi" xMin="79" yMin="0" xMax="1392" yMax="1456">
      <contour>
        <pt x="629" y="213" on="1"/>
        <pt x="393" y="213" on="0"/>
        <pt x="79" y="498" on="0"/>
        <pt x="79" y="722" on="1"/>
        <pt x="79" y="945" on="0"/>
        <pt x="393" y="1232" on="0"/>
        <pt x="629" y="1232" on="1"/>
        <pt x="637" y="1232" on="1"/>
        <pt x="637" y="1301" on="1"/>
        <pt x="474" y="1329" on="1"/>
        <pt x="474" y="1456" on="1"/>
        <pt x="637" y="1456" on="1"/>
        <pt x="997" y="1456" on="1"/>
        <pt x="997" y="1329" on="1"/>
        <pt x="834" y="1301" on="1"/>
        <pt x="834" y="1232" on="1"/>
        <pt x="840" y="1232" on="1"/>
        <pt x="1076" y="1232" on="0"/>
        <pt x="1392" y="947" on="0"/>
        <pt x="1392" y="724" on="1"/>
        <pt x="1392" y="500" on="0"/>
        <pt x="1075" y="213" on="0"/>
        <pt x="840" y="213" on="1"/>
        <pt x="834" y="213" on="1"/>
        <pt x="834" y="154" on="1"/>
        <pt x="997" y="126" on="1"/>
        <pt x="997" y="0" on="1"/>
        <pt x="474" y="0" on="1"/>
        <pt x="474" y="126" on="1"/>
        <pt x="637" y="154" on="1"/>
        <pt x="637" y="213" on="1"/>
      </contour>
      <contour>
        <pt x="629" y="1078" on="1"/>
        <pt x="459" y="1078" on="0"/>
        <pt x="274" y="886" on="0"/>
        <pt x="274" y="722" on="1"/>
        <pt x="274" y="557" on="0"/>
        <pt x="458" y="368" on="0"/>
        <pt x="629" y="368" on="1"/>
        <pt x="637" y="368" on="1"/>
        <pt x="637" y="1078" on="1"/>
      </contour>
      <contour>
        <pt x="834" y="1078" on="1"/>
        <pt x="834" y="368" on="1"/>
        <pt x="842" y="368" on="1"/>
        <pt x="1010" y="368" on="0"/>
        <pt x="1196" y="559" on="0"/>
        <pt x="1196" y="724" on="1"/>
        <pt x="1196" y="887" on="0"/>
        <pt x="1010" y="1078" on="0"/>
        <pt x="842" y="1078" on="1"/>
      </contour>
    </TTGlyph>
    <TTGlyph name="Pi" xMin="77" yMin="0" xMax="1505" yMax="1456">
      <contour>
        <pt x="77" y="126" on="1"/>
        <pt x="240" y="154" on="1"/>
        <pt x="240" y="1301" on="1"/>
        <pt x="77" y="1329" on="1"/>
        <pt x="77" y="1456" on="1"/>
        <pt x="1505" y="1456" on="1"/>
        <pt x="1505" y="1329" on="1"/>
        <pt x="1342" y="1301" on="1"/>
        <pt x="1342" y="154" on="1"/>
        <pt x="1505" y="126" on="1"/>
        <pt x="1505" y="0" on="1"/>
        <pt x="982" y="0" on="1"/>
        <pt x="982" y="126" on="1"/>
        <pt x="1145" y="154" on="1"/>
        <pt x="1145" y="1301" on="1"/>
        <pt x="437" y="1301" on="1"/>
        <pt x="437" y="154" on="1"/>
        <pt x="600" y="126" on="1"/>
        <pt x="600" y="0" on="1"/>
        <pt x="77" y="0" on="1"/>
      </contour>
    </TTGlyph>
    <TTGlyph name="Psi" xMin="55" yMin="0" xMax="1600" yMax="1456">
      <contour>
        <pt x="1080" y="1456" on="1"/>
        <pt x="1080" y="1329" on="1"/>
        <pt x="917" y="1301" on="1"/>
        <pt x="917" y="525" on="1"/>
        <pt x="923" y="523" on="1"/>
        <pt x="1067" y="542" on="0"/>
        <pt x="1240" y="752" on="0"/>
        <pt x="1240" y="925" on="1"/>
        <pt x="1240" y="1456" on="1"/>
        <pt x="1600" y="1456" on="1"/>
        <pt x="1600" y="1329" on="1"/>
        <pt x="1437" y="1301" on="1"/>
        <pt x="1437" y="925" on="1"/>
        <pt x="1437" y="680" on="0"/>
        <pt x="1151" y="383" on="0"/>
        <pt x="917" y="359" on="1"/>
        <pt x="917" y="154" on="1"/>
        <pt x="1080" y="126" on="1"/>
        <pt x="1080" y="0" on="1"/>
        <pt x="557" y="0" on="1"/>
        <pt x="557" y="126" on="1"/>
        <pt x="720" y="154" on="1"/>
        <pt x="720" y="360" on="1"/>
        <pt x="492" y="384" on="0"/>
        <pt x="218" y="680" on="0"/>
        <pt x="218" y="925" on="1"/>
        <pt x="218" y="1301" on="1"/>
        <pt x="55" y="1329" on="1"/>
        <pt x="55" y="1456" on="1"/>
        <pt x="218" y="1456" on="1"/>
        <pt x="414" y="1456" on="1"/>
        <pt x="414" y="925" on="1"/>
        <pt x="414" y="755" on="0"/>
        <pt x="578" y="545" on="0"/>
        <pt x="714" y="525" on="1"/>
        <pt x="720" y="526" on="1"/>
        <pt x="720" y="1301" on="1"/>
        <pt x="557" y="1329" on="1"/>
        <pt x="557" y="1456" on="1"/>
        <pt x="917" y="1456" on="1"/>
      </contour>
    </TTGlyph>
    <TTGlyph name="Q" xMin="79" yMin="-223" xMax="1390" yMax="1477">
      <contour>
        <pt x="1368" y="717" on="1"/>
        <pt x="1368" y="523" on="0"/>
        <pt x="1224" y="203" on="0"/>
        <pt x="1095" y="105" on="1"/>
        <pt x="1390" y="-103" on="1"/>
        <pt x="1255" y="-223" on="1"/>
        <pt x="924" y="13" on="1"/>
        <pt x="874" y="-3" on="0"/>
        <pt x="768" y="-21" on="0"/>
        <pt x="713" y="-21" on="1"/>
        <pt x="431" y="-21" on="0"/>
        <pt x="79" y="399" on="0"/>
        <pt x="79" y="717" on="1"/>
        <pt x="79" y="738" on="1"/>
        <pt x="79" y="1055" on="0"/>
        <pt x="431" y="1477" on="0"/>
        <pt x="713" y="1477" on="1"/>
        <pt x="1003" y="1477" on="0"/>
        <pt x="1368" y="1055" on="0"/>
        <pt x="1368" y="738" on="1"/>
      </contour>
      <contour>
        <pt x="1171" y="740" on="1"/>
        <pt x="1171" y="994" on="0"/>
        <pt x="928" y="1315" on="0"/>
        <pt x="713" y="1315" on="1"/>
        <pt x="507" y="1315" on="0"/>
        <pt x="276" y="993" on="0"/>
        <pt x="276" y="740" on="1"/>
        <pt x="276" y="717" on="1"/>
        <pt x="276" y="461" on="0"/>
        <pt x="507" y="140" on="0"/>
        <pt x="713" y="140" on="1"/>
        <pt x="931" y="140" on="0"/>
        <pt x="1171" y="460" on="0"/>
        <pt x="1171" y="717" on="1"/>
      </contour>
    </TTGlyph>
    <TTGlyph name="Q.smcp" xMin="92" yMin="-213" xMax="1149" yMax="1181">
      <contour>
        <pt x="1135" y="555" on="1"/>
        <pt x="1135" y="387" on="0"/>
        <pt x="1005" y="129" on="0"/>
        <pt x="890" y="58" on="1"/>
        <pt x="1149" y="-87" on="1"/>
        <pt x="1004" y="-213" on="1"/>
        <pt x="723" y="-7" on="1"/>
        <pt x="695" y="-11" on="0"/>
        <pt x="641" y="-17" on="0"/>
        <pt x="614" y="-17" on="1"/>
        <pt x="382" y="-17" on="0"/>
        <pt x="92" y="300" on="0"/>
        <pt x="92" y="555" on="1"/>
        <pt x="92" y="609" on="1"/>
        <pt x="92" y="863" on="0"/>
        <pt x="380" y="1181" on="0"/>
        <pt x="612" y="1181" on="1"/>
        <pt x="844" y="1181" on="0"/>
        <pt x="1135" y="863" on="0"/>
        <pt x="1135" y="609" on="1"/>
      </contour>
      <contour>
        <pt x="938" y="610" on="1"/>
        <pt x="938" y="806" on="0"/>
        <pt x="763" y="1028" on="0"/>
        <pt x="612" y="1028" on="1"/>
        <pt x="461" y="1028" on="0"/>
        <pt x="289" y="806" on="0"/>
        <pt x="289" y="610" on="1"/>
        <pt x="289" y="555" on="1"/>
        <pt x="289" y="357" on="0"/>
        <pt x="463" y="135" on="0"/>
        <pt x="614" y="135" on="1"/>
        <pt x="765" y="135" on="0"/>
        <pt x="938" y="357" on="0"/>
        <pt x="938" y="555" on="1"/>
      </contour>
    </TTGlyph>
    <TTGlyph name="R" xMin="71" yMin="0" xMax="1319" yMax="1455">
      <contour>
        <pt x="710" y="1455" on="1"/>
        <pt x="948" y="1455" on="0"/>
        <pt x="1202" y="1244" on="0"/>
        <pt x="1202" y="1050" on="1"/>
        <pt x="1202" y="944" on="0"/>
        <pt x="1084" y="780" on="0"/>
        <pt x="974" y="733" on="1"/>
        <pt x="1093" y="694" on="0"/>
        <pt x="1198" y="518" on="0"/>
        <pt x="1198" y="389" on="1"/>
        <pt x="1198" y="272" on="1"/>
        <pt x="1198" y="205" on="0"/>
        <pt x="1232" y="141" on="0"/>
        <pt x="1271" y="135" on="1"/>
        <pt x="1319" y="129" on="1"/>
        <pt x="1319" y="0" on="1"/>
        <pt x="1213" y="0" on="1"/>
        <pt x="1098" y="0" on="0"/>
        <pt x="1001" y="160" on="0"/>
        <pt x="1001" y="274" on="1"/>
        <pt x="1001" y="387" on="1"/>
        <pt x="1001" y="506" on="0"/>
        <pt x="863" y="650" on="0"/>
        <pt x="747" y="650" on="1"/>
        <pt x="431" y="650" on="1"/>
        <pt x="431" y="154" on="1"/>
        <pt x="594" y="126" on="1"/>
        <pt x="594" y="0" on="1"/>
        <pt x="71" y="0" on="1"/>
        <pt x="71" y="126" on="1"/>
        <pt x="234" y="154" on="1"/>
        <pt x="234" y="1301" on="1"/>
        <pt x="71" y="1329" on="1"/>
        <pt x="71" y="1455" on="1"/>
        <pt x="234" y="1455" on="1"/>
      </contour>
      <contour>
        <pt x="431" y="805" on="1"/>
        <pt x="690" y="805" on="1"/>
        <pt x="855" y="805" on="0"/>
        <pt x="1005" y="931" on="0"/>
        <pt x="1005" y="1052" on="1"/>
        <pt x="1005" y="1167" on="0"/>
        <pt x="861" y="1301" on="0"/>
        <pt x="710" y="1301" on="1"/>
        <pt x="431" y="1301" on="1"/>
      </contour>
    </TTGlyph>
    <TTGlyph name="R.smcp" xMin="31" yMin="0" xMax="1184" yMax="1165">
      <contour>
        <pt x="655" y="1165" on="1"/>
        <pt x="860" y="1165" on="0"/>
        <pt x="1085" y="985" on="0"/>
        <pt x="1085" y="823" on="1"/>
        <pt x="1085" y="734" on="0"/>
        <pt x="986" y="608" on="0"/>
        <pt x="890" y="569" on="1"/>
        <pt x="994" y="539" on="0"/>
        <pt x="1085" y="395" on="0"/>
        <pt x="1085" y="290" on="1"/>
        <pt x="1085" y="172" on="1"/>
        <pt x="1085" y="143" on="1"/>
        <pt x="1184" y="126" on="1"/>
        <pt x="1184" y="0" on="1"/>
        <pt x="906" y="0" on="1"/>
        <pt x="894" y="23" on="0"/>
        <pt x="888" y="121" on="0"/>
        <pt x="888" y="173" on="1"/>
        <pt x="888" y="289" on="1"/>
        <pt x="888" y="379" on="0"/>
        <pt x="783" y="479" on="0"/>
        <pt x="685" y="479" on="1"/>
        <pt x="391" y="479" on="1"/>
        <pt x="391" y="154" on="1"/>
        <pt x="554" y="126" on="1"/>
        <pt x="554" y="0" on="1"/>
        <pt x="31" y="0" on="1"/>
        <pt x="31" y="126" on="1"/>
        <pt x="194" y="154" on="1"/>
        <pt x="194" y="1010" on="1"/>
        <pt x="31" y="1038" on="1"/>
        <pt x="31" y="1165" on="1"/>
        <pt x="194" y="1165" on="1"/>
      </contour>
      <contour>
        <pt x="391" y="633" on="1"/>
        <pt x="655" y="633" on="1"/>
        <pt x="775" y="633" on="0"/>
        <pt x="887" y="727" on="0"/>
        <pt x="887" y="815" on="1"/>
        <pt x="887" y="907" on="0"/>
        <pt x="774" y="1012" on="0"/>
        <pt x="655" y="1012" on="1"/>
        <pt x="391" y="1012" on="1"/>
      </contour>
    </TTGlyph>
    <TTGlyph name="Racute" xMin="71" yMin="0" xMax="1319" yMax="1823">
      <component glyphName="R" x="0" y="0" flags="0x204"/>
      <component glyphName="acute" x="422" y="345" flags="0x4"/>
    </TTGlyph>
    <TTGlyph name="Racute.smcp" xMin="31" yMin="0" xMax="1184" yMax="1500">
      <component glyphName="R.smcp" x="0" y="0" flags="0x204"/>
      <component glyphName="acute" x="335" y="22" flags="0x4"/>
    </TTGlyph>
    <TTGlyph name="Rcaron" xMin="71" yMin="0" xMax="1319" yMax="1845">
      <component glyphName="R" x="0" y="0" flags="0x204"/>
      <component glyphName="caron" x="239" y="330" flags="0x4"/>
    </TTGlyph>
    <TTGlyph name="Rcaron.smcp" xMin="31" yMin="0" xMax="1184" yMax="1522">
      <component glyphName="R.smcp" x="0" y="0" flags="0x204"/>
      <component glyphName="caron" x="152" y="7" flags="0x4"/>
    </TTGlyph>
    <TTGlyph name="Rcommaaccent" xMin="71" yMin="-596" xMax="1319" yMax="1455">
      <component glyphName="R" x="0" y="0" flags="0x204"/>
      <component glyphName="commaaccent" x="492" y="-342" flags="0x4"/>
    </TTGlyph>
    <TTGlyph name="Rcommaaccent.smcp" xMin="31" yMin="-598" xMax="1184" yMax="1165">
      <component glyphName="R.smcp" x="0" y="0" flags="0x204"/>
      <component glyphName="commaaccent" x="351" y="-344" flags="0x4"/>
    </TTGlyph>
    <TTGlyph name="Rho" xMin="71" yMin="0" xMax="1232" yMax="1456">
      <component glyphName="P" x="0" y="0" flags="0x204"/>
    </TTGlyph>
    <TTGlyph name="S" xMin="121" yMin="-21" xMax="1151" yMax="1477">
      <contour>
        <pt x="1125" y="1026" on="1"/>
        <pt x="976" y="1026" on="1"/>
        <pt x="939" y="1234" on="1"/>
        <pt x="894" y="1272" on="0"/>
        <pt x="744" y="1322" on="0"/>
        <pt x="645" y="1322" on="1"/>
        <pt x="488" y="1322" on="0"/>
        <pt x="320" y="1189" on="0"/>
        <pt x="320" y="1082" on="1"/>
        <pt x="320" y="987" on="0"/>
        <pt x="491" y="860" on="0"/>
        <pt x="682" y="812" on="1"/>
        <pt x="912" y="755" on="0"/>
        <pt x="1151" y="533" on="0"/>
        <pt x="1151" y="369" on="1"/>
        <pt x="1151" y="193" on="0"/>
        <pt x="864" y="-21" on="0"/>
        <pt x="632" y="-21" on="1"/>
        <pt x="464" y="-21" on="0"/>
        <pt x="203" y="89" on="0"/>
        <pt x="121" y="178" on="1"/>
        <pt x="121" y="449" on="1"/>
        <pt x="269" y="449" on="1"/>
        <pt x="307" y="240" on="1"/>
        <pt x="364" y="193" on="0"/>
        <pt x="522" y="133" on="0"/>
        <pt x="632" y="133" on="1"/>
        <pt x="781" y="133" on="0"/>
        <pt x="954" y="259" on="0"/>
        <pt x="954" y="367" on="1"/>
        <pt x="954" y="467" on="0"/>
        <pt x="804" y="602" on="0"/>
        <pt x="614" y="648" on="1"/>
        <pt x="383" y="703" on="0"/>
        <pt x="123" y="917" on="0"/>
        <pt x="123" y="1079" on="1"/>
        <pt x="123" y="1250" on="0"/>
        <pt x="413" y="1477" on="0"/>
        <pt x="645" y="1477" on="1"/>
        <pt x="798" y="1477" on="0"/>
        <pt x="1049" y="1372" on="0"/>
        <pt x="1125" y="1297" on="1"/>
      </contour>
    </TTGlyph>
    <TTGlyph name="S.smcp" xMin="92" yMin="-17" xMax="1041" yMax="1181">
      <contour>
        <pt x="844" y="304" on="1"/>
        <pt x="844" y="375" on="0"/>
        <pt x="720" y="463" on="0"/>
        <pt x="557" y="503" on="1"/>
        <pt x="334" y="561" on="0"/>
        <pt x="131" y="710" on="0"/>
        <pt x="131" y="860" on="1"/>
        <pt x="131" y="1007" on="0"/>
        <pt x="375" y="1181" on="0"/>
        <pt x="581" y="1181" on="1"/>
        <pt x="790" y="1181" on="0"/>
        <pt x="1026" y="995" on="0"/>
        <pt x="1021" y="827" on="1"/>
        <pt x="1019" y="821" on="1"/>
        <pt x="832" y="821" on="1"/>
        <pt x="832" y="913" on="0"/>
        <pt x="700" y="1028" on="0"/>
        <pt x="581" y="1028" on="1"/>
        <pt x="455" y="1028" on="0"/>
        <pt x="329" y="935" on="0"/>
        <pt x="329" y="861" on="1"/>
        <pt x="329" y="788" on="0"/>
        <pt x="443" y="707" on="0"/>
        <pt x="621" y="664" on="1"/>
        <pt x="837" y="606" on="0"/>
        <pt x="1041" y="450" on="0"/>
        <pt x="1041" y="305" on="1"/>
        <pt x="1041" y="151" on="0"/>
        <pt x="786" y="-17" on="0"/>
        <pt x="569" y="-17" on="1"/>
        <pt x="366" y="-17" on="0"/>
        <pt x="92" y="153" on="0"/>
        <pt x="98" y="337" on="1"/>
        <pt x="99" y="343" on="1"/>
        <pt x="288" y="343" on="1"/>
        <pt x="288" y="235" on="0"/>
        <pt x="451" y="135" on="0"/>
        <pt x="569" y="135" on="1"/>
        <pt x="700" y="135" on="0"/>
        <pt x="844" y="229" on="0"/>
      </contour>
    </TTGlyph>
    <TTGlyph name="S.ss03" xMin="79" yMin="-21" xMax="1152" yMax="1477">
      <contour>
        <pt x="954" y="367" on="1"/>
        <pt x="954" y="467" on="0"/>
        <pt x="805" y="602" on="0"/>
        <pt x="614" y="648" on="1"/>
        <pt x="383" y="703" on="0"/>
        <pt x="124" y="917" on="0"/>
        <pt x="124" y="1079" on="1"/>
        <pt x="124" y="1249" on="0"/>
        <pt x="403" y="1477" on="0"/>
        <pt x="625" y="1477" on="1"/>
        <pt x="864" y="1477" on="0"/>
        <pt x="1147" y="1215" on="0"/>
        <pt x="1142" y="1042" on="1"/>
        <pt x="1140" y="1036" on="1"/>
        <pt x="952" y="1036" on="1"/>
        <pt x="952" y="1164" on="0"/>
        <pt x="783" y="1322" on="0"/>
        <pt x="625" y="1322" on="1"/>
        <pt x="478" y="1322" on="0"/>
        <pt x="321" y="1189" on="0"/>
        <pt x="321" y="1082" on="1"/>
        <pt x="321" y="987" on="0"/>
        <pt x="491" y="860" on="0"/>
        <pt x="682" y="812" on="1"/>
        <pt x="912" y="755" on="0"/>
        <pt x="1152" y="533" on="0"/>
        <pt x="1152" y="369" on="1"/>
        <pt x="1152" y="193" on="0"/>
        <pt x="864" y="-21" on="0"/>
        <pt x="632" y="-21" on="1"/>
        <pt x="414" y="-21" on="0"/>
        <pt x="79" y="215" on="0"/>
        <pt x="84" y="413" on="1"/>
        <pt x="86" y="419" on="1"/>
        <pt x="274" y="419" on="1"/>
        <pt x="274" y="279" on="0"/>
        <pt x="480" y="133" on="0"/>
        <pt x="632" y="133" on="1"/>
        <pt x="781" y="133" on="0"/>
        <pt x="954" y="259" on="0"/>
      </contour>
    </TTGlyph>
    <TTGlyph name="Sacute" xMin="121" yMin="-21" xMax="1151" yMax="1822">
      <component glyphName="S" x="0" y="0" flags="0x204"/>
      <component glyphName="acute" x="404" y="344" flags="0x4"/>
    </TTGlyph>
    <TTGlyph name="Sacute.smcp" xMin="92" yMin="-17" xMax="1041" yMax="1498">
      <component glyphName="S.smcp" x="0" y="0" flags="0x204"/>
      <component glyphName="acute" x="355" y="20" flags="0x4"/>
    </TTGlyph>
    <TTGlyph name="Scaron" xMin="121" yMin="-21" xMax="1151" yMax="1844">
      <component glyphName="S" x="0" y="0" flags="0x204"/>
      <component glyphName="caron" x="221" y="329" flags="0x4"/>
    </TTGlyph>
    <TTGlyph name="Scaron.smcp" xMin="92" yMin="-17" xMax="1041" yMax="1520">
      <component glyphName="S.smcp" x="0" y="0" flags="0x204"/>
      <component glyphName="caron" x="172" y="5" flags="0x4"/>
    </TTGlyph>
    <TTGlyph name="Scedilla" xMin="121" yMin="-444" xMax="1151" yMax="1477">
      <component glyphName="S" x="0" y="0" flags="0x204"/>
      <component glyphName="cedilla" x="392" y="-9" flags="0x4"/>
    </TTGlyph>
    <TTGlyph name="Scedilla.smcp" xMin="92" yMin="-441" xMax="1041" yMax="1181">
      <component glyphName="S.smcp" x="0" y="0" flags="0x204"/>
      <component glyphName="cedilla" x="341" y="-6" flags="0x4"/>
    </TTGlyph>
    <TTGlyph name="Scircumflex" xMin="121" yMin="-21" xMax="1151" yMax="1850">
      <component glyphName="S" x="0" y="0" flags="0x204"/>
      <component glyphName="circumflex" x="216" y="335" flags="0x4"/>
    </TTGlyph>
    <TTGlyph name="Scircumflex.smcp" xMin="92" yMin="-17" xMax="1041" yMax="1526">
      <component glyphName="S.smcp" x="0" y="0" flags="0x204"/>
      <component glyphName="circumflex" x="167" y="11" flags="0x4"/>
    </TTGlyph>
    <TTGlyph name="Sigma" xMin="79" yMin="0" xMax="1104" yMax="1456">
      <contour>
        <pt x="767" y="715" on="1"/>
        <pt x="321" y="160" on="1"/>
        <pt x="324" y="155" on="1"/>
        <pt x="921" y="155" on="1"/>
        <pt x="936" y="322" on="1"/>
        <pt x="1104" y="322" on="1"/>
        <pt x="1104" y="0" on="1"/>
        <pt x="79" y="0" on="1"/>
        <pt x="79" y="147" on="1"/>
        <pt x="558" y="728" on="1"/>
        <pt x="79" y="1309" on="1"/>
        <pt x="79" y="1456" on="1"/>
        <pt x="1055" y="1456" on="1"/>
        <pt x="1055" y="1134" on="1"/>
        <pt x="886" y="1134" on="1"/>
        <pt x="871" y="1301" on="1"/>
        <pt x="324" y="1301" on="1"/>
        <pt x="321" y="1296" on="1"/>
        <pt x="767" y="739" on="1"/>
      </contour>
    </TTGlyph>
    <TTGlyph name="T" xMin="37" yMin="0" xMax="1247" yMax="1456">
      <contour>
        <pt x="1247" y="1456" on="1"/>
        <pt x="1247" y="1134" on="1"/>
        <pt x="1079" y="1134" on="1"/>
        <pt x="1064" y="1301" on="1"/>
        <pt x="741" y="1301" on="1"/>
        <pt x="741" y="154" on="1"/>
        <pt x="904" y="126" on="1"/>
        <pt x="904" y="0" on="1"/>
        <pt x="381" y="0" on="1"/>
        <pt x="381" y="126" on="1"/>
        <pt x="544" y="154" on="1"/>
        <pt x="544" y="1301" on="1"/>
        <pt x="220" y="1301" on="1"/>
        <pt x="206" y="1134" on="1"/>
        <pt x="37" y="1134" on="1"/>
        <pt x="37" y="1456" on="1"/>
      </contour>
    </TTGlyph>
    <TTGlyph name="T.smcp" xMin="51" yMin="0" xMax="1116" yMax="1165">
      <contour>
        <pt x="1116" y="1165" on="1"/>
        <pt x="1116" y="843" on="1"/>
        <pt x="948" y="843" on="1"/>
        <pt x="933" y="1012" on="1"/>
        <pt x="679" y="1012" on="1"/>
        <pt x="679" y="154" on="1"/>
        <pt x="842" y="126" on="1"/>
        <pt x="842" y="0" on="1"/>
        <pt x="319" y="0" on="1"/>
        <pt x="319" y="126" on="1"/>
        <pt x="482" y="154" on="1"/>
        <pt x="482" y="1012" on="1"/>
        <pt x="234" y="1012" on="1"/>
        <pt x="220" y="843" on="1"/>
        <pt x="51" y="843" on="1"/>
        <pt x="51" y="1165" on="1"/>
      </contour>
    </TTGlyph>
    <TTGlyph name="Tau" xMin="37" yMin="0" xMax="1247" yMax="1456">
      <component glyphName="T" x="0" y="0" flags="0x204"/>
    </TTGlyph>
    <TTGlyph name="Tbar" xMin="37" yMin="0" xMax="1247" yMax="1456">
      <contour>
        <pt x="1247" y="1456" on="1"/>
        <pt x="1247" y="1134" on="1"/>
        <pt x="1079" y="1134" on="1"/>
        <pt x="1064" y="1301" on="1"/>
        <pt x="741" y="1301" on="1"/>
        <pt x="741" y="899" on="1"/>
        <pt x="971" y="899" on="1"/>
        <pt x="971" y="744" on="1"/>
        <pt x="741" y="744" on="1"/>
        <pt x="741" y="154" on="1"/>
        <pt x="904" y="126" on="1"/>
        <pt x="904" y="0" on="1"/>
        <pt x="381" y="0" on="1"/>
        <pt x="381" y="126" on="1"/>
        <pt x="544" y="154" on="1"/>
        <pt x="544" y="744" on="1"/>
        <pt x="330" y="744" on="1"/>
        <pt x="330" y="899" on="1"/>
        <pt x="544" y="899" on="1"/>
        <pt x="544" y="1301" on="1"/>
        <pt x="220" y="1301" on="1"/>
        <pt x="206" y="1134" on="1"/>
        <pt x="37" y="1134" on="1"/>
        <pt x="37" y="1456" on="1"/>
      </contour>
    </TTGlyph>
    <TTGlyph name="Tbar.smcp" xMin="51" yMin="0" xMax="1116" yMax="1165">
      <component glyphName="T.smcp" x="0" y="0" flags="0x204"/>
      <component glyphName="crossbar" x="105" y="-7" flags="0x4"/>
    </TTGlyph>
    <TTGlyph name="Tcaron" xMin="37" yMin="0" xMax="1247" yMax="1842">
      <component glyphName="T" x="0" y="0" flags="0x204"/>
      <component glyphName="caron" x="237" y="327" flags="0x4"/>
    </TTGlyph>
    <TTGlyph name="Tcaron.smcp" xMin="51" yMin="0" xMax="1116" yMax="1521">
      <component glyphName="T.smcp" x="0" y="0" flags="0x204"/>
      <component glyphName="caron" x="171" y="6" flags="0x4"/>
    </TTGlyph>
    <TTGlyph name="Tcommaaccent.smcp" xMin="51" yMin="-599" xMax="1116" yMax="1165">
      <component glyphName="T.smcp" x="0" y="0" flags="0x204"/>
      <component glyphName="commaaccent" x="327" y="-345" flags="0x4"/>
    </TTGlyph>
    <TTGlyph name="Theta" xMin="79" yMin="-21" xMax="1368" yMax="1477">
      <contour>
        <pt x="959" y="659" on="1"/>
        <pt x="450" y="659" on="1"/>
        <pt x="450" y="813" on="1"/>
        <pt x="959" y="813" on="1"/>
      </contour>
      <contour>
        <pt x="1368" y="717" on="1"/>
        <pt x="1368" y="399" on="0"/>
        <pt x="1003" y="-21" on="0"/>
        <pt x="713" y="-21" on="1"/>
        <pt x="431" y="-21" on="0"/>
        <pt x="79" y="399" on="0"/>
        <pt x="79" y="717" on="1"/>
        <pt x="79" y="738" on="1"/>
        <pt x="79" y="1055" on="0"/>
        <pt x="431" y="1477" on="0"/>
        <pt x="713" y="1477" on="1"/>
        <pt x="1003" y="1477" on="0"/>
        <pt x="1368" y="1055" on="0"/>
        <pt x="1368" y="738" on="1"/>
      </contour>
      <contour>
        <pt x="1171" y="740" on="1"/>
        <pt x="1171" y="994" on="0"/>
        <pt x="928" y="1315" on="0"/>
        <pt x="713" y="1315" on="1"/>
        <pt x="507" y="1315" on="0"/>
        <pt x="276" y="993" on="0"/>
        <pt x="276" y="740" on="1"/>
        <pt x="276" y="717" on="1"/>
        <pt x="276" y="461" on="0"/>
        <pt x="507" y="140" on="0"/>
        <pt x="713" y="140" on="1"/>
        <pt x="931" y="140" on="0"/>
        <pt x="1171" y="460" on="0"/>
        <pt x="1171" y="717" on="1"/>
      </contour>
    </TTGlyph>
    <TTGlyph name="Thorn" xMin="70" yMin="0" xMax="1190" yMax="1456">
      <contour>
        <pt x="70" y="126" on="1"/>
        <pt x="233" y="154" on="1"/>
        <pt x="233" y="1301" on="1"/>
        <pt x="70" y="1329" on="1"/>
        <pt x="70" y="1456" on="1"/>
        <pt x="430" y="1456" on="1"/>
        <pt x="593" y="1456" on="1"/>
        <pt x="593" y="1329" on="1"/>
        <pt x="430" y="1301" on="1"/>
        <pt x="430" y="1163" on="1"/>
        <pt x="699" y="1163" on="1"/>
        <pt x="930" y="1163" on="0"/>
        <pt x="1190" y="927" on="0"/>
        <pt x="1190" y="738" on="1"/>
        <pt x="1190" y="548" on="0"/>
        <pt x="930" y="313" on="0"/>
        <pt x="699" y="313" on="1"/>
        <pt x="430" y="313" on="1"/>
        <pt x="430" y="154" on="1"/>
        <pt x="593" y="126" on="1"/>
        <pt x="593" y="0" on="1"/>
        <pt x="70" y="0" on="1"/>
      </contour>
      <contour>
        <pt x="430" y="1009" on="1"/>
        <pt x="430" y="467" on="1"/>
        <pt x="699" y="467" on="1"/>
        <pt x="845" y="467" on="0"/>
        <pt x="993" y="623" on="0"/>
        <pt x="993" y="736" on="1"/>
        <pt x="993" y="850" on="0"/>
        <pt x="845" y="1009" on="0"/>
        <pt x="699" y="1009" on="1"/>
      </contour>
    </TTGlyph>
    <TTGlyph name="U" xMin="60" yMin="-21" xMax="1482" yMax="1456">
      <contour>
        <pt x="583" y="1456" on="1"/>
        <pt x="583" y="1329" on="1"/>
        <pt x="420" y="1301" on="1"/>
        <pt x="420" y="469" on="1"/>
        <pt x="420" y="304" on="0"/>
        <pt x="608" y="133" on="0"/>
        <pt x="762" y="133" on="1"/>
        <pt x="924" y="133" on="0"/>
        <pt x="1122" y="303" on="0"/>
        <pt x="1122" y="469" on="1"/>
        <pt x="1122" y="1301" on="1"/>
        <pt x="959" y="1329" on="1"/>
        <pt x="959" y="1456" on="1"/>
        <pt x="1319" y="1456" on="1"/>
        <pt x="1482" y="1456" on="1"/>
        <pt x="1482" y="1329" on="1"/>
        <pt x="1319" y="1301" on="1"/>
        <pt x="1319" y="469" on="1"/>
        <pt x="1319" y="232" on="0"/>
        <pt x="1010" y="-21" on="0"/>
        <pt x="762" y="-21" on="1"/>
        <pt x="521" y="-21" on="0"/>
        <pt x="223" y="232" on="0"/>
        <pt x="223" y="469" on="1"/>
        <pt x="223" y="1301" on="1"/>
        <pt x="60" y="1329" on="1"/>
        <pt x="60" y="1456" on="1"/>
        <pt x="223" y="1456" on="1"/>
      </contour>
    </TTGlyph>
    <TTGlyph name="U.smcp" xMin="20" yMin="-17" xMax="1349" yMax="1165">
      <contour>
        <pt x="543" y="1165" on="1"/>
        <pt x="543" y="1038" on="1"/>
        <pt x="380" y="1010" on="1"/>
        <pt x="380" y="398" on="1"/>
        <pt x="380" y="275" on="0"/>
        <pt x="549" y="135" on="0"/>
        <pt x="685" y="135" on="1"/>
        <pt x="822" y="135" on="0"/>
        <pt x="990" y="274" on="0"/>
        <pt x="990" y="398" on="1"/>
        <pt x="990" y="1010" on="1"/>
        <pt x="827" y="1038" on="1"/>
        <pt x="827" y="1165" on="1"/>
        <pt x="1349" y="1165" on="1"/>
        <pt x="1349" y="1038" on="1"/>
        <pt x="1186" y="1010" on="1"/>
        <pt x="1186" y="398" on="1"/>
        <pt x="1186" y="203" on="0"/>
        <pt x="907" y="-17" on="0"/>
        <pt x="685" y="-17" on="1"/>
        <pt x="463" y="-17" on="0"/>
        <pt x="183" y="203" on="0"/>
        <pt x="183" y="398" on="1"/>
        <pt x="183" y="1010" on="1"/>
        <pt x="20" y="1038" on="1"/>
        <pt x="20" y="1165" on="1"/>
        <pt x="183" y="1165" on="1"/>
      </contour>
    </TTGlyph>
    <TTGlyph name="Uacute" xMin="60" yMin="-21" xMax="1482" yMax="1822">
      <component glyphName="U" x="0" y="0" flags="0x204"/>
      <component glyphName="acute" x="531" y="344" flags="0x4"/>
    </TTGlyph>
    <TTGlyph name="Uacute.smcp" xMin="20" yMin="-17" xMax="1349" yMax="1501">
      <component glyphName="U.smcp" x="0" y="0" flags="0x204"/>
      <component glyphName="acute" x="451" y="23" flags="0x4"/>
    </TTGlyph>
    <TTGlyph name="Ubreve" xMin="60" yMin="-21" xMax="1482" yMax="1867">
      <component glyphName="U" x="0" y="0" flags="0x204"/>
      <component glyphName="breve" x="324" y="411" flags="0x4"/>
    </TTGlyph>
    <TTGlyph name="Ubreve.smcp" xMin="20" yMin="-17" xMax="1349" yMax="1546">
      <component glyphName="U.smcp" x="0" y="0" flags="0x204"/>
      <component glyphName="breve" x="244" y="90" flags="0x4"/>
    </TTGlyph>
    <TTGlyph name="Ucircumflex" xMin="60" yMin="-21" xMax="1482" yMax="1850">
      <component glyphName="U" x="0" y="0" flags="0x204"/>
      <component glyphName="circumflex" x="343" y="335" flags="0x4"/>
    </TTGlyph>
    <TTGlyph name="Ucircumflex.smcp" xMin="20" yMin="-17" xMax="1349" yMax="1529">
      <component glyphName="U.smcp" x="0" y="0" flags="0x204"/>
      <component glyphName="circumflex" x="263" y="14" flags="0x4"/>
    </TTGlyph>
    <TTGlyph name="Udieresis" xMin="60" yMin="-21" xMax="1482" yMax="1804">
      <component glyphName="U" x="0" y="0" flags="0x204"/>
      <component glyphName="dieresis" x="238" y="348" flags="0x4"/>
    </TTGlyph>
    <TTGlyph name="Udieresis.smcp" xMin="20" yMin="-17" xMax="1349" yMax="1483">
      <component glyphName="U.smcp" x="0" y="0" flags="0x204"/>
      <component glyphName="dieresis" x="158" y="27" flags="0x4"/>
    </TTGlyph>
    <TTGlyph name="Ugrave" xMin="60" yMin="-21" xMax="1482" yMax="1825">
      <component glyphName="U" x="0" y="0" flags="0x204"/>
      <component glyphName="grave" x="346" y="348" flags="0x4"/>
    </TTGlyph>
    <TTGlyph name="Ugrave.smcp" xMin="20" yMin="-17" xMax="1349" yMax="1504">
      <component glyphName="U.smcp" x="0" y="0" flags="0x204"/>
      <component glyphName="grave" x="266" y="27" flags="0x4"/>
    </TTGlyph>
    <TTGlyph name="Uhorn" xMin="14" yMin="-21" xMax="1680" yMax="1549">
      <contour>
        <pt x="1274" y="1251" on="1"/>
        <pt x="1280" y="1250" on="1"/>
        <pt x="1404" y="1251" on="0"/>
        <pt x="1504" y="1401" on="0"/>
        <pt x="1504" y="1549" on="1"/>
        <pt x="1675" y="1549" on="1"/>
        <pt x="1677" y="1544" on="1"/>
        <pt x="1680" y="1335" on="0"/>
        <pt x="1485" y="1110" on="0"/>
        <pt x="1274" y="1103" on="1"/>
        <pt x="1274" y="469" on="1"/>
        <pt x="1274" y="232" on="0"/>
        <pt x="965" y="-21" on="0"/>
        <pt x="717" y="-21" on="1"/>
        <pt x="476" y="-21" on="0"/>
        <pt x="177" y="232" on="0"/>
        <pt x="177" y="469" on="1"/>
        <pt x="177" y="1301" on="1"/>
        <pt x="14" y="1329" on="1"/>
        <pt x="14" y="1456" on="1"/>
        <pt x="177" y="1456" on="1"/>
        <pt x="538" y="1456" on="1"/>
        <pt x="538" y="1329" on="1"/>
        <pt x="375" y="1301" on="1"/>
        <pt x="375" y="469" on="1"/>
        <pt x="375" y="304" on="0"/>
        <pt x="563" y="133" on="0"/>
        <pt x="717" y="133" on="1"/>
        <pt x="879" y="133" on="0"/>
        <pt x="1077" y="304" on="0"/>
        <pt x="1077" y="469" on="1"/>
        <pt x="1077" y="1301" on="1"/>
        <pt x="914" y="1329" on="1"/>
        <pt x="914" y="1456" on="1"/>
        <pt x="1274" y="1456" on="1"/>
      </contour>
    </TTGlyph>
    <TTGlyph name="Uhungarumlaut" xMin="60" yMin="-21" xMax="1482" yMax="1866">
      <component glyphName="U" x="0" y="0" flags="0x204"/>
      <component glyphName="hungarumlaut" x="416" y="348" flags="0x4"/>
    </TTGlyph>
    <TTGlyph name="Uhungarumlaut.smcp" xMin="20" yMin="-17" xMax="1349" yMax="1545">
      <component glyphName="U.smcp" x="0" y="0" flags="0x204"/>
      <component glyphName="hungarumlaut" x="336" y="27" flags="0x4"/>
    </TTGlyph>
    <TTGlyph name="Umacron" xMin="60" yMin="-21" xMax="1482" yMax="1795">
      <component glyphName="U" x="0" y="0" flags="0x204"/>
      <component glyphName="macron" x="235" y="339" flags="0x4"/>
    </TTGlyph>
    <TTGlyph name="Umacron.smcp" xMin="20" yMin="-17" xMax="1349" yMax="1474">
      <component glyphName="U.smcp" x="0" y="0" flags="0x204"/>
      <component glyphName="macron" x="155" y="18" flags="0x4"/>
    </TTGlyph>
    <TTGlyph name="Uogonek" xMin="60" yMin="-440" xMax="1482" yMax="1456">
      <component glyphName="U" x="0" y="0" flags="0x204"/>
      <component glyphName="ogonek" x="446" y="-8" flags="0x4"/>
    </TTGlyph>
    <TTGlyph name="Uogonek.smcp" xMin="20" yMin="-438" xMax="1349" yMax="1165">
      <component glyphName="U.smcp" x="0" y="0" flags="0x204"/>
      <component glyphName="ogonek" x="366" y="-6" flags="0x4"/>
    </TTGlyph>
    <TTGlyph name="Upsilon" xMin="55" yMin="0" xMax="1352" yMax="1456">
      <component glyphName="Y" x="0" y="0" flags="0x204"/>
    </TTGlyph>
    <TTGlyph name="Upsilondieresis" xMin="55" yMin="0" xMax="1352" yMax="1804">
      <component glyphName="Y" x="0" y="0" flags="0x204"/>
      <component glyphName="dieresis" x="185" y="348" flags="0x4"/>
    </TTGlyph>
    <TTGlyph name="Upsilontonos" xMin="-140" yMin="0" xMax="1452" yMax="1654">
      <component glyphName="Y" x="100" y="0" flags="0x4"/>
      <component glyphName="tonos" x="-276" y="-6" flags="0x4"/>
    </TTGlyph>
    <TTGlyph name="Uring" xMin="60" yMin="-21" xMax="1482" yMax="1933">
      <component glyphName="U" x="0" y="0" flags="0x204"/>
      <component glyphName="ring" x="412" y="427" flags="0x4"/>
    </TTGlyph>
    <TTGlyph name="Uring.smcp" xMin="20" yMin="-17" xMax="1349" yMax="1612">
      <component glyphName="U.smcp" x="0" y="0" flags="0x204"/>
      <component glyphName="ring" x="332" y="106" flags="0x4"/>
    </TTGlyph>
    <TTGlyph name="Utilde" xMin="60" yMin="-21" xMax="1482" yMax="1875">
      <component glyphName="U" x="0" y="0" flags="0x204"/>
      <component glyphName="tilde" x="270" y="352" flags="0x4"/>
    </TTGlyph>
    <TTGlyph name="Utilde.smcp" xMin="20" yMin="-17" xMax="1349" yMax="1554">
      <component glyphName="U.smcp" x="0" y="0" flags="0x204"/>
      <component glyphName="tilde" x="190" y="31" flags="0x4"/>
    </TTGlyph>
    <TTGlyph name="V" xMin="47" yMin="0" xMax="1425" yMax="1456">
      <contour>
        <pt x="507" y="1329" on="1"/>
        <pt x="374" y="1308" on="1"/>
        <pt x="700" y="362" on="1"/>
        <pt x="733" y="247" on="1"/>
        <pt x="739" y="247" on="1"/>
        <pt x="772" y="362" on="1"/>
        <pt x="1097" y="1309" on="1"/>
        <pt x="966" y="1329" on="1"/>
        <pt x="966" y="1456" on="1"/>
        <pt x="1425" y="1456" on="1"/>
        <pt x="1425" y="1329" on="1"/>
        <pt x="1308" y="1313" on="1"/>
        <pt x="820" y="0" on="1"/>
        <pt x="651" y="0" on="1"/>
        <pt x="163" y="1313" on="1"/>
        <pt x="47" y="1329" on="1"/>
        <pt x="47" y="1456" on="1"/>
        <pt x="507" y="1456" on="1"/>
      </contour>
    </TTGlyph>
    <TTGlyph name="V.smcp" xMin="20" yMin="0" xMax="1244" yMax="1165">
      <contour>
        <pt x="448" y="1038" on="1"/>
        <pt x="339" y="1019" on="1"/>
        <pt x="606" y="297" on="1"/>
        <pt x="629" y="215" on="1"/>
        <pt x="635" y="215" on="1"/>
        <pt x="658" y="295" on="1"/>
        <pt x="925" y="1019" on="1"/>
        <pt x="816" y="1038" on="1"/>
        <pt x="816" y="1165" on="1"/>
        <pt x="1244" y="1165" on="1"/>
        <pt x="1244" y="1038" on="1"/>
        <pt x="1132" y="1022" on="1"/>
        <pt x="724" y="0" on="1"/>
        <pt x="539" y="0" on="1"/>
        <pt x="131" y="1022" on="1"/>
        <pt x="20" y="1038" on="1"/>
        <pt x="20" y="1165" on="1"/>
        <pt x="448" y="1165" on="1"/>
      </contour>
    </TTGlyph>
    <TTGlyph name="W" xMin="27" yMin="0" xMax="1883" yMax="1456">
      <contour>
        <pt x="489" y="1329" on="1"/>
        <pt x="341" y="1306" on="1"/>
        <pt x="528" y="504" on="1"/>
        <pt x="555" y="322" on="1"/>
        <pt x="561" y="321" on="1"/>
        <pt x="600" y="504" on="1"/>
        <pt x="868" y="1456" on="1"/>
        <pt x="1042" y="1456" on="1"/>
        <pt x="1311" y="504" on="1"/>
        <pt x="1351" y="317" on="1"/>
        <pt x="1357" y="317" on="1"/>
        <pt x="1386" y="504" on="1"/>
        <pt x="1569" y="1306" on="1"/>
        <pt x="1420" y="1329" on="1"/>
        <pt x="1420" y="1456" on="1"/>
        <pt x="1883" y="1456" on="1"/>
        <pt x="1883" y="1329" on="1"/>
        <pt x="1766" y="1314" on="1"/>
        <pt x="1449" y="0" on="1"/>
        <pt x="1273" y="0" on="1"/>
        <pt x="985" y="1010" on="1"/>
        <pt x="959" y="1141" on="1"/>
        <pt x="953" y="1141" on="1"/>
        <pt x="928" y="1010" on="1"/>
        <pt x="636" y="0" on="1"/>
        <pt x="461" y="0" on="1"/>
        <pt x="144" y="1314" on="1"/>
        <pt x="27" y="1329" on="1"/>
        <pt x="27" y="1456" on="1"/>
        <pt x="489" y="1456" on="1"/>
      </contour>
    </TTGlyph>
    <TTGlyph name="W.smcp" xMin="20" yMin="0" xMax="1536" yMax="1165">
      <contour>
        <pt x="448" y="1038" on="1"/>
        <pt x="315" y="1015" on="1"/>
        <pt x="466" y="264" on="1"/>
        <pt x="466" y="261" on="1"/>
        <pt x="467" y="266" on="1"/>
        <pt x="688" y="1165" on="1"/>
        <pt x="871" y="1165" on="1"/>
        <pt x="1092" y="264" on="1"/>
        <pt x="1092" y="261" on="1"/>
        <pt x="1093" y="266" on="1"/>
        <pt x="1242" y="1015" on="1"/>
        <pt x="1109" y="1038" on="1"/>
        <pt x="1109" y="1165" on="1"/>
        <pt x="1536" y="1165" on="1"/>
        <pt x="1536" y="1038" on="1"/>
        <pt x="1447" y="1025" on="1"/>
        <pt x="1189" y="0" on="1"/>
        <pt x="1007" y="0" on="1"/>
        <pt x="782" y="855" on="1"/>
        <pt x="776" y="855" on="1"/>
        <pt x="549" y="0" on="1"/>
        <pt x="368" y="0" on="1"/>
        <pt x="109" y="1025" on="1"/>
        <pt x="20" y="1038" on="1"/>
        <pt x="20" y="1165" on="1"/>
        <pt x="448" y="1165" on="1"/>
      </contour>
    </TTGlyph>
    <TTGlyph name="Wacute" xMin="27" yMin="0" xMax="1883" yMax="1823">
      <component glyphName="W" x="0" y="0" flags="0x204"/>
      <component glyphName="acute" x="717" y="345" flags="0x4"/>
    </TTGlyph>
    <TTGlyph name="Wcircumflex" xMin="27" yMin="0" xMax="1883" yMax="1851">
      <component glyphName="W" x="0" y="0" flags="0x204"/>
      <component glyphName="circumflex" x="529" y="336" flags="0x4"/>
    </TTGlyph>
    <TTGlyph name="Wcircumflex.smcp" xMin="20" yMin="0" xMax="1536" yMax="1528">
      <component glyphName="W.smcp" x="0" y="0" flags="0x204"/>
      <component glyphName="circumflex" x="362" y="13" flags="0x4"/>
    </TTGlyph>
    <TTGlyph name="Wdieresis" xMin="27" yMin="0" xMax="1883" yMax="1805">
      <component glyphName="W" x="0" y="0" flags="0x204"/>
      <component glyphName="dieresis" x="424" y="349" flags="0x4"/>
    </TTGlyph>
    <TTGlyph name="Wgrave" xMin="27" yMin="0" xMax="1883" yMax="1826">
      <component glyphName="W" x="0" y="0" flags="0x204"/>
      <component glyphName="grave" x="532" y="349" flags="0x4"/>
    </TTGlyph>
    <TTGlyph name="X" xMin="43" yMin="0" xMax="1361" yMax="1456">
      <contour>
        <pt x="43" y="126" on="1"/>
        <pt x="174" y="148" on="1"/>
        <pt x="588" y="734" on="1"/>
        <pt x="184" y="1307" on="1"/>
        <pt x="53" y="1329" on="1"/>
        <pt x="53" y="1456" on="1"/>
        <pt x="525" y="1456" on="1"/>
        <pt x="525" y="1329" on="1"/>
        <pt x="408" y="1316" on="1"/>
        <pt x="699" y="879" on="1"/>
        <pt x="993" y="1316" on="1"/>
        <pt x="876" y="1329" on="1"/>
        <pt x="876" y="1456" on="1"/>
        <pt x="1351" y="1456" on="1"/>
        <pt x="1351" y="1329" on="1"/>
        <pt x="1220" y="1307" on="1"/>
        <pt x="816" y="734" on="1"/>
        <pt x="1229" y="148" on="1"/>
        <pt x="1361" y="126" on="1"/>
        <pt x="1361" y="0" on="1"/>
        <pt x="890" y="0" on="1"/>
        <pt x="890" y="126" on="1"/>
        <pt x="1005" y="139" on="1"/>
        <pt x="703" y="587" on="1"/>
        <pt x="400" y="139" on="1"/>
        <pt x="517" y="126" on="1"/>
        <pt x="517" y="0" on="1"/>
        <pt x="43" y="0" on="1"/>
      </contour>
    </TTGlyph>
    <TTGlyph name="X.smcp" xMin="32" yMin="0" xMax="1117" yMax="1165">
      <contour>
        <pt x="32" y="126" on="1"/>
        <pt x="158" y="147" on="1"/>
        <pt x="459" y="588" on="1"/>
        <pt x="167" y="1016" on="1"/>
        <pt x="42" y="1038" on="1"/>
        <pt x="42" y="1165" on="1"/>
        <pt x="461" y="1165" on="1"/>
        <pt x="461" y="1038" on="1"/>
        <pt x="386" y="1025" on="1"/>
        <pt x="572" y="732" on="1"/>
        <pt x="760" y="1025" on="1"/>
        <pt x="687" y="1038" on="1"/>
        <pt x="687" y="1165" on="1"/>
        <pt x="1108" y="1165" on="1"/>
        <pt x="1108" y="1038" on="1"/>
        <pt x="982" y="1016" on="1"/>
        <pt x="691" y="588" on="1"/>
        <pt x="991" y="147" on="1"/>
        <pt x="1117" y="126" on="1"/>
        <pt x="1117" y="0" on="1"/>
        <pt x="699" y="0" on="1"/>
        <pt x="699" y="126" on="1"/>
        <pt x="772" y="138" on="1"/>
        <pt x="575" y="442" on="1"/>
        <pt x="379" y="138" on="1"/>
        <pt x="453" y="126" on="1"/>
        <pt x="453" y="0" on="1"/>
        <pt x="32" y="0" on="1"/>
      </contour>
    </TTGlyph>
    <TTGlyph name="Xi" xMin="66" yMin="0" xMax="1122" yMax="1456">
      <contour>
        <pt x="66" y="321" on="1"/>
        <pt x="234" y="321" on="1"/>
        <pt x="249" y="154" on="1"/>
        <pt x="939" y="154" on="1"/>
        <pt x="955" y="321" on="1"/>
        <pt x="1122" y="321" on="1"/>
        <pt x="1122" y="0" on="1"/>
        <pt x="66" y="0" on="1"/>
      </contour>
      <contour>
        <pt x="1111" y="1456" on="1"/>
        <pt x="1111" y="1134" on="1"/>
        <pt x="942" y="1134" on="1"/>
        <pt x="927" y="1301" on="1"/>
        <pt x="250" y="1301" on="1"/>
        <pt x="235" y="1134" on="1"/>
        <pt x="66" y="1134" on="1"/>
        <pt x="66" y="1456" on="1"/>
      </contour>
      <contour>
        <pt x="278" y="833" on="1"/>
        <pt x="901" y="833" on="1"/>
        <pt x="901" y="678" on="1"/>
        <pt x="278" y="678" on="1"/>
      </contour>
    </TTGlyph>
    <TTGlyph name="Y" xMin="55" yMin="0" xMax="1352" yMax="1456">
      <contour>
        <pt x="555" y="1329" on="1"/>
        <pt x="398" y="1310" on="1"/>
        <pt x="703" y="716" on="1"/>
        <pt x="1008" y="1310" on="1"/>
        <pt x="852" y="1329" on="1"/>
        <pt x="852" y="1456" on="1"/>
        <pt x="1352" y="1456" on="1"/>
        <pt x="1352" y="1329" on="1"/>
        <pt x="1229" y="1310" on="1"/>
        <pt x="797" y="512" on="1"/>
        <pt x="797" y="154" on="1"/>
        <pt x="960" y="126" on="1"/>
        <pt x="960" y="0" on="1"/>
        <pt x="438" y="0" on="1"/>
        <pt x="438" y="126" on="1"/>
        <pt x="601" y="154" on="1"/>
        <pt x="601" y="527" on="1"/>
        <pt x="177" y="1310" on="1"/>
        <pt x="55" y="1329" on="1"/>
        <pt x="55" y="1456" on="1"/>
        <pt x="555" y="1456" on="1"/>
      </contour>
    </TTGlyph>
    <TTGlyph name="Y.smcp" xMin="20" yMin="0" xMax="1174" yMax="1165">
      <contour>
        <pt x="458" y="1038" on="1"/>
        <pt x="369" y="1023" on="1"/>
        <pt x="597" y="589" on="1"/>
        <pt x="825" y="1023" on="1"/>
        <pt x="737" y="1038" on="1"/>
        <pt x="737" y="1165" on="1"/>
        <pt x="1174" y="1165" on="1"/>
        <pt x="1174" y="1038" on="1"/>
        <pt x="1037" y="1018" on="1"/>
        <pt x="693" y="410" on="1"/>
        <pt x="693" y="154" on="1"/>
        <pt x="856" y="126" on="1"/>
        <pt x="856" y="0" on="1"/>
        <pt x="333" y="0" on="1"/>
        <pt x="333" y="126" on="1"/>
        <pt x="496" y="154" on="1"/>
        <pt x="496" y="419" on="1"/>
        <pt x="157" y="1018" on="1"/>
        <pt x="20" y="1038" on="1"/>
        <pt x="20" y="1165" on="1"/>
        <pt x="458" y="1165" on="1"/>
      </contour>
    </TTGlyph>
    <TTGlyph name="Yacute" xMin="55" yMin="0" xMax="1352" yMax="1822">
      <component glyphName="Y" x="0" y="0" flags="0x204"/>
      <component glyphName="acute" x="478" y="344" flags="0x4"/>
    </TTGlyph>
    <TTGlyph name="Yacute.smcp" xMin="20" yMin="0" xMax="1174" yMax="1499">
      <component glyphName="Y.smcp" x="0" y="0" flags="0x204"/>
      <component glyphName="acute" x="370" y="21" flags="0x4"/>
    </TTGlyph>
    <TTGlyph name="Ycircumflex" xMin="55" yMin="0" xMax="1352" yMax="1850">
      <component glyphName="Y" x="0" y="0" flags="0x204"/>
      <component glyphName="circumflex" x="290" y="335" flags="0x4"/>
    </TTGlyph>
    <TTGlyph name="Ycircumflex.smcp" xMin="20" yMin="0" xMax="1174" yMax="1527">
      <component glyphName="Y.smcp" x="0" y="0" flags="0x204"/>
      <component glyphName="circumflex" x="182" y="12" flags="0x4"/>
    </TTGlyph>
    <TTGlyph name="Ydieresis" xMin="55" yMin="0" xMax="1352" yMax="1804">
      <component glyphName="Y" x="0" y="0" flags="0x204"/>
      <component glyphName="dieresis" x="185" y="348" flags="0x4"/>
    </TTGlyph>
    <TTGlyph name="Ydieresis.smcp" xMin="20" yMin="0" xMax="1174" yMax="1481">
      <component glyphName="Y.smcp" x="0" y="0" flags="0x204"/>
      <component glyphName="dieresis" x="77" y="25" flags="0x4"/>
    </TTGlyph>
    <TTGlyph name="Ygrave" xMin="55" yMin="0" xMax="1352" yMax="1825">
      <component glyphName="Y" x="0" y="0" flags="0x204"/>
      <component glyphName="grave" x="293" y="348" flags="0x4"/>
    </TTGlyph>
    <TTGlyph name="Z" xMin="92" yMin="0" xMax="1128" yMax="1456">
      <contour>
        <pt x="313" y="154" on="1"/>
        <pt x="944" y="154" on="1"/>
        <pt x="960" y="321" on="1"/>
        <pt x="1128" y="321" on="1"/>
        <pt x="1128" y="0" on="1"/>
        <pt x="92" y="0" on="1"/>
        <pt x="92" y="146" on="1"/>
        <pt x="869" y="1301" on="1"/>
        <pt x="285" y="1301" on="1"/>
        <pt x="271" y="1134" on="1"/>
        <pt x="102" y="1134" on="1"/>
        <pt x="102" y="1456" on="1"/>
        <pt x="1095" y="1456" on="1"/>
        <pt x="1095" y="1315" on="1"/>
      </contour>
    </TTGlyph>
    <TTGlyph name="Z.smcp" xMin="79" yMin="0" xMax="984" yMax="1165">
      <contour>
        <pt x="318" y="152" on="1"/>
        <pt x="800" y="152" on="1"/>
        <pt x="816" y="321" on="1"/>
        <pt x="984" y="321" on="1"/>
        <pt x="984" y="0" on="1"/>
        <pt x="79" y="0" on="1"/>
        <pt x="79" y="118" on="1"/>
        <pt x="720" y="1012" on="1"/>
        <pt x="296" y="1012" on="1"/>
        <pt x="281" y="843" on="1"/>
        <pt x="113" y="843" on="1"/>
        <pt x="113" y="1165" on="1"/>
        <pt x="961" y="1165" on="1"/>
        <pt x="961" y="1051" on="1"/>
      </contour>
    </TTGlyph>
    <TTGlyph name="Zacute" xMin="92" yMin="0" xMax="1128" yMax="1823">
      <component glyphName="Z" x="0" y="0" flags="0x204"/>
      <component glyphName="acute" x="388" y="345" flags="0x4"/>
    </TTGlyph>
    <TTGlyph name="Zacute.smcp" xMin="79" yMin="0" xMax="984" yMax="1500">
      <component glyphName="Z.smcp" x="0" y="0" flags="0x204"/>
      <component glyphName="acute" x="291" y="22" flags="0x4"/>
    </TTGlyph>
    <TTGlyph name="Zcaron" xMin="92" yMin="0" xMax="1128" yMax="1845">
      <component glyphName="Z" x="0" y="0" flags="0x204"/>
      <component glyphName="caron" x="205" y="330" flags="0x4"/>
    </TTGlyph>
    <TTGlyph name="Zcaron.smcp" xMin="79" yMin="0" xMax="984" yMax="1522">
      <component glyphName="Z.smcp" x="0" y="0" flags="0x204"/>
      <component glyphName="caron" x="108" y="7" flags="0x4"/>
    </TTGlyph>
    <TTGlyph name="Zdotaccent" xMin="92" yMin="0" xMax="1128" yMax="1804">
      <component glyphName="Z" x="0" y="0" flags="0x204"/>
      <component glyphName="dotaccent" x="340" y="348" flags="0x4"/>
    </TTGlyph>
    <TTGlyph name="Zdotaccent.smcp" xMin="79" yMin="0" xMax="984" yMax="1481">
      <component glyphName="Z.smcp" x="0" y="0" flags="0x204"/>
      <component glyphName="dotaccent" x="243" y="25" flags="0x4"/>
    </TTGlyph>
    <TTGlyph name="Zeta" xMin="92" yMin="0" xMax="1128" yMax="1456">
      <component glyphName="Z" x="0" y="0" flags="0x204"/>
    </TTGlyph>
    <TTGlyph name="a" xMin="104" yMin="-21" xMax="1053" yMax="1102">
      <contour>
        <pt x="795" y="0" on="1"/>
        <pt x="786" y="44" on="0"/>
        <pt x="776" y="114" on="0"/>
        <pt x="774" y="149" on="1"/>
        <pt x="717" y="76" on="0"/>
        <pt x="546" y="-21" on="0"/>
        <pt x="449" y="-21" on="1"/>
        <pt x="280" y="-21" on="0"/>
        <pt x="104" y="144" on="0"/>
        <pt x="104" y="294" on="1"/>
        <pt x="104" y="448" on="0"/>
        <pt x="353" y="615" on="0"/>
        <pt x="570" y="615" on="1"/>
        <pt x="773" y="615" on="1"/>
        <pt x="773" y="741" on="1"/>
        <pt x="773" y="836" on="0"/>
        <pt x="653" y="947" on="0"/>
        <pt x="546" y="947" on="1"/>
        <pt x="472" y="947" on="0"/>
        <pt x="359" y="909" on="0"/>
        <pt x="324" y="876" on="1"/>
        <pt x="303" y="762" on="1"/>
        <pt x="151" y="762" on="1"/>
        <pt x="151" y="972" on="1"/>
        <pt x="225" y="1031" on="0"/>
        <pt x="435" y="1102" on="0"/>
        <pt x="558" y="1102" on="1"/>
        <pt x="742" y="1102" on="0"/>
        <pt x="970" y="914" on="0"/>
        <pt x="970" y="739" on="1"/>
        <pt x="970" y="218" on="1"/>
        <pt x="970" y="197" on="0"/>
        <pt x="971" y="157" on="0"/>
        <pt x="973" y="137" on="1"/>
        <pt x="1053" y="126" on="1"/>
        <pt x="1053" y="0" on="1"/>
      </contour>
      <contour>
        <pt x="478" y="144" on="1"/>
        <pt x="576" y="144" on="0"/>
        <pt x="738" y="238" on="0"/>
        <pt x="773" y="304" on="1"/>
        <pt x="773" y="482" on="1"/>
        <pt x="563" y="482" on="1"/>
        <pt x="442" y="482" on="0"/>
        <pt x="301" y="370" on="0"/>
        <pt x="301" y="290" on="1"/>
        <pt x="301" y="219" on="0"/>
        <pt x="389" y="144" on="0"/>
      </contour>
    </TTGlyph>
    <TTGlyph name="a.ss03" xMin="104" yMin="-21" xMax="1053" yMax="1102">
      <contour>
        <pt x="795" y="0" on="1"/>
        <pt x="786" y="44" on="0"/>
        <pt x="776" y="114" on="0"/>
        <pt x="774" y="149" on="1"/>
        <pt x="717" y="76" on="0"/>
        <pt x="546" y="-21" on="0"/>
        <pt x="449" y="-21" on="1"/>
        <pt x="281" y="-21" on="0"/>
        <pt x="104" y="152" on="0"/>
        <pt x="104" y="304" on="1"/>
        <pt x="104" y="459" on="0"/>
        <pt x="355" y="634" on="0"/>
        <pt x="570" y="634" on="1"/>
        <pt x="773" y="634" on="1"/>
        <pt x="773" y="741" on="1"/>
        <pt x="773" y="836" on="0"/>
        <pt x="653" y="947" on="0"/>
        <pt x="546" y="947" on="1"/>
        <pt x="448" y="947" on="0"/>
        <pt x="323" y="849" on="0"/>
        <pt x="323" y="782" on="1"/>
        <pt x="136" y="782" on="1"/>
        <pt x="134" y="788" on="1"/>
        <pt x="127" y="906" on="0"/>
        <pt x="369" y="1102" on="0"/>
        <pt x="558" y="1102" on="1"/>
        <pt x="742" y="1102" on="0"/>
        <pt x="970" y="914" on="0"/>
        <pt x="970" y="739" on="1"/>
        <pt x="970" y="218" on="1"/>
        <pt x="970" y="197" on="0"/>
        <pt x="971" y="157" on="0"/>
        <pt x="973" y="137" on="1"/>
        <pt x="1053" y="126" on="1"/>
        <pt x="1053" y="0" on="1"/>
      </contour>
      <contour>
        <pt x="478" y="144" on="1"/>
        <pt x="576" y="144" on="0"/>
        <pt x="738" y="238" on="0"/>
        <pt x="773" y="304" on="1"/>
        <pt x="773" y="501" on="1"/>
        <pt x="563" y="501" on="1"/>
        <pt x="443" y="501" on="0"/>
        <pt x="301" y="381" on="0"/>
        <pt x="301" y="300" on="1"/>
        <pt x="301" y="228" on="0"/>
        <pt x="390" y="144" on="0"/>
      </contour>
    </TTGlyph>
    <TTGlyph name="aacute" xMin="104" yMin="-21" xMax="1053" yMax="1498">
      <component glyphName="a" x="0" y="0" flags="0x204"/>
      <component glyphName="acute" x="334" y="20" flags="0x4"/>
    </TTGlyph>
    <TTGlyph name="abreve" xMin="104" yMin="-21" xMax="1053" yMax="1543">
      <component glyphName="a" x="0" y="0" flags="0x204"/>
      <component glyphName="breve" x="127" y="87" flags="0x4"/>
    </TTGlyph>
    <TTGlyph name="acircumflex" xMin="104" yMin="-21" xMax="1053" yMax="1526">
      <component glyphName="a" x="0" y="0" flags="0x204"/>
      <component glyphName="circumflex" x="146" y="11" flags="0x4"/>
    </TTGlyph>
    <TTGlyph name="acute" xMin="95" yMin="1212" xMax="511" yMax="1478">
      <contour>
        <pt x="279" y="1478" on="1"/>
        <pt x="509" y="1478" on="1"/>
        <pt x="511" y="1472" on="1"/>
        <pt x="242" y="1212" on="1"/>
        <pt x="95" y="1212" on="1"/>
      </contour>
    </TTGlyph>
    <TTGlyph name="acutecomb" xMin="118" yMin="1210" xMax="426" yMax="1559">
      <contour>
        <pt x="244" y="1559" on="1"/>
        <pt x="426" y="1559" on="1"/>
        <pt x="238" y="1210" on="1"/>
        <pt x="118" y="1210" on="1"/>
      </contour>
    </TTGlyph>
    <TTGlyph name="adieresis" xMin="104" yMin="-21" xMax="1053" yMax="1480">
      <component glyphName="a" x="0" y="0" flags="0x204"/>
      <component glyphName="dieresis" x="41" y="24" flags="0x4"/>
    </TTGlyph>
    <TTGlyph name="ae" xMin="97" yMin="-21" xMax="1699" yMax="1102">
      <contour>
        <pt x="1300" y="-21" on="1"/>
        <pt x="1165" y="-21" on="0"/>
        <pt x="957" y="76" on="0"/>
        <pt x="891" y="165" on="1"/>
        <pt x="835" y="86" on="0"/>
        <pt x="611" y="-21" on="0"/>
        <pt x="452" y="-21" on="1"/>
        <pt x="282" y="-21" on="0"/>
        <pt x="97" y="153" on="0"/>
        <pt x="97" y="304" on="1"/>
        <pt x="97" y="462" on="0"/>
        <pt x="326" y="635" on="0"/>
        <pt x="546" y="635" on="1"/>
        <pt x="775" y="635" on="1"/>
        <pt x="775" y="720" on="1"/>
        <pt x="775" y="826" on="0"/>
        <pt x="672" y="947" on="0"/>
        <pt x="574" y="947" on="1"/>
        <pt x="471" y="947" on="0"/>
        <pt x="349" y="837" on="0"/>
        <pt x="349" y="759" on="1"/>
        <pt x="161" y="777" on="1"/>
        <pt x="159" y="783" on="1"/>
        <pt x="154" y="921" on="0"/>
        <pt x="384" y="1102" on="0"/>
        <pt x="574" y="1102" on="1"/>
        <pt x="689" y="1102" on="0"/>
        <pt x="863" y="1021" on="0"/>
        <pt x="913" y="944" on="1"/>
        <pt x="977" y="1019" on="0"/>
        <pt x="1152" y="1102" on="0"/>
        <pt x="1254" y="1102" on="1"/>
        <pt x="1468" y="1102" on="0"/>
        <pt x="1699" y="842" on="0"/>
        <pt x="1699" y="614" on="1"/>
        <pt x="1699" y="495" on="1"/>
        <pt x="989" y="495" on="1"/>
        <pt x="987" y="490" on="1"/>
        <pt x="988" y="331" on="0"/>
        <pt x="1145" y="133" on="0"/>
        <pt x="1300" y="133" on="1"/>
        <pt x="1404" y="133" on="0"/>
        <pt x="1536" y="188" on="0"/>
        <pt x="1614" y="239" on="1"/>
        <pt x="1682" y="101" on="1"/>
        <pt x="1627" y="56" on="0"/>
        <pt x="1439" y="-21" on="0"/>
      </contour>
      <contour>
        <pt x="491" y="133" on="1"/>
        <pt x="567" y="133" on="0"/>
        <pt x="732" y="219" on="0"/>
        <pt x="775" y="276" on="1"/>
        <pt x="775" y="493" on="1"/>
        <pt x="548" y="493" on="1"/>
        <pt x="428" y="493" on="0"/>
        <pt x="294" y="381" on="0"/>
        <pt x="294" y="300" on="1"/>
        <pt x="294" y="226" on="0"/>
        <pt x="394" y="133" on="0"/>
      </contour>
      <contour>
        <pt x="1254" y="947" on="1"/>
        <pt x="1140" y="947" on="0"/>
        <pt x="1002" y="778" on="0"/>
        <pt x="991" y="645" on="1"/>
        <pt x="993" y="640" on="1"/>
        <pt x="1502" y="640" on="1"/>
        <pt x="1502" y="671" on="1"/>
        <pt x="1502" y="793" on="0"/>
        <pt x="1382" y="947" on="0"/>
      </contour>
    </TTGlyph>
    <TTGlyph name="aeacute" xMin="97" yMin="-21" xMax="1699" yMax="1498">
      <component glyphName="ae" x="0" y="0" flags="0x204"/>
      <component glyphName="acute" x="649" y="20" flags="0x4"/>
    </TTGlyph>
    <TTGlyph name="agrave" xMin="104" yMin="-21" xMax="1053" yMax="1501">
      <component glyphName="a" x="0" y="0" flags="0x204"/>
      <component glyphName="grave" x="149" y="24" flags="0x4"/>
    </TTGlyph>
    <TTGlyph name="alpha" xMin="104" yMin="-21" xMax="1148" yMax="1102">
      <contour>
        <pt x="1017" y="1082" on="1"/>
        <pt x="1017" y="296" on="1"/>
        <pt x="1017" y="212" on="0"/>
        <pt x="1057" y="148" on="0"/>
        <pt x="1093" y="148" on="1"/>
        <pt x="1101" y="148" on="0"/>
        <pt x="1118" y="151" on="0"/>
        <pt x="1124" y="154" on="1"/>
        <pt x="1148" y="13" on="1"/>
        <pt x="1118" y="-7" on="0"/>
        <pt x="1058" y="-21" on="0"/>
        <pt x="1021" y="-21" on="1"/>
        <pt x="950" y="-21" on="0"/>
        <pt x="858" y="54" on="0"/>
        <pt x="837" y="136" on="1"/>
        <pt x="784" y="58" on="0"/>
        <pt x="629" y="-21" on="0"/>
        <pt x="525" y="-21" on="1"/>
        <pt x="327" y="-21" on="0"/>
        <pt x="104" y="266" on="0"/>
        <pt x="104" y="500" on="1"/>
        <pt x="104" y="521" on="1"/>
        <pt x="104" y="782" on="0"/>
        <pt x="327" y="1102" on="0"/>
        <pt x="527" y="1102" on="1"/>
        <pt x="627" y="1102" on="0"/>
        <pt x="780" y="1023" on="0"/>
        <pt x="833" y="949" on="1"/>
        <pt x="850" y="1082" on="1"/>
      </contour>
      <contour>
        <pt x="301" y="500" on="1"/>
        <pt x="301" y="335" on="0"/>
        <pt x="435" y="133" on="0"/>
        <pt x="575" y="133" on="1"/>
        <pt x="662" y="133" on="0"/>
        <pt x="781" y="225" on="0"/>
        <pt x="820" y="309" on="1"/>
        <pt x="820" y="769" on="1"/>
        <pt x="780" y="852" on="0"/>
        <pt x="661" y="947" on="0"/>
        <pt x="577" y="947" on="1"/>
        <pt x="436" y="947" on="0"/>
        <pt x="301" y="709" on="0"/>
        <pt x="301" y="521" on="1"/>
      </contour>
    </TTGlyph>
    <TTGlyph name="alpha.alt" xMin="98" yMin="-21" xMax="1119" yMax="1102">
      <contour>
        <pt x="895" y="227" on="1"/>
        <pt x="841" y="106" on="0"/>
        <pt x="656" y="-21" on="0"/>
        <pt x="520" y="-21" on="1"/>
        <pt x="322" y="-21" on="0"/>
        <pt x="98" y="266" on="0"/>
        <pt x="98" y="500" on="1"/>
        <pt x="98" y="521" on="1"/>
        <pt x="98" y="782" on="0"/>
        <pt x="321" y="1102" on="0"/>
        <pt x="522" y="1102" on="1"/>
        <pt x="655" y="1102" on="0"/>
        <pt x="838" y="977" on="0"/>
        <pt x="892" y="860" on="1"/>
        <pt x="924" y="1082" on="1"/>
        <pt x="1112" y="1082" on="1"/>
        <pt x="1004" y="540" on="1"/>
        <pt x="1119" y="0" on="1"/>
        <pt x="931" y="0" on="1"/>
      </contour>
      <contour>
        <pt x="295" y="500" on="1"/>
        <pt x="295" y="336" on="0"/>
        <pt x="430" y="133" on="0"/>
        <pt x="570" y="133" on="1"/>
        <pt x="684" y="133" on="0"/>
        <pt x="811" y="345" on="0"/>
        <pt x="845" y="523" on="1"/>
        <pt x="845" y="556" on="1"/>
        <pt x="820" y="724" on="0"/>
        <pt x="686" y="947" on="0"/>
        <pt x="572" y="947" on="1"/>
        <pt x="431" y="947" on="0"/>
        <pt x="295" y="708" on="0"/>
        <pt x="295" y="521" on="1"/>
      </contour>
    </TTGlyph>
    <TTGlyph name="alphatonos" xMin="104" yMin="-21" xMax="1148" yMax="1645">
      <component glyphName="alpha" x="0" y="0" flags="0x204"/>
      <component glyphName="tonos" x="396" y="-15" flags="0x4"/>
    </TTGlyph>
    <TTGlyph name="amacron" xMin="104" yMin="-21" xMax="1053" yMax="1471">
      <component glyphName="a" x="0" y="0" flags="0x204"/>
      <component glyphName="macron" x="38" y="15" flags="0x4"/>
    </TTGlyph>
    <TTGlyph name="ampersand" xMin="74" yMin="-21" xMax="1242" yMax="1477">
      <contour>
        <pt x="74" y="392" on="1"/>
        <pt x="74" y="514" on="0"/>
        <pt x="215" y="697" on="0"/>
        <pt x="355" y="789" on="1"/>
        <pt x="277" y="888" on="0"/>
        <pt x="201" y="1043" on="0"/>
        <pt x="201" y="1125" on="1"/>
        <pt x="201" y="1294" on="0"/>
        <pt x="396" y="1477" on="0"/>
        <pt x="567" y="1477" on="1"/>
        <pt x="725" y="1477" on="0"/>
        <pt x="923" y="1295" on="0"/>
        <pt x="923" y="1167" on="1"/>
        <pt x="923" y="1069" on="0"/>
        <pt x="818" y="926" on="0"/>
        <pt x="715" y="851" on="1"/>
        <pt x="606" y="771" on="1"/>
        <pt x="946" y="362" on="1"/>
        <pt x="987" y="427" on="0"/>
        <pt x="1033" y="585" on="0"/>
        <pt x="1033" y="673" on="1"/>
        <pt x="1209" y="673" on="1"/>
        <pt x="1209" y="542" on="0"/>
        <pt x="1131" y="318" on="0"/>
        <pt x="1057" y="229" on="1"/>
        <pt x="1242" y="5" on="1"/>
        <pt x="1240" y="0" on="1"/>
        <pt x="1011" y="0" on="1"/>
        <pt x="926" y="102" on="1"/>
        <pt x="846" y="42" on="0"/>
        <pt x="652" y="-21" on="0"/>
        <pt x="548" y="-21" on="1"/>
        <pt x="331" y="-21" on="0"/>
        <pt x="74" y="209" on="0"/>
      </contour>
      <contour>
        <pt x="548" y="133" on="1"/>
        <pt x="620" y="133" on="0"/>
        <pt x="760" y="182" on="0"/>
        <pt x="822" y="228" on="1"/>
        <pt x="461" y="663" on="1"/>
        <pt x="421" y="634" on="1"/>
        <pt x="330" y="566" on="0"/>
        <pt x="271" y="442" on="0"/>
        <pt x="271" y="392" on="1"/>
        <pt x="271" y="279" on="0"/>
        <pt x="413" y="133" on="0"/>
      </contour>
      <contour>
        <pt x="398" y="1127" on="1"/>
        <pt x="398" y="1074" on="0"/>
        <pt x="452" y="959" on="0"/>
        <pt x="506" y="891" on="1"/>
        <pt x="644" y="986" on="1"/>
        <pt x="701" y="1024" on="0"/>
        <pt x="742" y="1113" on="0"/>
        <pt x="742" y="1167" on="1"/>
        <pt x="742" y="1228" on="0"/>
        <pt x="645" y="1322" on="0"/>
        <pt x="567" y="1322" on="1"/>
        <pt x="486" y="1322" on="0"/>
        <pt x="398" y="1209" on="0"/>
      </contour>
    </TTGlyph>
    <TTGlyph name="anoteleia" xMin="159" yMin="624" xMax="357" yMax="836">
      <component glyphName="periodcentered" x="0" y="0" flags="0x204"/>
    </TTGlyph>
    <TTGlyph name="aogonek" xMin="104" yMin="-432" xMax="1132" yMax="1102">
      <component glyphName="a" x="0" y="0" flags="0x204"/>
      <component glyphName="ogonek" x="680" y="0" flags="0x4"/>
    </TTGlyph>
    <TTGlyph name="approxequal" xMin="129" yMin="272" xMax="1073" yMax="1024">
      <contour>
        <pt x="139" y="874" on="1"/>
        <pt x="186" y="942" on="0"/>
        <pt x="310" y="1020" on="0"/>
        <pt x="375" y="1020" on="1"/>
        <pt x="444" y="1021" on="0"/>
        <pt x="508" y="997" on="0"/>
        <pt x="609" y="947" on="1"/>
        <pt x="695" y="903" on="0"/>
        <pt x="761" y="878" on="0"/>
        <pt x="827" y="878" on="1"/>
        <pt x="891" y="878" on="0"/>
        <pt x="1015" y="955" on="0"/>
        <pt x="1063" y="1024" on="1"/>
        <pt x="1073" y="850" on="1"/>
        <pt x="1025" y="781" on="0"/>
        <pt x="901" y="704" on="0"/>
        <pt x="837" y="704" on="1"/>
        <pt x="771" y="704" on="0"/>
        <pt x="705" y="729" on="0"/>
        <pt x="619" y="773" on="1"/>
        <pt x="518" y="823" on="0"/>
        <pt x="454" y="847" on="0"/>
        <pt x="385" y="846" on="1"/>
        <pt x="320" y="846" on="0"/>
        <pt x="196" y="768" on="0"/>
        <pt x="149" y="700" on="1"/>
      </contour>
      <contour>
        <pt x="129" y="447" on="1"/>
        <pt x="176" y="515" on="0"/>
        <pt x="300" y="593" on="0"/>
        <pt x="365" y="593" on="1"/>
        <pt x="434" y="594" on="0"/>
        <pt x="498" y="570" on="0"/>
        <pt x="599" y="520" on="1"/>
        <pt x="688" y="474" on="0"/>
        <pt x="752" y="450" on="0"/>
        <pt x="817" y="450" on="1"/>
        <pt x="881" y="450" on="0"/>
        <pt x="1005" y="527" on="0"/>
        <pt x="1053" y="597" on="1"/>
        <pt x="1063" y="422" on="1"/>
        <pt x="1015" y="353" on="0"/>
        <pt x="891" y="276" on="0"/>
        <pt x="827" y="276" on="1"/>
        <pt x="761" y="276" on="0"/>
        <pt x="695" y="301" on="0"/>
        <pt x="609" y="345" on="1"/>
        <pt x="504" y="397" on="0"/>
        <pt x="443" y="420" on="0"/>
        <pt x="375" y="419" on="1"/>
        <pt x="310" y="419" on="0"/>
        <pt x="186" y="341" on="0"/>
        <pt x="139" y="272" on="1"/>
      </contour>
    </TTGlyph>
    <TTGlyph name="aring" xMin="104" yMin="-21" xMax="1053" yMax="1609">
      <component glyphName="a" x="0" y="0" flags="0x204"/>
      <component glyphName="ring" x="215" y="103" flags="0x4"/>
    </TTGlyph>
    <TTGlyph name="aringacute" xMin="104" yMin="-21" xMax="1053" yMax="1629">
      <component glyphName="a" x="0" y="0" flags="0x204"/>
      <component glyphName="ringacute" x="231" y="-19" flags="0x4"/>
    </TTGlyph>
    <TTGlyph name="asciicircum" xMin="71" yMin="729" xMax="802" yMax="1456">
      <contour>
        <pt x="253" y="729" on="1"/>
        <pt x="71" y="729" on="1"/>
        <pt x="370" y="1456" on="1"/>
        <pt x="504" y="1456" on="1"/>
        <pt x="802" y="729" on="1"/>
        <pt x="620" y="729" on="1"/>
        <pt x="454" y="1148" on="1"/>
        <pt x="438" y="1218" on="1"/>
        <pt x="432" y="1218" on="1"/>
        <pt x="416" y="1148" on="1"/>
      </contour>
    </TTGlyph>
    <TTGlyph name="asciitilde" xMin="121" yMin="401" xMax="1257" yMax="803">
      <contour>
        <pt x="1257" y="740" on="1"/>
        <pt x="1257" y="603" on="0"/>
        <pt x="1082" y="401" on="0"/>
        <pt x="952" y="401" on="1"/>
        <pt x="863" y="401" on="0"/>
        <pt x="716" y="467" on="0"/>
        <pt x="631" y="541" on="1"/>
        <pt x="571" y="589" on="0"/>
        <pt x="473" y="637" on="0"/>
        <pt x="424" y="637" on="1"/>
        <pt x="357" y="637" on="0"/>
        <pt x="262" y="531" on="0"/>
        <pt x="262" y="456" on="1"/>
        <pt x="121" y="474" on="1"/>
        <pt x="121" y="610" on="0"/>
        <pt x="292" y="803" on="0"/>
        <pt x="424" y="803" on="1"/>
        <pt x="512" y="803" on="0"/>
        <pt x="662" y="734" on="0"/>
        <pt x="747" y="664" on="1"/>
        <pt x="806" y="613" on="0"/>
        <pt x="901" y="567" on="0"/>
        <pt x="952" y="567" on="1"/>
        <pt x="1018" y="567" on="0"/>
        <pt x="1115" y="681" on="0"/>
        <pt x="1115" y="758" on="1"/>
      </contour>
    </TTGlyph>
    <TTGlyph name="asterisk" xMin="66" yMin="607" xMax="893" yMax="1456">
      <contour>
        <pt x="362" y="982" on="1"/>
        <pt x="66" y="1071" on="1"/>
        <pt x="115" y="1225" on="1"/>
        <pt x="411" y="1114" on="1"/>
        <pt x="401" y="1456" on="1"/>
        <pt x="562" y="1456" on="1"/>
        <pt x="552" y="1108" on="1"/>
        <pt x="845" y="1218" on="1"/>
        <pt x="893" y="1062" on="1"/>
        <pt x="591" y="973" on="1"/>
        <pt x="784" y="703" on="1"/>
        <pt x="653" y="607" on="1"/>
        <pt x="472" y="894" on="1"/>
        <pt x="296" y="615" on="1"/>
        <pt x="164" y="708" on="1"/>
      </contour>
    </TTGlyph>
    <TTGlyph name="at" xMin="67" yMin="-453" xMax="1721" yMax="1431">
      <contour>
        <pt x="1704" y="502" on="1"/>
        <pt x="1695" y="288" on="0"/>
        <pt x="1473" y="-21" on="0"/>
        <pt x="1252" y="-21" on="1"/>
        <pt x="1179" y="-21" on="0"/>
        <pt x="1072" y="62" on="0"/>
        <pt x="1049" y="137" on="1"/>
        <pt x="999" y="57" on="0"/>
        <pt x="855" y="-21" on="0"/>
        <pt x="760" y="-21" on="1"/>
        <pt x="635" y="-21" on="0"/>
        <pt x="497" y="220" on="0"/>
        <pt x="515" y="416" on="1"/>
        <pt x="538" y="675" on="0"/>
        <pt x="767" y="988" on="0"/>
        <pt x="931" y="988" on="1"/>
        <pt x="1036" y="988" on="0"/>
        <pt x="1163" y="936" on="0"/>
        <pt x="1240" y="882" on="1"/>
        <pt x="1236" y="878" on="1"/>
        <pt x="1242" y="878" on="1"/>
        <pt x="1191" y="293" on="1"/>
        <pt x="1182" y="183" on="0"/>
        <pt x="1243" y="100" on="0"/>
        <pt x="1294" y="100" on="1"/>
        <pt x="1417" y="100" on="0"/>
        <pt x="1564" y="327" on="0"/>
        <pt x="1572" y="502" on="1"/>
        <pt x="1589" y="884" on="0"/>
        <pt x="1268" y="1311" on="0"/>
        <pt x="933" y="1311" on="1"/>
        <pt x="624" y="1311" on="0"/>
        <pt x="250" y="849" on="0"/>
        <pt x="235" y="478" on="1"/>
        <pt x="217" y="102" on="0"/>
        <pt x="553" y="-335" on="0"/>
        <pt x="867" y="-335" on="1"/>
        <pt x="955" y="-335" on="0"/>
        <pt x="1135" y="-292" on="0"/>
        <pt x="1197" y="-257" on="1"/>
        <pt x="1236" y="-364" on="1"/>
        <pt x="1168" y="-406" on="0"/>
        <pt x="961" y="-453" on="0"/>
        <pt x="863" y="-453" on="1"/>
        <pt x="483" y="-453" on="0"/>
        <pt x="67" y="46" on="0"/>
        <pt x="86" y="478" on="1"/>
        <pt x="105" y="901" on="0"/>
        <pt x="565" y="1431" on="0"/>
        <pt x="937" y="1431" on="1"/>
        <pt x="1316" y="1431" on="0"/>
        <pt x="1721" y="931" on="0"/>
      </contour>
      <contour>
        <pt x="691" y="416" on="1"/>
        <pt x="680" y="275" on="0"/>
        <pt x="746" y="126" on="0"/>
        <pt x="820" y="126" on="1"/>
        <pt x="883" y="126" on="0"/>
        <pt x="990" y="176" on="0"/>
        <pt x="1034" y="239" on="1"/>
        <pt x="1033" y="251" on="0"/>
        <pt x="1034" y="277" on="0"/>
        <pt x="1036" y="293" on="1"/>
        <pt x="1083" y="831" on="1"/>
        <pt x="1057" y="843" on="0"/>
        <pt x="1000" y="857" on="0"/>
        <pt x="969" y="857" on="1"/>
        <pt x="844" y="857" on="0"/>
        <pt x="712" y="639" on="0"/>
      </contour>
    </TTGlyph>
    <TTGlyph name="atilde" xMin="104" yMin="-21" xMax="1053" yMax="1551">
      <component glyphName="a" x="0" y="0" flags="0x204"/>
      <component glyphName="tilde" x="73" y="28" flags="0x4"/>
    </TTGlyph>
    <TTGlyph name="b" xMin="-8" yMin="-21" xMax="1079" yMax="1560">
      <contour>
        <pt x="1079" y="500" on="1"/>
        <pt x="1079" y="266" on="0"/>
        <pt x="854" y="-21" on="0"/>
        <pt x="657" y="-21" on="1"/>
        <pt x="551" y="-21" on="0"/>
        <pt x="395" y="60" on="0"/>
        <pt x="343" y="139" on="1"/>
        <pt x="325" y="0" on="1"/>
        <pt x="155" y="0" on="1"/>
        <pt x="155" y="1405" on="1"/>
        <pt x="-8" y="1433" on="1"/>
        <pt x="-8" y="1560" on="1"/>
        <pt x="352" y="1560" on="1"/>
        <pt x="352" y="954" on="1"/>
        <pt x="403" y="1026" on="0"/>
        <pt x="554" y="1102" on="0"/>
        <pt x="655" y="1102" on="1"/>
        <pt x="855" y="1102" on="0"/>
        <pt x="1079" y="782" on="0"/>
        <pt x="1079" y="521" on="1"/>
      </contour>
      <contour>
        <pt x="881" y="521" on="1"/>
        <pt x="881" y="708" on="0"/>
        <pt x="745" y="942" on="0"/>
        <pt x="605" y="942" on="1"/>
        <pt x="514" y="942" on="0"/>
        <pt x="389" y="854" on="0"/>
        <pt x="352" y="780" on="1"/>
        <pt x="352" y="302" on="1"/>
        <pt x="389" y="227" on="0"/>
        <pt x="516" y="139" on="0"/>
        <pt x="607" y="139" on="1"/>
        <pt x="746" y="139" on="0"/>
        <pt x="881" y="337" on="0"/>
        <pt x="881" y="500" on="1"/>
      </contour>
    </TTGlyph>
    <TTGlyph name="backslash" xMin="36" yMin="-125" xMax="830" yMax="1456">
      <contour>
        <pt x="36" y="1456" on="1"/>
        <pt x="222" y="1456" on="1"/>
        <pt x="830" y="-125" on="1"/>
        <pt x="644" y="-125" on="1"/>
      </contour>
    </TTGlyph>
    <TTGlyph name="bar" xMin="150" yMin="-270" xMax="307" yMax="1456">
      <contour>
        <pt x="307" y="-270" on="1"/>
        <pt x="150" y="-270" on="1"/>
        <pt x="150" y="1456" on="1"/>
        <pt x="307" y="1456" on="1"/>
      </contour>
    </TTGlyph>
    <TTGlyph name="beta" xMin="143" yMin="-383" xMax="1088" yMax="1477">
      <contour>
        <pt x="592" y="1477" on="1"/>
        <pt x="787" y="1477" on="0"/>
        <pt x="1023" y="1257" on="0"/>
        <pt x="1023" y="1083" on="1"/>
        <pt x="1023" y="992" on="0"/>
        <pt x="924" y="840" on="0"/>
        <pt x="837" y="794" on="1"/>
        <pt x="956" y="750" on="0"/>
        <pt x="1088" y="554" on="0"/>
        <pt x="1088" y="425" on="1"/>
        <pt x="1088" y="216" on="0"/>
        <pt x="835" y="-21" on="0"/>
        <pt x="633" y="-21" on="1"/>
        <pt x="551" y="-21" on="0"/>
        <pt x="398" y="23" on="0"/>
        <pt x="340" y="69" on="1"/>
        <pt x="340" y="-383" on="1"/>
        <pt x="143" y="-383" on="1"/>
        <pt x="143" y="1073" on="1"/>
        <pt x="143" y="1239" on="0"/>
        <pt x="408" y="1477" on="0"/>
      </contour>
      <contour>
        <pt x="588" y="860" on="1"/>
        <pt x="710" y="860" on="0"/>
        <pt x="826" y="981" on="0"/>
        <pt x="826" y="1087" on="1"/>
        <pt x="826" y="1182" on="0"/>
        <pt x="701" y="1322" on="0"/>
        <pt x="592" y="1322" on="1"/>
        <pt x="485" y="1322" on="0"/>
        <pt x="340" y="1179" on="0"/>
        <pt x="340" y="1073" on="1"/>
        <pt x="340" y="242" on="1"/>
        <pt x="384" y="191" on="0"/>
        <pt x="525" y="133" on="0"/>
        <pt x="613" y="133" on="1"/>
        <pt x="742" y="133" on="0"/>
        <pt x="891" y="293" on="0"/>
        <pt x="891" y="421" on="1"/>
        <pt x="891" y="533" on="0"/>
        <pt x="760" y="705" on="0"/>
        <pt x="649" y="705" on="1"/>
        <pt x="506" y="705" on="1"/>
        <pt x="506" y="860" on="1"/>
      </contour>
    </TTGlyph>
    <TTGlyph name="braceleft" xMin="63" yMin="-364" xMax="671" yMax="1597">
      <contour>
        <pt x="631" y="-364" on="1"/>
        <pt x="436" y="-309" on="0"/>
        <pt x="271" y="-69" on="0"/>
        <pt x="271" y="101" on="1"/>
        <pt x="271" y="306" on="1"/>
        <pt x="271" y="418" on="0"/>
        <pt x="169" y="543" on="0"/>
        <pt x="63" y="543" on="1"/>
        <pt x="63" y="690" on="1"/>
        <pt x="169" y="690" on="0"/>
        <pt x="271" y="813" on="0"/>
        <pt x="271" y="926" on="1"/>
        <pt x="271" y="1132" on="1"/>
        <pt x="271" y="1303" on="0"/>
        <pt x="436" y="1542" on="0"/>
        <pt x="631" y="1597" on="1"/>
        <pt x="671" y="1480" on="1"/>
        <pt x="561" y="1445" on="0"/>
        <pt x="468" y="1264" on="0"/>
        <pt x="468" y="1132" on="1"/>
        <pt x="468" y="926" on="1"/>
        <pt x="468" y="821" on="0"/>
        <pt x="384" y="661" on="0"/>
        <pt x="299" y="616" on="1"/>
        <pt x="384" y="570" on="0"/>
        <pt x="468" y="409" on="0"/>
        <pt x="468" y="306" on="1"/>
        <pt x="468" y="101" on="1"/>
        <pt x="468" y="-31" on="0"/>
        <pt x="561" y="-210" on="0"/>
        <pt x="671" y="-246" on="1"/>
      </contour>
    </TTGlyph>
    <TTGlyph name="braceright" xMin="27" yMin="-364" xMax="635" yMax="1597">
      <contour>
        <pt x="27" y="-246" on="1"/>
        <pt x="135" y="-210" on="0"/>
        <pt x="229" y="-31" on="0"/>
        <pt x="229" y="101" on="1"/>
        <pt x="229" y="306" on="1"/>
        <pt x="229" y="413" on="0"/>
        <pt x="319" y="573" on="0"/>
        <pt x="413" y="616" on="1"/>
        <pt x="319" y="657" on="0"/>
        <pt x="229" y="817" on="0"/>
        <pt x="229" y="926" on="1"/>
        <pt x="229" y="1132" on="1"/>
        <pt x="229" y="1264" on="0"/>
        <pt x="135" y="1445" on="0"/>
        <pt x="27" y="1480" on="1"/>
        <pt x="67" y="1597" on="1"/>
        <pt x="261" y="1542" on="0"/>
        <pt x="426" y="1303" on="0"/>
        <pt x="426" y="1132" on="1"/>
        <pt x="426" y="926" on="1"/>
        <pt x="426" y="813" on="0"/>
        <pt x="528" y="690" on="0"/>
        <pt x="635" y="690" on="1"/>
        <pt x="635" y="543" on="1"/>
        <pt x="528" y="543" on="0"/>
        <pt x="426" y="418" on="0"/>
        <pt x="426" y="306" on="1"/>
        <pt x="426" y="101" on="1"/>
        <pt x="426" y="-69" on="0"/>
        <pt x="261" y="-309" on="0"/>
        <pt x="67" y="-364" on="1"/>
      </contour>
    </TTGlyph>
    <TTGlyph name="bracketleft" xMin="157" yMin="-312" xMax="541" yMax="1664">
      <contour>
        <pt x="541" y="1509" on="1"/>
        <pt x="354" y="1509" on="1"/>
        <pt x="354" y="-157" on="1"/>
        <pt x="541" y="-157" on="1"/>
        <pt x="541" y="-312" on="1"/>
        <pt x="157" y="-312" on="1"/>
        <pt x="157" y="1664" on="1"/>
        <pt x="541" y="1664" on="1"/>
      </contour>
    </TTGlyph>
    <TTGlyph name="bracketright" xMin="23" yMin="-312" xMax="408" yMax="1664">
      <contour>
        <pt x="23" y="1664" on="1"/>
        <pt x="408" y="1664" on="1"/>
        <pt x="408" y="-312" on="1"/>
        <pt x="23" y="-312" on="1"/>
        <pt x="23" y="-157" on="1"/>
        <pt x="211" y="-157" on="1"/>
        <pt x="211" y="1509" on="1"/>
        <pt x="23" y="1509" on="1"/>
      </contour>
    </TTGlyph>
    <TTGlyph name="breve" xMin="120" yMin="1188" xMax="719" yMax="1456">
      <contour>
        <pt x="713" y="1456" on="1"/>
        <pt x="715" y="1450" on="1"/>
        <pt x="719" y="1334" on="0"/>
        <pt x="557" y="1188" on="0"/>
        <pt x="420" y="1188" on="1"/>
        <pt x="282" y="1188" on="0"/>
        <pt x="120" y="1334" on="0"/>
        <pt x="125" y="1450" on="1"/>
        <pt x="127" y="1456" on="1"/>
        <pt x="277" y="1456" on="1"/>
        <pt x="277" y="1391" on="0"/>
        <pt x="346" y="1308" on="0"/>
        <pt x="420" y="1308" on="1"/>
        <pt x="492" y="1308" on="0"/>
        <pt x="562" y="1391" on="0"/>
        <pt x="562" y="1456" on="1"/>
      </contour>
    </TTGlyph>
    <TTGlyph name="breveacutecomb" xMin="128" yMin="1247" xMax="735" yMax="1675">
      <contour>
        <pt x="727" y="1456" on="1"/>
        <pt x="729" y="1450" on="1"/>
        <pt x="735" y="1361" on="0"/>
        <pt x="571" y="1247" on="0"/>
        <pt x="433" y="1247" on="1"/>
        <pt x="292" y="1247" on="0"/>
        <pt x="128" y="1361" on="0"/>
        <pt x="135" y="1450" on="1"/>
        <pt x="137" y="1456" on="1"/>
        <pt x="288" y="1456" on="1"/>
        <pt x="288" y="1405" on="0"/>
        <pt x="357" y="1342" on="0"/>
        <pt x="433" y="1342" on="1"/>
        <pt x="505" y="1342" on="0"/>
        <pt x="575" y="1405" on="0"/>
        <pt x="575" y="1456" on="1"/>
      </contour>
      <contour>
        <pt x="483" y="1675" on="1"/>
        <pt x="637" y="1675" on="1"/>
        <pt x="639" y="1670" on="1"/>
        <pt x="480" y="1478" on="1"/>
        <pt x="374" y="1478" on="1"/>
      </contour>
    </TTGlyph>
    <TTGlyph name="brevegravecomb" xMin="89" yMin="1189" xMax="768" yMax="1657">
      <contour>
        <pt x="761" y="1456" on="1"/>
        <pt x="763" y="1450" on="1"/>
        <pt x="768" y="1335" on="0"/>
        <pt x="584" y="1189" on="0"/>
        <pt x="429" y="1189" on="1"/>
        <pt x="273" y="1189" on="0"/>
        <pt x="89" y="1335" on="0"/>
        <pt x="95" y="1450" on="1"/>
        <pt x="97" y="1456" on="1"/>
        <pt x="246" y="1456" on="1"/>
        <pt x="246" y="1391" on="0"/>
        <pt x="334" y="1309" on="0"/>
        <pt x="429" y="1309" on="1"/>
        <pt x="521" y="1309" on="0"/>
        <pt x="610" y="1391" on="0"/>
        <pt x="610" y="1456" on="1"/>
      </contour>
      <contour>
        <pt x="515" y="1452" on="1"/>
        <pt x="357" y="1452" on="1"/>
        <pt x="150" y="1651" on="1"/>
        <pt x="152" y="1657" on="1"/>
        <pt x="371" y="1657" on="1"/>
      </contour>
    </TTGlyph>
    <TTGlyph name="brevehookcomb" xMin="128" yMin="1248" xMax="713" yMax="1796">
      <contour>
        <pt x="560" y="1456" on="1"/>
        <pt x="560" y="1406" on="0"/>
        <pt x="492" y="1342" on="0"/>
        <pt x="422" y="1342" on="1"/>
        <pt x="350" y="1342" on="0"/>
        <pt x="281" y="1406" on="0"/>
        <pt x="281" y="1456" on="1"/>
        <pt x="137" y="1456" on="1"/>
        <pt x="135" y="1450" on="1"/>
        <pt x="128" y="1361" on="0"/>
        <pt x="287" y="1248" on="0"/>
        <pt x="422" y="1248" on="1"/>
        <pt x="556" y="1248" on="0"/>
        <pt x="713" y="1361" on="0"/>
        <pt x="707" y="1450" on="1"/>
        <pt x="705" y="1456" on="1"/>
      </contour>
      <contour>
        <pt x="363" y="1474" on="1"/>
        <pt x="362" y="1600" on="1"/>
        <pt x="434" y="1603" on="0"/>
        <pt x="494" y="1626" on="0"/>
        <pt x="489" y="1652" on="1"/>
        <pt x="489" y="1658" on="1"/>
        <pt x="494" y="1686" on="0"/>
        <pt x="413" y="1713" on="0"/>
        <pt x="343" y="1713" on="1"/>
        <pt x="350" y="1796" on="1"/>
        <pt x="492" y="1796" on="0"/>
        <pt x="645" y="1718" on="0"/>
        <pt x="645" y="1652" on="1"/>
        <pt x="645" y="1599" on="0"/>
        <pt x="562" y="1544" on="0"/>
        <pt x="499" y="1537" on="1"/>
        <pt x="498" y="1474" on="1"/>
      </contour>
    </TTGlyph>
    <TTGlyph name="brevetildecomb" xMin="128" yMin="1242" xMax="722" yMax="1746">
      <contour>
        <pt x="714" y="1455" on="1"/>
        <pt x="716" y="1449" on="1"/>
        <pt x="722" y="1358" on="0"/>
        <pt x="562" y="1242" on="0"/>
        <pt x="425" y="1242" on="1"/>
        <pt x="289" y="1242" on="0"/>
        <pt x="128" y="1358" on="0"/>
        <pt x="135" y="1449" on="1"/>
        <pt x="137" y="1455" on="1"/>
        <pt x="285" y="1455" on="1"/>
        <pt x="285" y="1403" on="0"/>
        <pt x="352" y="1338" on="0"/>
        <pt x="425" y="1338" on="1"/>
        <pt x="496" y="1338" on="0"/>
        <pt x="566" y="1404" on="0"/>
        <pt x="566" y="1455" on="1"/>
      </contour>
      <contour>
        <pt x="714" y="1722" on="1"/>
        <pt x="714" y="1647" on="0"/>
        <pt x="619" y="1541" on="0"/>
        <pt x="547" y="1541" on="1"/>
        <pt x="490" y="1541" on="0"/>
        <pt x="366" y="1616" on="0"/>
        <pt x="325" y="1616" on="1"/>
        <pt x="292" y="1616" on="0"/>
        <pt x="246" y="1564" on="0"/>
        <pt x="246" y="1528" on="1"/>
        <pt x="159" y="1549" on="1"/>
        <pt x="159" y="1622" on="0"/>
        <pt x="253" y="1733" on="0"/>
        <pt x="325" y="1733" on="1"/>
        <pt x="370" y="1733" on="0"/>
        <pt x="505" y="1658" on="0"/>
        <pt x="547" y="1658" on="1"/>
        <pt x="579" y="1658" on="0"/>
        <pt x="628" y="1709" on="0"/>
        <pt x="628" y="1746" on="1"/>
      </contour>
    </TTGlyph>
    <TTGlyph name="brokenbar" xMin="150" yMin="-270" xMax="347" yMax="1456">
      <contour>
        <pt x="150" y="-270" on="1"/>
        <pt x="150" y="522" on="1"/>
        <pt x="347" y="522" on="1"/>
        <pt x="347" y="-270" on="1"/>
      </contour>
      <contour>
        <pt x="347" y="698" on="1"/>
        <pt x="150" y="698" on="1"/>
        <pt x="150" y="1456" on="1"/>
        <pt x="347" y="1456" on="1"/>
      </contour>
    </TTGlyph>
    <TTGlyph name="bullet" xMin="135" yMin="535" xMax="549" yMax="993">
      <contour>
        <pt x="135" y="793" on="1"/>
        <pt x="135" y="881" on="0"/>
        <pt x="247" y="993" on="0"/>
        <pt x="341" y="993" on="1"/>
        <pt x="436" y="993" on="0"/>
        <pt x="549" y="881" on="0"/>
        <pt x="549" y="793" on="1"/>
        <pt x="549" y="733" on="1"/>
        <pt x="549" y="644" on="0"/>
        <pt x="436" y="535" on="0"/>
        <pt x="342" y="535" on="1"/>
        <pt x="247" y="535" on="0"/>
        <pt x="135" y="644" on="0"/>
        <pt x="135" y="733" on="1"/>
      </contour>
    </TTGlyph>
    <TTGlyph name="c" xMin="90" yMin="-21" xMax="1006" yMax="1102">
      <contour>
        <pt x="575" y="133" on="1"/>
        <pt x="673" y="133" on="0"/>
        <pt x="822" y="254" on="0"/>
        <pt x="822" y="342" on="1"/>
        <pt x="999" y="342" on="1"/>
        <pt x="1001" y="336" on="1"/>
        <pt x="1006" y="196" on="0"/>
        <pt x="747" y="-21" on="0"/>
        <pt x="575" y="-21" on="1"/>
        <pt x="339" y="-21" on="0"/>
        <pt x="90" y="287" on="0"/>
        <pt x="90" y="520" on="1"/>
        <pt x="90" y="562" on="1"/>
        <pt x="90" y="793" on="0"/>
        <pt x="340" y="1102" on="0"/>
        <pt x="575" y="1102" on="1"/>
        <pt x="705" y="1102" on="0"/>
        <pt x="912" y="1016" on="0"/>
        <pt x="980" y="941" on="1"/>
        <pt x="989" y="701" on="1"/>
        <pt x="832" y="701" on="1"/>
        <pt x="789" y="871" on="1"/>
        <pt x="754" y="905" on="0"/>
        <pt x="644" y="947" on="0"/>
        <pt x="575" y="947" on="1"/>
        <pt x="420" y="947" on="0"/>
        <pt x="287" y="724" on="0"/>
        <pt x="287" y="562" on="1"/>
        <pt x="287" y="520" on="1"/>
        <pt x="287" y="354" on="0"/>
        <pt x="419" y="133" on="0"/>
      </contour>
    </TTGlyph>
    <TTGlyph name="c.ss03" xMin="104" yMin="-21" xMax="1020" yMax="1102">
      <contour>
        <pt x="589" y="133" on="1"/>
        <pt x="687" y="133" on="0"/>
        <pt x="836" y="254" on="0"/>
        <pt x="836" y="342" on="1"/>
        <pt x="1013" y="342" on="1"/>
        <pt x="1015" y="336" on="1"/>
        <pt x="1020" y="196" on="0"/>
        <pt x="761" y="-21" on="0"/>
        <pt x="589" y="-21" on="1"/>
        <pt x="353" y="-21" on="0"/>
        <pt x="104" y="287" on="0"/>
        <pt x="104" y="520" on="1"/>
        <pt x="104" y="562" on="1"/>
        <pt x="104" y="793" on="0"/>
        <pt x="354" y="1102" on="0"/>
        <pt x="589" y="1102" on="1"/>
        <pt x="779" y="1102" on="0"/>
        <pt x="1020" y="878" on="0"/>
        <pt x="1016" y="715" on="1"/>
        <pt x="1014" y="709" on="1"/>
        <pt x="836" y="709" on="1"/>
        <pt x="836" y="808" on="0"/>
        <pt x="696" y="947" on="0"/>
        <pt x="589" y="947" on="1"/>
        <pt x="434" y="947" on="0"/>
        <pt x="301" y="724" on="0"/>
        <pt x="301" y="562" on="1"/>
        <pt x="301" y="520" on="1"/>
        <pt x="301" y="354" on="0"/>
        <pt x="433" y="133" on="0"/>
      </contour>
    </TTGlyph>
    <TTGlyph name="cacute" xMin="90" yMin="-21" xMax="1006" yMax="1498">
      <component glyphName="c" x="0" y="0" flags="0x204"/>
      <component glyphName="acute" x="351" y="20" flags="0x4"/>
    </TTGlyph>
    <TTGlyph name="caron" xMin="90" yMin="1252" xMax="719" yMax="1515">
      <contour>
        <pt x="402" y="1367" on="1"/>
        <pt x="549" y="1515" on="1"/>
        <pt x="719" y="1515" on="1"/>
        <pt x="719" y="1497" on="1"/>
        <pt x="462" y="1252" on="1"/>
        <pt x="343" y="1252" on="1"/>
        <pt x="90" y="1495" on="1"/>
        <pt x="90" y="1515" on="1"/>
        <pt x="256" y="1515" on="1"/>
      </contour>
    </TTGlyph>
    <TTGlyph name="ccaron" xMin="90" yMin="-21" xMax="1006" yMax="1520">
      <component glyphName="c" x="0" y="0" flags="0x204"/>
      <component glyphName="caron" x="168" y="5" flags="0x4"/>
    </TTGlyph>
    <TTGlyph name="ccedilla" xMin="90" yMin="-444" xMax="1006" yMax="1102">
      <component glyphName="c" x="0" y="0" flags="0x204"/>
      <component glyphName="cedilla" x="307" y="-9" flags="0x4"/>
    </TTGlyph>
    <TTGlyph name="ccircumflex" xMin="90" yMin="-21" xMax="1006" yMax="1526">
      <component glyphName="c" x="0" y="0" flags="0x204"/>
      <component glyphName="circumflex" x="163" y="11" flags="0x4"/>
    </TTGlyph>
    <TTGlyph name="cedilla" xMin="103" yMin="-435" xMax="415" yMax="0">
      <contour>
        <pt x="276" y="0" on="1"/>
        <pt x="264" y="-52" on="1"/>
        <pt x="329" y="-63" on="0"/>
        <pt x="415" y="-145" on="0"/>
        <pt x="415" y="-225" on="1"/>
        <pt x="415" y="-321" on="0"/>
        <pt x="257" y="-435" on="0"/>
        <pt x="110" y="-435" on="1"/>
        <pt x="103" y="-326" on="1"/>
        <pt x="175" y="-326" on="0"/>
        <pt x="262" y="-277" on="0"/>
        <pt x="262" y="-228" on="1"/>
        <pt x="262" y="-180" on="0"/>
        <pt x="190" y="-142" on="0"/>
        <pt x="103" y="-135" on="1"/>
        <pt x="135" y="0" on="1"/>
      </contour>
    </TTGlyph>
    <TTGlyph name="cent" xMin="104" yMin="-245" xMax="1020" yMax="1318">
      <contour>
        <pt x="589" y="133" on="1"/>
        <pt x="687" y="133" on="0"/>
        <pt x="836" y="254" on="0"/>
        <pt x="836" y="342" on="1"/>
        <pt x="1014" y="342" on="1"/>
        <pt x="1016" y="336" on="1"/>
        <pt x="1020" y="213" on="0"/>
        <pt x="813" y="9" on="0"/>
        <pt x="664" y="-15" on="1"/>
        <pt x="664" y="-245" on="1"/>
        <pt x="467" y="-245" on="1"/>
        <pt x="467" y="-8" on="1"/>
        <pt x="289" y="30" on="0"/>
        <pt x="104" y="320" on="0"/>
        <pt x="104" y="520" on="1"/>
        <pt x="104" y="562" on="1"/>
        <pt x="104" y="759" on="0"/>
        <pt x="289" y="1049" on="0"/>
        <pt x="467" y="1089" on="1"/>
        <pt x="467" y="1318" on="1"/>
        <pt x="664" y="1318" on="1"/>
        <pt x="664" y="1098" on="1"/>
        <pt x="768" y="1086" on="0"/>
        <pt x="936" y="1005" on="0"/>
        <pt x="994" y="941" on="1"/>
        <pt x="1003" y="701" on="1"/>
        <pt x="846" y="701" on="1"/>
        <pt x="803" y="871" on="1"/>
        <pt x="768" y="905" on="0"/>
        <pt x="658" y="947" on="0"/>
        <pt x="589" y="947" on="1"/>
        <pt x="434" y="947" on="0"/>
        <pt x="301" y="724" on="0"/>
        <pt x="301" y="562" on="1"/>
        <pt x="301" y="520" on="1"/>
        <pt x="301" y="354" on="0"/>
        <pt x="433" y="133" on="0"/>
      </contour>
    </TTGlyph>
    <TTGlyph name="chi" xMin="62" yMin="0" xMax="1143" yMax="1082">
      <contour>
        <pt x="62" y="126" on="1"/>
        <pt x="178" y="149" on="1"/>
        <pt x="487" y="537" on="1"/>
        <pt x="188" y="932" on="1"/>
        <pt x="72" y="955" on="1"/>
        <pt x="72" y="1082" on="1"/>
        <pt x="333" y="1081" on="1"/>
        <pt x="609" y="689" on="1"/>
        <pt x="803" y="944" on="1"/>
        <pt x="706" y="955" on="1"/>
        <pt x="706" y="1082" on="1"/>
        <pt x="1133" y="1082" on="1"/>
        <pt x="1133" y="955" on="1"/>
        <pt x="1017" y="932" on="1"/>
        <pt x="709" y="552" on="1"/>
        <pt x="1026" y="149" on="1"/>
        <pt x="1143" y="126" on="1"/>
        <pt x="1143" y="0" on="1"/>
        <pt x="896" y="0" on="1"/>
        <pt x="603" y="409" on="1"/>
        <pt x="391" y="137" on="1"/>
        <pt x="488" y="126" on="1"/>
        <pt x="488" y="0" on="1"/>
        <pt x="62" y="0" on="1"/>
      </contour>
    </TTGlyph>
    <TTGlyph name="circumflex" xMin="104" yMin="1252" xMax="717" yMax="1515">
      <contour>
        <pt x="717" y="1277" on="1"/>
        <pt x="717" y="1252" on="1"/>
        <pt x="556" y="1252" on="1"/>
        <pt x="409" y="1400" on="1"/>
        <pt x="264" y="1252" on="1"/>
        <pt x="104" y="1252" on="1"/>
        <pt x="104" y="1278" on="1"/>
        <pt x="350" y="1515" on="1"/>
        <pt x="469" y="1515" on="1"/>
      </contour>
    </TTGlyph>
    <TTGlyph name="circumflexacutecomb" xMin="120" yMin="1252" xMax="1137" yMax="1688">
      <contour>
        <pt x="409" y="1515" on="1"/>
        <pt x="567" y="1515" on="1"/>
        <pt x="856" y="1258" on="1"/>
        <pt x="854" y="1252" on="1"/>
        <pt x="655" y="1252" on="1"/>
        <pt x="488" y="1409" on="1"/>
        <pt x="321" y="1252" on="1"/>
        <pt x="122" y="1252" on="1"/>
        <pt x="120" y="1258" on="1"/>
      </contour>
      <contour>
        <pt x="926" y="1688" on="1"/>
        <pt x="1137" y="1688" on="1"/>
        <pt x="933" y="1428" on="1"/>
        <pt x="786" y="1428" on="1"/>
      </contour>
    </TTGlyph>
    <TTGlyph name="circumflexgravecomb" xMin="-169" yMin="1233" xMax="847" yMax="1669">
      <contour>
        <pt x="847" y="1239" on="1"/>
        <pt x="845" y="1233" on="1"/>
        <pt x="646" y="1233" on="1"/>
        <pt x="479" y="1390" on="1"/>
        <pt x="312" y="1233" on="1"/>
        <pt x="114" y="1233" on="1"/>
        <pt x="112" y="1239" on="1"/>
        <pt x="400" y="1496" on="1"/>
        <pt x="558" y="1496" on="1"/>
      </contour>
      <contour>
        <pt x="181" y="1409" on="1"/>
        <pt x="34" y="1409" on="1"/>
        <pt x="-169" y="1669" on="1"/>
        <pt x="41" y="1669" on="1"/>
      </contour>
    </TTGlyph>
    <TTGlyph name="circumflexhookcomb" xMin="109" yMin="1252" xMax="1014" yMax="1745">
      <contour>
        <pt x="575" y="1515" on="1"/>
        <pt x="378" y="1515" on="1"/>
        <pt x="109" y="1258" on="1"/>
        <pt x="111" y="1252" on="1"/>
        <pt x="280" y="1252" on="1"/>
        <pt x="476" y="1438" on="1"/>
        <pt x="673" y="1252" on="1"/>
        <pt x="843" y="1252" on="1"/>
        <pt x="845" y="1258" on="1"/>
      </contour>
      <contour>
        <pt x="760" y="1390" on="1"/>
        <pt x="759" y="1523" on="1"/>
        <pt x="826" y="1527" on="0"/>
        <pt x="881" y="1553" on="0"/>
        <pt x="881" y="1585" on="1"/>
        <pt x="881" y="1619" on="0"/>
        <pt x="806" y="1651" on="0"/>
        <pt x="744" y="1651" on="1"/>
        <pt x="750" y="1745" on="1"/>
        <pt x="876" y="1745" on="0"/>
        <pt x="1014" y="1657" on="0"/>
        <pt x="1014" y="1583" on="1"/>
        <pt x="1014" y="1522" on="0"/>
        <pt x="938" y="1458" on="0"/>
        <pt x="882" y="1451" on="1"/>
        <pt x="881" y="1390" on="1"/>
      </contour>
    </TTGlyph>
    <TTGlyph name="circumflextildecomb" xMin="110" yMin="1252" xMax="844" yMax="1750">
      <contour>
        <pt x="844" y="1258" on="1"/>
        <pt x="842" y="1252" on="1"/>
        <pt x="673" y="1252" on="1"/>
        <pt x="476" y="1409" on="1"/>
        <pt x="280" y="1252" on="1"/>
        <pt x="112" y="1252" on="1"/>
        <pt x="110" y="1258" on="1"/>
        <pt x="408" y="1496" on="1"/>
        <pt x="546" y="1496" on="1"/>
      </contour>
      <contour>
        <pt x="737" y="1727" on="1"/>
        <pt x="737" y="1665" on="0"/>
        <pt x="640" y="1570" on="0"/>
        <pt x="574" y="1570" on="1"/>
        <pt x="522" y="1570" on="0"/>
        <pt x="409" y="1641" on="0"/>
        <pt x="371" y="1641" on="1"/>
        <pt x="340" y="1641" on="0"/>
        <pt x="288" y="1593" on="0"/>
        <pt x="288" y="1567" on="1"/>
        <pt x="209" y="1586" on="1"/>
        <pt x="209" y="1647" on="0"/>
        <pt x="304" y="1747" on="0"/>
        <pt x="371" y="1747" on="1"/>
        <pt x="412" y="1747" on="0"/>
        <pt x="536" y="1678" on="0"/>
        <pt x="574" y="1678" on="1"/>
        <pt x="604" y="1678" on="0"/>
        <pt x="658" y="1723" on="0"/>
        <pt x="658" y="1750" on="1"/>
      </contour>
    </TTGlyph>
    <TTGlyph name="colon" xMin="145" yMin="0" xMax="342" yMax="1082">
      <component glyphName="period" x="0" y="0" flags="0x4"/>
      <component glyphName="period" x="0" y="880" flags="0x4"/>
    </TTGlyph>
    <TTGlyph name="comma" xMin="23" yMin="-311" xMax="315" yMax="221">
      <contour>
        <pt x="315" y="72" on="1"/>
        <pt x="315" y="-26" on="0"/>
        <pt x="217" y="-240" on="0"/>
        <pt x="134" y="-311" on="1"/>
        <pt x="23" y="-237" on="1"/>
        <pt x="70" y="-165" on="0"/>
        <pt x="118" y="-15" on="0"/>
        <pt x="118" y="69" on="1"/>
        <pt x="118" y="221" on="1"/>
        <pt x="315" y="221" on="1"/>
      </contour>
    </TTGlyph>
    <TTGlyph name="commaaccent" xMin="66" yMin="-254" xMax="348" yMax="243">
      <contour>
        <pt x="348" y="127" on="1"/>
        <pt x="348" y="25" on="0"/>
        <pt x="259" y="-185" on="0"/>
        <pt x="177" y="-254" on="1"/>
        <pt x="66" y="-180" on="1"/>
        <pt x="113" y="-109" on="0"/>
        <pt x="160" y="38" on="0"/>
        <pt x="160" y="124" on="1"/>
        <pt x="160" y="243" on="1"/>
        <pt x="348" y="243" on="1"/>
      </contour>
    </TTGlyph>
    <TTGlyph name="commaaccentrotate" xMin="160" yMin="1164" xMax="378" yMax="1559">
      <contour>
        <pt x="160" y="1312" on="1"/>
        <pt x="281" y="1559" on="1"/>
        <pt x="378" y="1559" on="1"/>
        <pt x="357" y="1302" on="1"/>
        <pt x="357" y="1164" on="1"/>
        <pt x="160" y="1164" on="1"/>
      </contour>
    </TTGlyph>
    <TTGlyph name="copyright" xMin="92" yMin="-21" xMax="1511" yMax="1476">
      <contour>
        <pt x="1114" y="596" on="1"/>
        <pt x="1116" y="590" on="1"/>
        <pt x="1120" y="439" on="0"/>
        <pt x="945" y="282" on="0"/>
        <pt x="788" y="282" on="1"/>
        <pt x="628" y="282" on="0"/>
        <pt x="439" y="494" on="0"/>
        <pt x="439" y="669" on="1"/>
        <pt x="439" y="788" on="1"/>
        <pt x="439" y="961" on="0"/>
        <pt x="628" y="1175" on="0"/>
        <pt x="788" y="1175" on="1"/>
        <pt x="945" y="1175" on="0"/>
        <pt x="1121" y="1017" on="0"/>
        <pt x="1117" y="868" on="1"/>
        <pt x="1115" y="862" on="1"/>
        <pt x="969" y="862" on="1"/>
        <pt x="969" y="957" on="0"/>
        <pt x="878" y="1044" on="0"/>
        <pt x="788" y="1044" on="1"/>
        <pt x="693" y="1044" on="0"/>
        <pt x="591" y="903" on="0"/>
        <pt x="591" y="789" on="1"/>
        <pt x="591" y="669" on="1"/>
        <pt x="591" y="552" on="0"/>
        <pt x="693" y="412" on="0"/>
        <pt x="788" y="412" on="1"/>
        <pt x="878" y="412" on="0"/>
        <pt x="968" y="498" on="0"/>
        <pt x="968" y="596" on="1"/>
      </contour>
      <contour>
        <pt x="212" y="729" on="1"/>
        <pt x="212" y="464" on="0"/>
        <pt x="556" y="100" on="0"/>
        <pt x="802" y="100" on="1"/>
        <pt x="1046" y="100" on="0"/>
        <pt x="1390" y="464" on="0"/>
        <pt x="1390" y="729" on="1"/>
        <pt x="1390" y="992" on="0"/>
        <pt x="1046" y="1354" on="0"/>
        <pt x="802" y="1354" on="1"/>
        <pt x="556" y="1354" on="0"/>
        <pt x="212" y="993" on="0"/>
      </contour>
      <contour>
        <pt x="92" y="729" on="1"/>
        <pt x="92" y="1044" on="0"/>
        <pt x="506" y="1476" on="0"/>
        <pt x="802" y="1476" on="1"/>
        <pt x="1097" y="1476" on="0"/>
        <pt x="1511" y="1044" on="0"/>
        <pt x="1511" y="729" on="1"/>
        <pt x="1511" y="413" on="0"/>
        <pt x="1096" y="-21" on="0"/>
        <pt x="802" y="-21" on="1"/>
        <pt x="506" y="-21" on="0"/>
        <pt x="92" y="413" on="0"/>
      </contour>
    </TTGlyph>
    <TTGlyph name="crossbar" xMin="147" yMin="648" xMax="788" yMax="803">
      <contour>
        <pt x="788" y="648" on="1"/>
        <pt x="147" y="648" on="1"/>
        <pt x="147" y="803" on="1"/>
        <pt x="788" y="803" on="1"/>
      </contour>
    </TTGlyph>
    <TTGlyph name="currency" xMin="94" yMin="-27" xMax="1360" yMax="1265">
      <contour>
        <pt x="1087" y="108" on="1"/>
        <pt x="1010" y="46" on="0"/>
        <pt x="825" y="-20" on="0"/>
        <pt x="724" y="-20" on="1"/>
        <pt x="623" y="-20" on="0"/>
        <pt x="439" y="45" on="0"/>
        <pt x="362" y="107" on="1"/>
        <pt x="232" y="-26" on="1"/>
        <pt x="94" y="112" on="1"/>
        <pt x="232" y="252" on="1"/>
        <pt x="182" y="328" on="0"/>
        <pt x="129" y="509" on="0"/>
        <pt x="129" y="608" on="1"/>
        <pt x="129" y="710" on="0"/>
        <pt x="186" y="898" on="0"/>
        <pt x="240" y="976" on="1"/>
        <pt x="94" y="1125" on="1"/>
        <pt x="232" y="1264" on="1"/>
        <pt x="375" y="1118" on="1"/>
        <pt x="449" y="1173" on="0"/>
        <pt x="628" y="1234" on="0"/>
        <pt x="724" y="1234" on="1"/>
        <pt x="821" y="1234" on="0"/>
        <pt x="999" y="1172" on="0"/>
        <pt x="1074" y="1116" on="1"/>
        <pt x="1220" y="1265" on="1"/>
        <pt x="1360" y="1125" on="1"/>
        <pt x="1210" y="972" on="1"/>
        <pt x="1262" y="894" on="0"/>
        <pt x="1319" y="709" on="0"/>
        <pt x="1319" y="608" on="1"/>
        <pt x="1319" y="510" on="0"/>
        <pt x="1266" y="331" on="0"/>
        <pt x="1218" y="255" on="1"/>
        <pt x="1360" y="112" on="1"/>
        <pt x="1220" y="-27" on="1"/>
      </contour>
      <contour>
        <pt x="311" y="608" on="1"/>
        <pt x="311" y="420" on="0"/>
        <pt x="552" y="155" on="0"/>
        <pt x="724" y="155" on="1"/>
        <pt x="894" y="155" on="0"/>
        <pt x="1135" y="420" on="0"/>
        <pt x="1135" y="608" on="1"/>
        <pt x="1135" y="794" on="0"/>
        <pt x="894" y="1058" on="0"/>
        <pt x="724" y="1058" on="1"/>
        <pt x="552" y="1058" on="0"/>
        <pt x="311" y="794" on="0"/>
      </contour>
    </TTGlyph>
    <TTGlyph name="cyrillicbreve" xMin="120" yMin="1188" xMax="719" yMax="1456">
      <component glyphName="breve" x="0" y="0" flags="0x204"/>
    </TTGlyph>
    <TTGlyph name="cyrillichook" xMin="-44" yMin="-359" xMax="371" yMax="148">
      <contour>
        <pt x="371" y="148" on="1"/>
        <pt x="371" y="-33" on="1"/>
        <pt x="371" y="-189" on="0"/>
        <pt x="210" y="-359" on="0"/>
        <pt x="67" y="-359" on="1"/>
        <pt x="38" y="-359" on="0"/>
        <pt x="-12" y="-350" on="0"/>
        <pt x="-44" y="-341" on="1"/>
        <pt x="-30" y="-181" on="1"/>
        <pt x="-16" y="-186" on="0"/>
        <pt x="48" y="-193" on="0"/>
        <pt x="67" y="-193" on="1"/>
        <pt x="117" y="-193" on="0"/>
        <pt x="174" y="-111" on="0"/>
        <pt x="174" y="-33" on="1"/>
        <pt x="174" y="148" on="1"/>
      </contour>
    </TTGlyph>
    <TTGlyph name="cyrillichookleft" xMin="17" yMin="-413" xMax="455" yMax="67">
      <contour>
        <pt x="246" y="67" on="1"/>
        <pt x="351" y="15" on="0"/>
        <pt x="455" y="-128" on="0"/>
        <pt x="455" y="-204" on="1"/>
        <pt x="455" y="-303" on="0"/>
        <pt x="321" y="-413" on="0"/>
        <pt x="220" y="-413" on="1"/>
        <pt x="152" y="-413" on="0"/>
        <pt x="56" y="-388" on="0"/>
        <pt x="17" y="-369" on="1"/>
        <pt x="50" y="-246" on="1"/>
        <pt x="80" y="-257" on="0"/>
        <pt x="135" y="-272" on="0"/>
        <pt x="169" y="-272" on="1"/>
        <pt x="230" y="-272" on="0"/>
        <pt x="284" y="-224" on="0"/>
        <pt x="284" y="-182" on="1"/>
        <pt x="284" y="-133" on="0"/>
        <pt x="214" y="-46" on="0"/>
        <pt x="155" y="0" on="1"/>
      </contour>
    </TTGlyph>
    <TTGlyph name="cyrillictic" xMin="96" yMin="-359" xMax="293" yMax="108">
      <contour>
        <pt x="293" y="-359" on="1"/>
        <pt x="96" y="-359" on="1"/>
        <pt x="96" y="108" on="1"/>
        <pt x="293" y="108" on="1"/>
      </contour>
    </TTGlyph>
    <TTGlyph name="d" xMin="90" yMin="-21" xMax="1168" yMax="1560">
      <contour>
        <pt x="818" y="129" on="1"/>
        <pt x="765" y="55" on="0"/>
        <pt x="612" y="-21" on="0"/>
        <pt x="511" y="-21" on="1"/>
        <pt x="313" y="-21" on="0"/>
        <pt x="90" y="266" on="0"/>
        <pt x="90" y="500" on="1"/>
        <pt x="90" y="521" on="1"/>
        <pt x="90" y="782" on="0"/>
        <pt x="313" y="1102" on="0"/>
        <pt x="513" y="1102" on="1"/>
        <pt x="609" y="1102" on="0"/>
        <pt x="756" y="1031" on="0"/>
        <pt x="808" y="964" on="1"/>
        <pt x="808" y="1405" on="1"/>
        <pt x="645" y="1433" on="1"/>
        <pt x="645" y="1560" on="1"/>
        <pt x="808" y="1560" on="1"/>
        <pt x="1005" y="1560" on="1"/>
        <pt x="1005" y="154" on="1"/>
        <pt x="1168" y="126" on="1"/>
        <pt x="1168" y="0" on="1"/>
        <pt x="834" y="0" on="1"/>
      </contour>
      <contour>
        <pt x="287" y="500" on="1"/>
        <pt x="287" y="337" on="0"/>
        <pt x="421" y="139" on="0"/>
        <pt x="561" y="139" on="1"/>
        <pt x="649" y="139" on="0"/>
        <pt x="769" y="219" on="0"/>
        <pt x="808" y="292" on="1"/>
        <pt x="808" y="794" on="1"/>
        <pt x="770" y="862" on="0"/>
        <pt x="648" y="942" on="0"/>
        <pt x="563" y="942" on="1"/>
        <pt x="422" y="942" on="0"/>
        <pt x="287" y="708" on="0"/>
        <pt x="287" y="521" on="1"/>
      </contour>
    </TTGlyph>
    <TTGlyph name="dagger" xMin="63" yMin="0" xMax="1053" yMax="1456">
      <contour>
        <pt x="1053" y="926" on="1"/>
        <pt x="653" y="926" on="1"/>
        <pt x="653" y="0" on="1"/>
        <pt x="456" y="0" on="1"/>
        <pt x="456" y="926" on="1"/>
        <pt x="63" y="926" on="1"/>
        <pt x="63" y="1082" on="1"/>
        <pt x="456" y="1082" on="1"/>
        <pt x="456" y="1456" on="1"/>
        <pt x="653" y="1456" on="1"/>
        <pt x="653" y="1082" on="1"/>
        <pt x="1053" y="1082" on="1"/>
      </contour>
    </TTGlyph>
    <TTGlyph name="daggerdbl" xMin="71" yMin="-416" xMax="1060" yMax="1456">
      <contour>
        <pt x="1060" y="0" on="1"/>
        <pt x="660" y="0" on="1"/>
        <pt x="660" y="-416" on="1"/>
        <pt x="463" y="-416" on="1"/>
        <pt x="463" y="0" on="1"/>
        <pt x="71" y="0" on="1"/>
        <pt x="71" y="154" on="1"/>
        <pt x="463" y="154" on="1"/>
        <pt x="463" y="926" on="1"/>
        <pt x="71" y="926" on="1"/>
        <pt x="71" y="1082" on="1"/>
        <pt x="463" y="1082" on="1"/>
        <pt x="463" y="1456" on="1"/>
        <pt x="660" y="1456" on="1"/>
        <pt x="660" y="1082" on="1"/>
        <pt x="1060" y="1082" on="1"/>
        <pt x="1060" y="926" on="1"/>
        <pt x="660" y="926" on="1"/>
        <pt x="660" y="154" on="1"/>
        <pt x="1060" y="154" on="1"/>
      </contour>
    </TTGlyph>
    <TTGlyph name="dasiaoxia" xMin="105" yMin="1135" xMax="715" yMax="1495">
      <contour>
        <pt x="394" y="1154" on="1"/>
        <pt x="507" y="1477" on="1"/>
        <pt x="715" y="1477" on="1"/>
        <pt x="715" y="1456" on="1"/>
        <pt x="487" y="1137" on="1"/>
        <pt x="394" y="1137" on="1"/>
      </contour>
      <contour>
        <pt x="105" y="1220" on="1"/>
        <pt x="105" y="1306" on="0"/>
        <pt x="199" y="1448" on="0"/>
        <pt x="287" y="1495" on="1"/>
        <pt x="364" y="1436" on="1"/>
        <pt x="322" y="1389" on="0"/>
        <pt x="283" y="1284" on="0"/>
        <pt x="283" y="1214" on="1"/>
        <pt x="283" y="1135" on="1"/>
        <pt x="105" y="1135" on="1"/>
      </contour>
    </TTGlyph>
    <TTGlyph name="dcaron" xMin="90" yMin="-21" xMax="1324" yMax="1560">
      <component glyphName="d" x="0" y="0" flags="0x4"/>
      <component glyphName="commaaccent" x="976" y="1317" flags="0x4"/>
    </TTGlyph>
    <TTGlyph name="dcroat" xMin="90" yMin="-21" xMax="1198" yMax="1560">
      <contour>
        <pt x="818" y="129" on="1"/>
        <pt x="765" y="55" on="0"/>
        <pt x="612" y="-21" on="0"/>
        <pt x="511" y="-21" on="1"/>
        <pt x="313" y="-21" on="0"/>
        <pt x="90" y="266" on="0"/>
        <pt x="90" y="500" on="1"/>
        <pt x="90" y="521" on="1"/>
        <pt x="90" y="782" on="0"/>
        <pt x="313" y="1102" on="0"/>
        <pt x="513" y="1102" on="1"/>
        <pt x="609" y="1102" on="0"/>
        <pt x="756" y="1031" on="0"/>
        <pt x="808" y="964" on="1"/>
        <pt x="808" y="1163" on="1"/>
        <pt x="557" y="1163" on="1"/>
        <pt x="557" y="1318" on="1"/>
        <pt x="808" y="1318" on="1"/>
        <pt x="808" y="1405" on="1"/>
        <pt x="645" y="1433" on="1"/>
        <pt x="645" y="1560" on="1"/>
        <pt x="1005" y="1560" on="1"/>
        <pt x="1005" y="1318" on="1"/>
        <pt x="1198" y="1318" on="1"/>
        <pt x="1198" y="1163" on="1"/>
        <pt x="1005" y="1163" on="1"/>
        <pt x="1005" y="154" on="1"/>
        <pt x="1168" y="126" on="1"/>
        <pt x="1168" y="0" on="1"/>
        <pt x="834" y="0" on="1"/>
      </contour>
      <contour>
        <pt x="287" y="500" on="1"/>
        <pt x="287" y="337" on="0"/>
        <pt x="421" y="139" on="0"/>
        <pt x="561" y="139" on="1"/>
        <pt x="649" y="139" on="0"/>
        <pt x="769" y="219" on="0"/>
        <pt x="808" y="292" on="1"/>
        <pt x="808" y="794" on="1"/>
        <pt x="770" y="862" on="0"/>
        <pt x="648" y="942" on="0"/>
        <pt x="563" y="942" on="1"/>
        <pt x="422" y="942" on="0"/>
        <pt x="287" y="708" on="0"/>
        <pt x="287" y="521" on="1"/>
      </contour>
    </TTGlyph>
    <TTGlyph name="degree" xMin="124" yMin="959" xMax="633" yMax="1477">
      <contour>
        <pt x="124" y="1216" on="1"/>
        <pt x="124" y="1322" on="0"/>
        <pt x="275" y="1477" on="0"/>
        <pt x="380" y="1477" on="1"/>
        <pt x="484" y="1477" on="0"/>
        <pt x="633" y="1322" on="0"/>
        <pt x="633" y="1216" on="1"/>
        <pt x="633" y="1108" on="0"/>
        <pt x="484" y="959" on="0"/>
        <pt x="380" y="959" on="1"/>
        <pt x="274" y="959" on="0"/>
        <pt x="124" y="1108" on="0"/>
      </contour>
      <contour>
        <pt x="254" y="1216" on="1"/>
        <pt x="254" y="1161" on="0"/>
        <pt x="327" y="1089" on="0"/>
        <pt x="380" y="1089" on="1"/>
        <pt x="432" y="1089" on="0"/>
        <pt x="503" y="1161" on="0"/>
        <pt x="503" y="1216" on="1"/>
        <pt x="503" y="1271" on="0"/>
        <pt x="432" y="1346" on="0"/>
        <pt x="380" y="1346" on="1"/>
        <pt x="327" y="1346" on="0"/>
        <pt x="254" y="1271" on="0"/>
      </contour>
    </TTGlyph>
</ttFont>
